<svg width="422" height="30" viewBox="0 0 422 30" fill="none" xmlns="http://www.w3.org/2000/svg">
<path d="M16.378 29.26V22.458H-2.73418e-05V17.252L16.986 1.89999H22.192V16.606H25.84V22.458H22.192V29.26H16.378ZM9.46197 16.606H16.378V10.982L9.46197 16.606ZM35.2438 29.26C34.2305 29.26 33.3058 29.0067 32.4698 28.5C31.6338 27.9933 30.9625 27.322 30.4558 26.486C29.9491 25.65 29.6958 24.738 29.6958 23.75V17.974C29.6958 17.5433 29.7591 17.1127 29.8858 16.682C30.0125 16.226 30.1645 15.7953 30.3418 15.39C30.1645 14.9847 30.0125 14.5667 29.8858 14.136C29.7591 13.68 29.6958 13.224 29.6958 12.768V7.40999C29.6958 6.39666 29.9491 5.47199 30.4558 4.63599C30.9625 3.79999 31.6338 3.14133 32.4698 2.65999C33.3058 2.15333 34.2305 1.89999 35.2438 1.89999H51.0138C51.9258 1.89999 52.7745 2.10266 53.5598 2.50799C54.3451 2.88799 55.0038 3.41999 55.5358 4.10399C56.0678 4.78799 56.4098 5.56066 56.5618 6.42199V12.768C56.5618 13.6547 56.3465 14.5287 55.9158 15.39C56.3465 16.15 56.5618 17.0113 56.5618 17.974V23.75C56.5618 24.738 56.3085 25.65 55.8018 26.486C55.2951 27.322 54.6238 27.9933 53.7878 28.5C52.9518 29.0067 52.0271 29.26 51.0138 29.26H35.2438ZM35.5098 23.446H50.7478V18.316H35.5098V23.446ZM35.5098 12.844H50.7478V7.75199H35.5098V12.844ZM61.4632 20.938V15.124H77.3092V20.938H61.4632ZM81.0181 29.26V1.89999H86.9081V12.616H103.058V1.89999H108.948V29.26H103.058V18.544H86.9081V29.26H81.0181ZM118.622 29.26C117.634 29.26 116.722 29.0067 115.886 28.5C115.05 27.9933 114.379 27.322 113.872 26.486C113.366 25.65 113.112 24.738 113.112 23.75V12.73C113.112 11.742 113.366 10.83 113.872 9.99399C114.379 9.15799 115.05 8.48666 115.886 7.97999C116.722 7.47333 117.634 7.21999 118.622 7.21999H129.946C130.96 7.21999 131.884 7.47333 132.72 7.97999C133.556 8.48666 134.215 9.15799 134.696 9.99399C135.203 10.83 135.456 11.742 135.456 12.73V23.75C135.456 24.738 135.203 25.65 134.696 26.486C134.215 27.322 133.556 27.9933 132.72 28.5C131.884 29.0067 130.96 29.26 129.946 29.26H118.622ZM118.926 23.446H129.642V13.034H118.926V23.446ZM143.97 29.26C142.956 29.26 142.032 29.0067 141.196 28.5C140.36 27.9933 139.688 27.322 139.182 26.486C138.7 25.65 138.46 24.738 138.46 23.75V7.21999H144.274V23.446H154.99V7.21999H160.804V23.75C160.804 24.738 160.55 25.65 160.044 26.486C159.562 27.322 158.904 27.9933 158.068 28.5C157.232 29.0067 156.307 29.26 155.294 29.26H143.97ZM164.844 29.26V12.73C164.844 11.742 165.097 10.83 165.604 9.99399C166.11 9.15799 166.782 8.48666 167.618 7.97999C168.454 7.47333 169.378 7.21999 170.392 7.21999H182.552V13.034H170.658V29.26H164.844Z" fill="#4C5DD7"/>
<path d="M197.282 29.26V1.89999H203.172V12.616H219.322V1.89999H225.212V29.26H219.322V18.544H203.172V29.26H197.282ZM234.924 29.26C233.911 29.26 232.986 29.0067 232.15 28.5C231.314 27.9933 230.643 27.322 230.136 26.486C229.655 25.65 229.414 24.738 229.414 23.75V15.314H245.944V13.034H229.414V7.21999H246.248C247.261 7.21999 248.186 7.47333 249.022 7.97999C249.858 8.48666 250.517 9.15799 250.998 9.99399C251.505 10.83 251.758 11.742 251.758 12.73V29.26H234.924ZM235.228 23.446H245.944V20.406H235.228V23.446ZM259.935 29.26C258.947 29.26 258.035 29.0067 257.199 28.5C256.363 27.9933 255.691 27.322 255.185 26.486C254.678 25.65 254.425 24.738 254.425 23.75V12.73C254.425 11.742 254.678 10.83 255.185 9.99399C255.691 9.15799 256.363 8.48666 257.199 7.97999C258.035 7.47333 258.947 7.21999 259.935 7.21999H276.731V13.034H260.239V23.446H276.769V29.26H259.935ZM279.885 29.26V-7.03335e-06H285.699V15.314H288.663L296.149 7.21999H302.001V9.19599L293.793 18.24L302.001 27.284V29.26H296.149L288.663 21.166H285.699V29.26H279.885ZM309.885 29.26C308.872 29.26 307.947 29.0067 307.111 28.5C306.275 27.9933 305.604 27.322 305.097 26.486C304.616 25.65 304.375 24.738 304.375 23.75V15.314H320.905V13.034H304.375V7.21999H321.209C322.222 7.21999 323.147 7.47333 323.983 7.97999C324.819 8.48666 325.478 9.15799 325.959 9.99399C326.466 10.83 326.719 11.742 326.719 12.73V29.26H309.885ZM310.189 23.446H320.905V20.406H310.189V23.446ZM336.346 29.26C335.332 29.26 334.408 29.0067 333.572 28.5C332.736 27.9933 332.064 27.322 331.558 26.486C331.051 25.65 330.798 24.738 330.798 23.75V0.683993H336.612V7.21999H344.782V13.034H336.612V23.446H344.782V29.26H336.346ZM348.722 29.26V-7.03335e-06H354.536V7.21999H365.556C366.544 7.21999 367.456 7.47333 368.292 7.97999C369.128 8.48666 369.8 9.15799 370.306 9.99399C370.813 10.83 371.066 11.742 371.066 12.73V29.26H365.252V13.034H354.536V29.26H348.722ZM379.501 29.26C378.513 29.26 377.601 29.0067 376.765 28.5C375.929 27.9933 375.258 27.322 374.751 26.486C374.245 25.65 373.991 24.738 373.991 23.75V12.73C373.991 11.742 374.245 10.83 374.751 9.99399C375.258 9.15799 375.929 8.48666 376.765 7.97999C377.601 7.47333 378.513 7.21999 379.501 7.21999H390.825C391.839 7.21999 392.763 7.47333 393.599 7.97999C394.435 8.48666 395.094 9.15799 395.575 9.99399C396.082 10.83 396.335 11.742 396.335 12.73V23.75C396.335 24.738 396.082 25.65 395.575 26.486C395.094 27.322 394.435 27.9933 393.599 28.5C392.763 29.0067 391.839 29.26 390.825 29.26H379.501ZM379.805 23.446H390.521V13.034H379.805V23.446ZM399.34 29.26V7.21999H416.174C417.187 7.21999 418.112 7.47333 418.948 7.97999C419.784 8.48666 420.442 9.15799 420.924 9.99399C421.43 10.83 421.684 11.742 421.684 12.73V29.26H415.87V13.034H405.154V29.26H399.34Z" fill="#C231C9"/>
</svg>
