<svg width="183" height="19" viewBox="0 0 183 19" fill="none" xmlns="http://www.w3.org/2000/svg">
<path d="M1.04012 5.27794H0.000117197L1.04012 0.59794H6.29212C6.82945 0.59794 7.30612 0.615274 7.72212 0.649941C8.13812 0.684607 8.51078 0.736607 8.84012 0.80594C9.16945 0.857941 9.45545 0.944607 9.69812 1.06594C9.95812 1.16994 10.2008 1.29994 10.4261 1.45594C10.8941 1.81994 11.2581 2.31394 11.5181 2.93794C11.7781 3.54461 11.9081 4.23794 11.9081 5.01794C11.9081 5.90194 11.7695 6.63861 11.4921 7.22794C11.2321 7.79994 10.7728 8.31994 10.1141 8.78794C10.9461 9.08261 11.5441 9.57661 11.9081 10.2699C12.2721 10.9633 12.4541 11.8906 12.4541 13.0519C12.4541 14.8026 11.9515 16.1199 10.9461 17.0039C10.7381 17.1946 10.5215 17.3506 10.2961 17.4719C10.0708 17.5933 9.79345 17.6886 9.46412 17.7579C9.13478 17.8273 8.73612 17.8793 8.26812 17.9139C7.81745 17.9313 7.25412 17.9399 6.57812 17.9399H1.04012V5.27794ZM5.72012 7.61794C6.37878 7.61794 6.81212 7.52261 7.02012 7.33194C7.22812 7.14127 7.33212 6.75994 7.33212 6.18794C7.33212 5.71994 7.22812 5.38194 7.02012 5.17394C6.81212 4.96594 6.47412 4.86194 6.00612 4.86194H5.72012V7.61794ZM5.72012 13.6239C5.80678 13.6413 5.88478 13.6499 5.95412 13.6499C6.04078 13.6499 6.10145 13.6499 6.13612 13.6499C6.63878 13.6499 6.99412 13.5286 7.20212 13.2859C7.41012 13.0433 7.51412 12.6359 7.51412 12.0639C7.51412 11.4919 7.38412 11.1019 7.12412 10.8939C6.86412 10.6686 6.39612 10.5559 5.72012 10.5559V13.6239ZM14.3206 5.27794H13.2806L14.3206 0.59794H19.0006V17.9399H14.3206V5.27794ZM21.4034 5.27794H20.3634L21.4034 0.59794H25.0694C25.7974 0.59794 26.4214 0.62394 26.9414 0.675941C27.4787 0.727941 27.9554 0.814607 28.3714 0.93594C28.7874 1.03994 29.1687 1.19594 29.5154 1.40394C29.8621 1.61194 30.2087 1.87194 30.5554 2.18394C32.3754 3.79594 33.2854 6.13594 33.2854 9.20394C33.2854 10.8333 33.0254 12.2806 32.5054 13.5459C32.0027 14.8113 31.2574 15.8339 30.2694 16.6139C29.9574 16.8739 29.6281 17.0906 29.2814 17.2639C28.9521 17.4373 28.5794 17.5759 28.1634 17.6799C27.7474 17.7666 27.2707 17.8359 26.7334 17.8879C26.1961 17.9226 25.5634 17.9399 24.8354 17.9399H21.4034V5.27794ZM26.0834 13.2599C26.8114 13.2253 27.3661 12.8613 27.7474 12.1679C28.1461 11.4746 28.3454 10.5039 28.3454 9.25594C28.3454 7.95594 28.1721 7.00261 27.8254 6.39594C27.4961 5.78927 26.9154 5.41661 26.0834 5.27794V13.2599ZM37.4574 12.8699C38.1854 12.8699 38.7574 13.1126 39.1734 13.5979C39.5894 14.0833 39.7974 14.7419 39.7974 15.5739C39.7974 16.4059 39.572 17.0646 39.1214 17.5499C38.688 18.0353 38.1074 18.2779 37.3794 18.2779C36.6514 18.2779 36.0707 18.0353 35.6374 17.5499C35.204 17.0646 34.9874 16.4233 34.9874 15.6259C34.9874 14.7939 35.2127 14.1266 35.6634 13.6239C36.114 13.1213 36.712 12.8699 37.4574 12.8699ZM42.1729 5.27794H41.1329L42.1729 0.59794H47.4249C47.9623 0.59794 48.4389 0.615274 48.8549 0.649941C49.2709 0.684607 49.6436 0.736607 49.9729 0.80594C50.3023 0.857941 50.5883 0.944607 50.8309 1.06594C51.0909 1.16994 51.3336 1.29994 51.5589 1.45594C52.0269 1.81994 52.3909 2.31394 52.6509 2.93794C52.9109 3.54461 53.0409 4.23794 53.0409 5.01794C53.0409 5.90194 52.9023 6.63861 52.6249 7.22794C52.3649 7.79994 51.9056 8.31994 51.2469 8.78794C52.0789 9.08261 52.6769 9.57661 53.0409 10.2699C53.4049 10.9633 53.5869 11.8906 53.5869 13.0519C53.5869 14.8026 53.0843 16.1199 52.0789 17.0039C51.8709 17.1946 51.6543 17.3506 51.4289 17.4719C51.2036 17.5933 50.9263 17.6886 50.5969 17.7579C50.2676 17.8273 49.8689 17.8793 49.4009 17.9139C48.9503 17.9313 48.3869 17.9399 47.7109 17.9399H42.1729V5.27794ZM46.8529 7.61794C47.5116 7.61794 47.9449 7.52261 48.1529 7.33194C48.3609 7.14127 48.4649 6.75994 48.4649 6.18794C48.4649 5.71994 48.3609 5.38194 48.1529 5.17394C47.9449 4.96594 47.6069 4.86194 47.1389 4.86194H46.8529V7.61794ZM46.8529 13.6239C46.9396 13.6413 47.0176 13.6499 47.0869 13.6499C47.1736 13.6499 47.2343 13.6499 47.2689 13.6499C47.7716 13.6499 48.1269 13.5286 48.3349 13.2859C48.5429 13.0433 48.6469 12.6359 48.6469 12.0639C48.6469 11.4919 48.5169 11.1019 48.2569 10.8939C47.9969 10.6686 47.5289 10.5559 46.8529 10.5559V13.6239ZM55.3234 5.27794H54.2834L55.3234 0.59794H60.0034V9.90594C60.0034 10.7553 60.0121 11.4053 60.0294 11.8559C60.0641 12.2893 60.1161 12.6013 60.1854 12.7919C60.3761 13.3293 60.7228 13.5979 61.2254 13.5979C61.4681 13.5979 61.6761 13.5199 61.8494 13.3639C62.0401 13.2079 62.1701 12.9999 62.2394 12.7399C62.2914 12.5666 62.3261 12.2806 62.3434 11.8819C62.3608 11.4833 62.3694 10.8246 62.3694 9.90594V0.59794H67.0494V10.5819C67.0494 11.1713 67.0408 11.6739 67.0234 12.0899C67.0234 12.5059 67.0061 12.8699 66.9714 13.1819C66.9541 13.4766 66.9194 13.7366 66.8674 13.9619C66.8328 14.1873 66.7808 14.4039 66.7114 14.6119C66.3474 15.7733 65.6888 16.6659 64.7354 17.2899C63.7821 17.8966 62.5774 18.1999 61.1214 18.1999C60.0294 18.1999 59.0501 17.9919 58.1834 17.5759C57.3341 17.1426 56.6581 16.5359 56.1554 15.7559C55.9994 15.4959 55.8694 15.2273 55.7654 14.9499C55.6614 14.6553 55.5748 14.3173 55.5054 13.9359C55.4361 13.5373 55.3841 13.0779 55.3494 12.5579C55.3321 12.0379 55.3234 11.4139 55.3234 10.6859V5.27794ZM69.3929 5.27794H68.3529L69.3929 0.59794H74.0729V17.9399H69.3929V5.27794ZM76.4757 5.27794H75.4357L76.4757 0.59794H81.1557V13.2599H84.6917L83.6777 17.9399H76.4757V5.27794ZM85.9464 5.27794H84.9064L85.9464 0.59794H89.6124C90.3404 0.59794 90.9644 0.62394 91.4844 0.675941C92.0217 0.727941 92.4984 0.814607 92.9144 0.93594C93.3304 1.03994 93.7117 1.19594 94.0584 1.40394C94.405 1.61194 94.7517 1.87194 95.0984 2.18394C96.9184 3.79594 97.8284 6.13594 97.8284 9.20394C97.8284 10.8333 97.5684 12.2806 97.0484 13.5459C96.5457 14.8113 95.8004 15.8339 94.8124 16.6139C94.5004 16.8739 94.171 17.0906 93.8244 17.2639C93.495 17.4373 93.1224 17.5759 92.7064 17.6799C92.2904 17.7666 91.8137 17.8359 91.2764 17.8879C90.739 17.9226 90.1064 17.9399 89.3784 17.9399H85.9464V5.27794ZM90.6264 13.2599C91.3544 13.2253 91.909 12.8613 92.2904 12.1679C92.689 11.4746 92.8884 10.5039 92.8884 9.25594C92.8884 7.95594 92.715 7.00261 92.3684 6.39594C92.039 5.78927 91.4584 5.41661 90.6264 5.27794V13.2599ZM102 12.8699C102.728 12.8699 103.3 13.1126 103.716 13.5979C104.132 14.0833 104.34 14.7419 104.34 15.5739C104.34 16.4059 104.115 17.0646 103.664 17.5499C103.231 18.0353 102.65 18.2779 101.922 18.2779C101.194 18.2779 100.614 18.0353 100.18 17.5499C99.747 17.0646 99.5304 16.4233 99.5304 15.6259C99.5304 14.7939 99.7557 14.1266 100.206 13.6239C100.657 13.1213 101.255 12.8699 102 12.8699ZM106.716 5.27794H105.676L106.716 0.59794H110.382C111.11 0.59794 111.734 0.62394 112.254 0.675941C112.791 0.727941 113.268 0.814607 113.684 0.93594C114.1 1.03994 114.481 1.19594 114.828 1.40394C115.175 1.61194 115.521 1.87194 115.868 2.18394C117.688 3.79594 118.598 6.13594 118.598 9.20394C118.598 10.8333 118.338 12.2806 117.818 13.5459C117.315 14.8113 116.57 15.8339 115.582 16.6139C115.27 16.8739 114.941 17.0906 114.594 17.2639C114.265 17.4373 113.892 17.5759 113.476 17.6799C113.06 17.7666 112.583 17.8359 112.046 17.8879C111.509 17.9226 110.876 17.9399 110.148 17.9399H106.716V5.27794ZM111.396 13.2599C112.124 13.2253 112.679 12.8613 113.06 12.1679C113.459 11.4746 113.658 10.5039 113.658 9.25594C113.658 7.95594 113.485 7.00261 113.138 6.39594C112.809 5.78927 112.228 5.41661 111.396 5.27794V13.2599ZM120.3 5.27794H119.26L120.3 0.59794H126.228V-6.00815e-05H130.362L129.192 5.27794H124.98V7.35794H129.998L129.192 11.1799H124.98V13.2599H129.998L128.958 17.9399H120.3V5.27794ZM132.107 5.27794H131.067L132.107 0.59794H138.009L138.139 -6.00815e-05H142.195L141.025 5.27794H136.787V7.53994H141.337L140.349 11.8819H136.787V17.9399H132.107V5.27794ZM143.583 5.27794H142.543L143.583 0.59794H149.511V-6.00815e-05H153.645L152.475 5.27794H148.263V7.35794H153.281L152.475 11.1799H148.263V13.2599H153.281L152.241 17.9399H143.583V5.27794ZM155.39 5.27794H154.35L155.39 0.59794H160.07L163.294 7.17594V0.59794H167.974V17.9399H163.866L160.07 10.5039V17.9399H155.39V5.27794ZM170.345 5.27794H169.305L170.345 0.59794H174.011C174.739 0.59794 175.363 0.62394 175.883 0.675941C176.42 0.727941 176.897 0.814607 177.313 0.93594C177.729 1.03994 178.11 1.19594 178.457 1.40394C178.803 1.61194 179.15 1.87194 179.497 2.18394C181.317 3.79594 182.227 6.13594 182.227 9.20394C182.227 10.8333 181.967 12.2806 181.447 13.5459C180.944 14.8113 180.199 15.8339 179.211 16.6139C178.899 16.8739 178.569 17.0906 178.223 17.2639C177.893 17.4373 177.521 17.5759 177.105 17.6799C176.689 17.7666 176.212 17.8359 175.675 17.8879C175.137 17.9226 174.505 17.9399 173.777 17.9399H170.345V5.27794ZM175.025 13.2599C175.753 13.2253 176.307 12.8613 176.689 12.1679C177.087 11.4746 177.287 10.5039 177.287 9.25594C177.287 7.95594 177.113 7.00261 176.767 6.39594C176.437 5.78927 175.857 5.41661 175.025 5.27794V13.2599Z" fill="white"/>
</svg>
