<svg width="256" height="19" viewBox="0 0 256 19" fill="none" xmlns="http://www.w3.org/2000/svg">
<path d="M1.04012 5.38194H0.000117197L1.04012 0.701944H6.29212C6.82945 0.701944 7.30612 0.719278 7.72212 0.753945C8.13812 0.788611 8.51078 0.840611 8.84012 0.909944C9.16945 0.961945 9.45545 1.04861 9.69812 1.16994C9.95812 1.27394 10.2008 1.40395 10.4261 1.55995C10.8941 1.92394 11.2581 2.41794 11.5181 3.04194C11.7781 3.64861 11.9081 4.34194 11.9081 5.12195C11.9081 6.00595 11.7695 6.74261 11.4921 7.33194C11.2321 7.90394 10.7728 8.42394 10.1141 8.89194C10.9461 9.18661 11.5441 9.68061 11.9081 10.3739C12.2721 11.0673 12.4541 11.9946 12.4541 13.1559C12.4541 14.9066 11.9515 16.2239 10.9461 17.1079C10.7381 17.2986 10.5215 17.4546 10.2961 17.5759C10.0708 17.6973 9.79345 17.7926 9.46412 17.8619C9.13478 17.9313 8.73612 17.9833 8.26812 18.0179C7.81745 18.0353 7.25412 18.0439 6.57812 18.0439H1.04012V5.38194ZM5.72012 7.72194C6.37878 7.72194 6.81212 7.62661 7.02012 7.43594C7.22812 7.24528 7.33212 6.86394 7.33212 6.29194C7.33212 5.82394 7.22812 5.48594 7.02012 5.27794C6.81212 5.06994 6.47412 4.96594 6.00612 4.96594H5.72012V7.72194ZM5.72012 13.7279C5.80678 13.7453 5.88478 13.7539 5.95412 13.7539C6.04078 13.7539 6.10145 13.7539 6.13612 13.7539C6.63878 13.7539 6.99412 13.6326 7.20212 13.3899C7.41012 13.1473 7.51412 12.7399 7.51412 12.1679C7.51412 11.5959 7.38412 11.2059 7.12412 10.9979C6.86412 10.7726 6.39612 10.6599 5.72012 10.6599V13.7279ZM14.1906 5.38194H13.1506L14.1906 0.701944H18.8706V10.0099C18.8706 10.8593 18.8793 11.5093 18.8966 11.9599C18.9313 12.3933 18.9833 12.7053 19.0526 12.8959C19.2433 13.4333 19.59 13.7019 20.0926 13.7019C20.3353 13.7019 20.5433 13.6239 20.7166 13.4679C20.9073 13.3119 21.0373 13.1039 21.1066 12.8439C21.1586 12.6706 21.1933 12.3846 21.2106 11.9859C21.228 11.5873 21.2366 10.9286 21.2366 10.0099V0.701944H25.9166V10.6859C25.9166 11.2753 25.908 11.7779 25.8906 12.1939C25.8906 12.6099 25.8733 12.9739 25.8386 13.2859C25.8213 13.5806 25.7866 13.8406 25.7346 14.0659C25.7 14.2913 25.648 14.5079 25.5786 14.7159C25.2146 15.8773 24.556 16.7699 23.6026 17.3939C22.6493 18.0006 21.4446 18.3039 19.9886 18.3039C18.8966 18.3039 17.9173 18.0959 17.0506 17.6799C16.2013 17.2466 15.5253 16.6399 15.0226 15.8599C14.8666 15.5999 14.7366 15.3313 14.6326 15.0539C14.5286 14.7593 14.442 14.4213 14.3726 14.0399C14.3033 13.6413 14.2513 13.1819 14.2166 12.6619C14.1993 12.1419 14.1906 11.5179 14.1906 10.7899V5.38194ZM28.2601 5.38194H27.2201L28.2601 0.701944H32.9401V18.0439H28.2601V5.38194ZM35.3429 5.38194H34.3029L35.3429 0.701944H40.0229V13.3639H43.5589L42.5449 18.0439H35.3429V5.38194ZM44.8136 5.38194H43.7736L44.8136 0.701944H48.4796C49.2076 0.701944 49.8316 0.727944 50.3516 0.779944C50.8889 0.831945 51.3656 0.918611 51.7816 1.03994C52.1976 1.14394 52.5789 1.29994 52.9256 1.50794C53.2722 1.71594 53.6189 1.97595 53.9656 2.28795C55.7856 3.89995 56.6956 6.23994 56.6956 9.30794C56.6956 10.9373 56.4356 12.3846 55.9156 13.6499C55.4129 14.9153 54.6676 15.9379 53.6796 16.7179C53.3676 16.9779 53.0382 17.1946 52.6916 17.3679C52.3622 17.5413 51.9896 17.6799 51.5736 17.7839C51.1576 17.8706 50.6809 17.9399 50.1436 17.9919C49.6062 18.0266 48.9736 18.0439 48.2456 18.0439H44.8136V5.38194ZM49.4936 13.3639C50.2216 13.3293 50.7762 12.9653 51.1576 12.2719C51.5562 11.5786 51.7556 10.6079 51.7556 9.35994C51.7556 8.05994 51.5822 7.10661 51.2356 6.49994C50.9062 5.89328 50.3256 5.52061 49.4936 5.38194V13.3639ZM67.5705 5.38194H65.1265L66.1665 0.701944H71.5225L71.6785 0.103944H75.7345L74.5645 5.38194H72.2505V18.0439H67.5705V5.38194ZM76.5011 5.38194H75.4611L76.5011 0.701944H81.1811V6.94194H84.0671V0.701944H88.7471V18.0439H84.0671V11.5439H81.1811V18.0439H76.5011V5.38194ZM91.1514 5.38194H90.1114L91.1514 0.701944H97.0794V0.103944H101.213L100.043 5.38194H95.8314V7.46195H100.849L100.043 11.2839H95.8314V13.3639H100.849L99.8094 18.0439H91.1514V5.38194ZM111.403 12.2719C112.044 12.7226 112.72 13.0779 113.431 13.3379C114.142 13.5806 114.8 13.7019 115.407 13.7019C115.754 13.7019 116.04 13.6153 116.265 13.4419C116.49 13.2686 116.603 13.0346 116.603 12.7399C116.603 12.5839 116.577 12.4453 116.525 12.3239C116.473 12.1853 116.369 12.0466 116.213 11.9079C116.057 11.7693 115.84 11.6219 115.563 11.4659C115.303 11.3099 114.956 11.1279 114.523 10.9199C113.708 10.5386 113.076 10.2093 112.625 9.93195C112.192 9.65461 111.81 9.35995 111.481 9.04794C111.03 8.64928 110.684 8.14661 110.441 7.53994C110.216 6.93328 110.103 6.28328 110.103 5.58994C110.103 4.84461 110.224 4.15994 110.467 3.53594C110.71 2.91194 111.048 2.37461 111.481 1.92395C111.932 1.45595 112.452 1.09194 113.041 0.831944C113.63 0.571944 114.28 0.441944 114.991 0.441944C115.355 0.441944 115.693 0.467944 116.005 0.519945C116.334 0.554611 116.759 0.632611 117.279 0.753945L117.461 -5.48363e-05L121.205 0.909944L120.035 5.66795C119.55 5.26928 119.012 4.96594 118.423 4.75794C117.834 4.53261 117.262 4.41994 116.707 4.41994C116.274 4.41994 115.918 4.50661 115.641 4.67995C115.381 4.83595 115.251 5.05261 115.251 5.32994C115.251 5.46861 115.277 5.59861 115.329 5.71994C115.398 5.84128 115.52 5.97128 115.693 6.10994C115.866 6.24861 116.1 6.40461 116.395 6.57794C116.69 6.75128 117.062 6.95061 117.513 7.17594C117.946 7.40128 118.31 7.60061 118.605 7.77395C118.917 7.92995 119.177 8.08595 119.385 8.24195C119.61 8.38061 119.801 8.51928 119.957 8.65794C120.113 8.79661 120.26 8.95261 120.399 9.12594C121.162 10.0446 121.543 11.1799 121.543 12.5319C121.543 13.3813 121.396 14.1613 121.101 14.8719C120.824 15.5826 120.434 16.1893 119.931 16.6919C119.428 17.1946 118.822 17.5933 118.111 17.8879C117.418 18.1653 116.646 18.3039 115.797 18.3039C114.861 18.3039 113.951 18.1739 113.067 17.9139C112.183 17.6539 111.264 17.2466 110.311 16.6919L111.403 12.2719ZM123.144 5.38194H122.104L123.144 0.701944H127.824L130.294 4.73194L132.764 0.701944H137.444V18.0439H132.764V8.31994L130.294 12.2979L127.824 8.31994V18.0439H123.144V5.38194ZM141.646 5.38194H140.606L141.646 0.701944H149.134L153.242 18.0439H148.068L147.47 15.0539H144.194L143.57 18.0439H138.552L141.646 5.38194ZM146.976 11.1799L145.884 6.34394L144.766 11.1799H146.976ZM154.349 5.38194H153.309L154.349 0.701944H159.471C160.199 0.701944 160.831 0.736611 161.369 0.805944C161.906 0.857944 162.383 0.953278 162.799 1.09195C163.215 1.23061 163.579 1.41261 163.891 1.63794C164.22 1.86328 164.532 2.14061 164.827 2.46994C165.797 3.59661 166.283 5.12194 166.283 7.04595C166.283 9.76728 165.433 11.5699 163.735 12.4539L166.257 18.0439H160.901L159.289 13.0519H159.029V18.0439H154.349V5.38194ZM159.029 5.22594V9.28194C159.098 9.29928 159.167 9.30794 159.237 9.30794C159.306 9.30794 159.358 9.30794 159.393 9.30794C160.017 9.30794 160.493 9.12594 160.823 8.76194C161.169 8.39794 161.343 7.88661 161.343 7.22795C161.343 5.89328 160.684 5.22594 159.367 5.22594H159.029ZM169.615 5.38194H167.171L168.211 0.701944H173.567L173.723 0.103944H177.779L176.609 5.38194H174.295V18.0439H169.615V5.38194ZM186.341 5.38194H185.301L186.341 0.701944H191.593C192.13 0.701944 192.607 0.719278 193.023 0.753945C193.439 0.788611 193.812 0.840611 194.141 0.909944C194.47 0.961945 194.756 1.04861 194.999 1.16994C195.259 1.27394 195.502 1.40395 195.727 1.55995C196.195 1.92394 196.559 2.41794 196.819 3.04194C197.079 3.64861 197.209 4.34194 197.209 5.12195C197.209 6.00595 197.07 6.74261 196.793 7.33194C196.533 7.90394 196.074 8.42394 195.415 8.89194C196.247 9.18661 196.845 9.68061 197.209 10.3739C197.573 11.0673 197.755 11.9946 197.755 13.1559C197.755 14.9066 197.252 16.2239 196.247 17.1079C196.039 17.2986 195.822 17.4546 195.597 17.5759C195.372 17.6973 195.094 17.7926 194.765 17.8619C194.436 17.9313 194.037 17.9833 193.569 18.0179C193.118 18.0353 192.555 18.0439 191.879 18.0439H186.341V5.38194ZM191.021 7.72194C191.68 7.72194 192.113 7.62661 192.321 7.43594C192.529 7.24528 192.633 6.86394 192.633 6.29194C192.633 5.82394 192.529 5.48594 192.321 5.27794C192.113 5.06994 191.775 4.96594 191.307 4.96594H191.021V7.72194ZM191.021 13.7279C191.108 13.7453 191.186 13.7539 191.255 13.7539C191.342 13.7539 191.402 13.7539 191.437 13.7539C191.94 13.7539 192.295 13.6326 192.503 13.3899C192.711 13.1473 192.815 12.7399 192.815 12.1679C192.815 11.5959 192.685 11.2059 192.425 10.9979C192.165 10.7726 191.697 10.6599 191.021 10.6599V13.7279ZM206.097 0.441944C207.345 0.441944 208.506 0.779944 209.581 1.45595C210.655 2.11461 211.522 3.04194 212.181 4.23794C212.562 4.89661 212.848 5.66794 213.039 6.55194C213.247 7.43594 213.351 8.37194 213.351 9.35994C213.351 11.9773 212.701 14.0833 211.401 15.6779C210.707 16.5273 209.901 17.1773 208.983 17.6279C208.081 18.0786 207.111 18.3039 206.071 18.3039C204.476 18.3039 203.063 17.7666 201.833 16.6919C199.857 15.0279 198.869 12.5406 198.869 9.22994C198.869 6.71661 199.519 4.66261 200.819 3.06794C201.512 2.23594 202.318 1.59461 203.237 1.14394C204.155 0.675944 205.109 0.441944 206.097 0.441944ZM206.097 5.19994C205.369 5.19994 204.805 5.57261 204.407 6.31794C204.008 7.06328 203.809 8.08594 203.809 9.38595C203.809 10.7553 204.008 11.8213 204.407 12.5839C204.823 13.3293 205.395 13.7019 206.123 13.7019C206.851 13.7019 207.414 13.3293 207.813 12.5839C208.211 11.8213 208.411 10.7813 208.411 9.46394C208.411 8.11194 208.203 7.06328 207.787 6.31794C207.388 5.57261 206.825 5.19994 206.097 5.19994ZM216.6 5.38194H215.56L216.6 0.701944H224.088L228.196 18.0439H223.022L222.424 15.0539H219.148L218.524 18.0439H213.506L216.6 5.38194ZM221.93 11.1799L220.838 6.34394L219.72 11.1799H221.93ZM229.302 5.38194H228.262L229.302 0.701944H234.424C235.152 0.701944 235.785 0.736611 236.322 0.805944C236.859 0.857944 237.336 0.953278 237.752 1.09195C238.168 1.23061 238.532 1.41261 238.844 1.63794C239.173 1.86328 239.485 2.14061 239.78 2.46994C240.751 3.59661 241.236 5.12194 241.236 7.04595C241.236 9.76728 240.387 11.5699 238.688 12.4539L241.21 18.0439H235.854L234.242 13.0519H233.982V18.0439H229.302V5.38194ZM233.982 5.22594V9.28194C234.051 9.29928 234.121 9.30794 234.19 9.30794C234.259 9.30794 234.311 9.30794 234.346 9.30794C234.97 9.30794 235.447 9.12594 235.776 8.76194C236.123 8.39794 236.296 7.88661 236.296 7.22795C236.296 5.89328 235.637 5.22594 234.32 5.22594H233.982ZM243.191 5.38194H242.151L243.191 0.701944H246.857C247.585 0.701944 248.209 0.727944 248.729 0.779944C249.266 0.831945 249.743 0.918611 250.159 1.03994C250.575 1.14394 250.956 1.29994 251.303 1.50794C251.649 1.71594 251.996 1.97595 252.343 2.28795C254.163 3.89995 255.073 6.23994 255.073 9.30794C255.073 10.9373 254.813 12.3846 254.293 13.6499C253.79 14.9153 253.045 15.9379 252.057 16.7179C251.745 16.9779 251.415 17.1946 251.069 17.3679C250.739 17.5413 250.367 17.6799 249.951 17.7839C249.535 17.8706 249.058 17.9399 248.521 17.9919C247.983 18.0266 247.351 18.0439 246.623 18.0439H243.191V5.38194ZM247.871 13.3639C248.599 13.3293 249.153 12.9653 249.535 12.2719C249.933 11.5786 250.133 10.6079 250.133 9.35994C250.133 8.05994 249.959 7.10661 249.613 6.49994C249.283 5.89328 248.703 5.52061 247.871 5.38194V13.3639Z" fill="white"/>
</svg>
