<svg width="204" height="19" viewBox="0 0 204 19" fill="none" xmlns="http://www.w3.org/2000/svg">
<path d="M1.04012 5.278H0.000117197L1.04012 0.598001H6.29212C6.82945 0.598001 7.30612 0.615335 7.72212 0.650002C8.13812 0.684668 8.51078 0.736668 8.84012 0.806001C9.16945 0.858002 9.45545 0.944668 9.69812 1.066C9.95812 1.17 10.2008 1.3 10.4261 1.456C10.8941 1.82 11.2581 2.314 11.5181 2.938C11.7781 3.54467 11.9081 4.238 11.9081 5.018C11.9081 5.902 11.7695 6.63867 11.4921 7.228C11.2321 7.8 10.7728 8.32 10.1141 8.788C10.9461 9.08267 11.5441 9.57667 11.9081 10.27C12.2721 10.9633 12.4541 11.8907 12.4541 13.052C12.4541 14.8027 11.9515 16.12 10.9461 17.004C10.7381 17.1947 10.5215 17.3507 10.2961 17.472C10.0708 17.5933 9.79345 17.6887 9.46412 17.758C9.13478 17.8273 8.73612 17.8793 8.26812 17.914C7.81745 17.9313 7.25412 17.94 6.57812 17.94H1.04012V5.278ZM5.72012 7.618C6.37878 7.618 6.81212 7.52267 7.02012 7.332C7.22812 7.14134 7.33212 6.76 7.33212 6.188C7.33212 5.72 7.22812 5.382 7.02012 5.174C6.81212 4.966 6.47412 4.862 6.00612 4.862H5.72012V7.618ZM5.72012 13.624C5.80678 13.6413 5.88478 13.65 5.95412 13.65C6.04078 13.65 6.10145 13.65 6.13612 13.65C6.63878 13.65 6.99412 13.5287 7.20212 13.286C7.41012 13.0433 7.51412 12.636 7.51412 12.064C7.51412 11.492 7.38412 11.102 7.12412 10.894C6.86412 10.6687 6.39612 10.556 5.72012 10.556V13.624ZM14.1906 5.278H13.1506L14.1906 0.598001H18.8706V9.906C18.8706 10.7553 18.8793 11.4053 18.8966 11.856C18.9313 12.2893 18.9833 12.6013 19.0526 12.792C19.2433 13.3293 19.59 13.598 20.0926 13.598C20.3353 13.598 20.5433 13.52 20.7166 13.364C20.9073 13.208 21.0373 13 21.1066 12.74C21.1586 12.5667 21.1933 12.2807 21.2106 11.882C21.228 11.4833 21.2366 10.8247 21.2366 9.906V0.598001H25.9166V10.582C25.9166 11.1713 25.908 11.674 25.8906 12.09C25.8906 12.506 25.8733 12.87 25.8386 13.182C25.8213 13.4767 25.7866 13.7367 25.7346 13.962C25.7 14.1873 25.648 14.404 25.5786 14.612C25.2146 15.7733 24.556 16.666 23.6026 17.29C22.6493 17.8967 21.4446 18.2 19.9886 18.2C18.8966 18.2 17.9173 17.992 17.0506 17.576C16.2013 17.1427 15.5253 16.536 15.0226 15.756C14.8666 15.496 14.7366 15.2273 14.6326 14.95C14.5286 14.6553 14.442 14.3173 14.3726 13.936C14.3033 13.5373 14.2513 13.078 14.2166 12.558C14.1993 12.038 14.1906 11.414 14.1906 10.686V5.278ZM28.2601 5.278H27.2201L28.2601 0.598001H32.9401V17.94H28.2601V5.278ZM35.3429 5.278H34.3029L35.3429 0.598001H40.0229V13.26H43.5589L42.5449 17.94H35.3429V5.278ZM44.8136 5.278H43.7736L44.8136 0.598001H48.4796C49.2076 0.598001 49.8316 0.624001 50.3516 0.676002C50.8889 0.728002 51.3656 0.814668 51.7816 0.936001C52.1976 1.04 52.5789 1.196 52.9256 1.404C53.2722 1.612 53.6189 1.872 53.9656 2.184C55.7856 3.796 56.6956 6.136 56.6956 9.204C56.6956 10.8333 56.4356 12.2807 55.9156 13.546C55.4129 14.8113 54.6676 15.834 53.6796 16.614C53.3676 16.874 53.0382 17.0907 52.6916 17.264C52.3622 17.4373 51.9896 17.576 51.5736 17.68C51.1576 17.7667 50.6809 17.836 50.1436 17.888C49.6062 17.9227 48.9736 17.94 48.2456 17.94H44.8136V5.278ZM49.4936 13.26C50.2216 13.2253 50.7762 12.8613 51.1576 12.168C51.5562 11.4747 51.7556 10.504 51.7556 9.256C51.7556 7.956 51.5822 7.00267 51.2356 6.396C50.9062 5.78933 50.3256 5.41667 49.4936 5.278V13.26ZM60.8675 12.87C61.5955 12.87 62.1675 13.1127 62.5835 13.598C62.9995 14.0833 63.2075 14.742 63.2075 15.574C63.2075 16.406 62.9822 17.0647 62.5315 17.55C62.0982 18.0353 61.5175 18.278 60.7895 18.278C60.0615 18.278 59.4809 18.0353 59.0475 17.55C58.6142 17.0647 58.3975 16.4233 58.3975 15.626C58.3975 14.794 58.6229 14.1267 59.0735 13.624C59.5242 13.1213 60.1222 12.87 60.8675 12.87ZM65.5831 5.278H64.5431L65.5831 0.598001H71.4851L71.6151 9.53674e-07H75.6711L74.5011 5.278H70.2631V7.54H74.8131L73.8251 11.882H70.2631V17.94H65.5831V5.278ZM77.0596 5.278H76.0196L77.0596 0.598001H81.7396V13.26H85.2756L84.2616 17.94H77.0596V5.278ZM88.0126 10.14L83.8006 0.598001H88.8706L90.3526 4.914L91.8866 0.598001H96.9566L92.6926 10.14V17.94H88.0126V10.14ZM98.9027 12.87C99.6307 12.87 100.203 13.1127 100.619 13.598C101.035 14.0833 101.243 14.742 101.243 15.574C101.243 16.406 101.017 17.0647 100.567 17.55C100.133 18.0353 99.5527 18.278 98.8247 18.278C98.0967 18.278 97.516 18.0353 97.0827 17.55C96.6494 17.0647 96.4327 16.4233 96.4327 15.626C96.4327 14.794 96.658 14.1267 97.1087 13.624C97.5594 13.1213 98.1574 12.87 98.9027 12.87ZM103.67 5.278H102.63L103.67 0.598001H108.35V17.94H103.67V5.278ZM110.753 5.278H109.713L110.753 0.598001H115.433L118.657 7.176V0.598001H123.337V17.94H119.229L115.433 10.504V17.94H110.753V5.278ZM125.708 5.278H124.668L125.708 0.598001H130.388L133.612 7.176V0.598001H138.292V17.94H134.184L130.388 10.504V17.94H125.708V5.278ZM147.292 0.338001C148.54 0.338001 149.701 0.676002 150.776 1.352C151.851 2.01067 152.717 2.938 153.376 4.134C153.757 4.79267 154.043 5.564 154.234 6.448C154.442 7.332 154.546 8.268 154.546 9.256C154.546 11.8733 153.896 13.9793 152.596 15.574C151.903 16.4233 151.097 17.0733 150.178 17.524C149.277 17.9747 148.306 18.2 147.266 18.2C145.671 18.2 144.259 17.6627 143.028 16.588C141.052 14.924 140.064 12.4367 140.064 9.126C140.064 6.61267 140.714 4.55867 142.014 2.964C142.707 2.132 143.513 1.49067 144.432 1.04C145.351 0.572001 146.304 0.338001 147.292 0.338001ZM147.292 5.096C146.564 5.096 146.001 5.46867 145.602 6.214C145.203 6.95934 145.004 7.982 145.004 9.282C145.004 10.6513 145.203 11.7173 145.602 12.48C146.018 13.2253 146.59 13.598 147.318 13.598C148.046 13.598 148.609 13.2253 149.008 12.48C149.407 11.7173 149.606 10.6773 149.606 9.36C149.606 8.008 149.398 6.95934 148.982 6.214C148.583 5.46867 148.02 5.096 147.292 5.096ZM154.314 0.598001H159.436L161.308 9.282L163.154 0.598001H168.328L163.596 17.94H159.02L154.314 0.598001ZM170.592 5.278H169.552L170.592 0.598001H178.08L182.188 17.94H177.014L176.416 14.95H173.14L172.516 17.94H167.498L170.592 5.278ZM175.922 11.076L174.83 6.24L173.712 11.076H175.922ZM184.088 5.278H181.644L182.684 0.598001H188.04L188.196 9.53674e-07H192.252L191.082 5.278H188.768V17.94H184.088V5.278ZM193.019 5.278H191.979L193.019 0.598001H198.947V9.53674e-07H203.081L201.911 5.278H197.699V7.358H202.717L201.911 11.18H197.699V13.26H202.717L201.677 17.94H193.019V5.278Z" fill="white"/>
</svg>
