<svg width="244" height="43" viewBox="0 0 244 43" fill="none" xmlns="http://www.w3.org/2000/svg">
<path d="M10.7051 0.679688C11.8379 0.377604 13.2161 0.226562 14.8398 0.226562C18.9557 0.226562 21.8633 0.698568 23.5625 1.64258C25.6393 2.85091 27.1309 4.60677 28.0371 6.91016C28.9811 9.21354 29.4531 12.3288 29.4531 16.2559V21.127C29.4531 21.5423 29.4154 21.7878 29.3398 21.8633C29.3021 21.901 29.1322 21.9199 28.8301 21.9199H22.373C21.8444 21.9199 21.5612 21.8633 21.5234 21.75C21.4857 21.6367 21.4668 21.4668 21.4668 21.2402V17.8984C21.4668 15.0664 21.0137 13.1406 20.1074 12.1211C19.2012 11.0638 17.6719 10.5352 15.5195 10.5352C11.2526 10.5352 8.57161 12.14 7.47656 15.3496C7.13672 16.3691 6.9668 18.0495 6.9668 20.3906C6.9668 23.1471 7.23112 25.4694 7.75977 27.3574C8.25065 29.1322 9.10026 30.4349 10.3086 31.2656C11.5169 32.0964 13.1973 32.5117 15.3496 32.5117H15.5762C17.6152 32.474 18.8991 32.1719 19.4277 31.6055C19.9941 31.0013 20.2773 30.0007 20.2773 28.6035C20.2773 27.7728 20.334 27.2819 20.4473 27.1309C20.5605 26.9798 20.9004 26.9043 21.4668 26.9043H29C29.5664 26.9043 29.9251 26.9609 30.0762 27.0742C30.2272 27.1497 30.3027 27.3763 30.3027 27.7539C30.3027 28.2826 30.265 28.849 30.1895 29.4531C30.1517 30.0573 29.9251 30.9635 29.5098 32.1719C29.0944 33.3802 28.5091 34.4753 27.7539 35.457C27.0365 36.4388 25.9225 37.4395 24.4121 38.459C22.9017 39.4785 21.127 40.2526 19.0879 40.7812C17.8418 41.1589 16.5013 41.3477 15.0664 41.3477C13.8581 41.3477 12.6497 41.2155 11.4414 40.9512C10.2708 40.6868 8.9681 40.1204 7.5332 39.252C6.09831 38.3835 4.83333 37.2695 3.73828 35.9102C2.68099 34.5508 1.79362 32.6628 1.07617 30.2461C0.358724 27.7917 0 24.9785 0 21.8066V21.5234C0.0377604 14.6133 0.86849 9.61003 2.49219 6.51367C4.15365 3.41732 6.89128 1.47266 10.7051 0.679688ZM42.084 16.2559C44.5762 16.3691 46.7285 16.4258 48.541 16.4258C50.6934 16.4258 52.2038 16.3691 53.0723 16.2559C53.1478 14.6699 53.1855 12.6686 53.1855 10.252C53.1855 8.62826 53.1478 7.04232 53.0723 5.49414C53.0345 3.94596 53.0156 3.11523 53.0156 3.00195C53.0156 2.47331 53.0911 2.15234 53.2422 2.03906C53.3932 1.88802 53.7331 1.8125 54.2617 1.8125H58.4531C58.793 1.8125 59.0007 1.9069 59.0762 2.0957C59.1517 2.28451 59.1895 2.71875 59.1895 3.39844L59.5293 40.7812C59.5293 41.2344 59.4538 41.5176 59.3027 41.6309C59.1895 41.7441 58.9062 41.8008 58.4531 41.8008H53.752C53.4121 41.8008 53.1855 41.763 53.0723 41.6875C52.9967 41.612 52.959 41.4232 52.959 41.1211C52.959 41.0833 52.9967 40.4792 53.0723 39.3086C53.1478 38.1003 53.1855 36.8353 53.1855 35.5137C53.1855 33.7389 53.11 31.7376 52.959 29.5098C52.959 29.321 52.4115 29.151 51.3164 29C50.2214 28.849 48.9941 28.7734 47.6348 28.7734C43.9342 28.7734 42.084 29.0944 42.084 29.7363C41.9707 31.209 41.9141 32.4362 41.9141 33.418C41.9141 34.2487 41.9329 35.1549 41.9707 36.1367C42.0462 37.0807 42.084 37.6471 42.084 37.8359C42.084 38.4023 41.9896 38.7799 41.8008 38.9688C41.6497 39.1576 41.291 39.252 40.7246 39.252H34.2676C33.5501 39.252 33.0592 39.1764 32.7949 39.0254C32.5306 38.8366 32.3984 38.4401 32.3984 37.8359V37.666C32.8516 29.8496 33.0781 23.4681 33.0781 18.5215C33.0781 16.0293 33.0404 13.2728 32.9648 10.252C32.8893 7.23112 32.8516 5.4375 32.8516 4.87109C32.8516 3.47396 32.9271 2.49219 33.0781 1.92578C33.2292 1.35938 33.5312 1.07617 33.9844 1.07617C35.4193 1.15169 36.4577 1.18945 37.0996 1.18945C38.1191 1.18945 39.2708 1.15169 40.5547 1.07617H41.1777C41.5176 1.07617 41.7441 1.15169 41.8574 1.30273C41.9707 1.45378 42.0273 1.86914 42.0273 2.54883L42.084 16.2559ZM62.8145 0.849609H71.0273H71.1973C71.3105 0.849609 71.3672 0.92513 71.3672 1.07617V1.35938C71.2917 6.04167 71.2539 11.9701 71.2539 19.1445C71.2539 22.0898 71.2539 25.3939 71.2539 29.0566C71.2917 32.6816 71.3105 34.8717 71.3105 35.627C71.3105 38.7233 71.1973 40.2715 70.9707 40.2715L62.8711 40.5547H62.5879C62.3991 40.5547 62.3047 40.4225 62.3047 40.1582C62.6068 34.4564 62.7578 28.1504 62.7578 21.2402C62.7578 18.4837 62.7389 15.123 62.7012 11.1582C62.6634 7.19336 62.6445 4.77669 62.6445 3.9082C62.6445 1.86914 62.7012 0.849609 62.8145 0.849609ZM75.1621 0H83.8281C87.5664 0 90.4928 0.169922 92.6074 0.509766C94.7598 0.849609 96.5723 1.54818 98.0449 2.60547C99.5176 3.66276 100.518 5.09766 101.047 6.91016C101.576 8.72266 101.84 11.1771 101.84 14.2734C101.84 16.3503 101.783 18.0306 101.67 19.3145C101.557 20.5605 101.292 21.8066 100.877 23.0527C100.462 24.2611 99.8763 25.1862 99.1211 25.8281C98.4036 26.4701 97.3841 27.0553 96.0625 27.584C94.7409 28.0749 93.1361 28.4147 91.248 28.6035C89.3978 28.7923 87.1133 28.8867 84.3945 28.8867C84.1302 28.8867 83.8281 28.8867 83.4883 28.8867C83.1484 28.849 82.9596 28.8301 82.9219 28.8301C82.6576 28.8301 82.5254 29.0378 82.5254 29.4531C82.5254 29.5286 82.5254 29.5853 82.5254 29.623V39.4219V39.8184C82.5254 40.1204 82.4876 40.3092 82.4121 40.3848C82.3743 40.4603 82.2233 40.498 81.959 40.498H81.3359L77.5977 40.2715H77.1445C76.8802 40.2715 76.7103 40.2526 76.6348 40.2148C76.5592 40.1393 76.5215 39.9694 76.5215 39.7051V38.9688L76.5781 10.9316L75.1621 10.7617C75.0111 10.7617 74.8223 10.7428 74.5957 10.7051C74.2936 10.7051 74.1048 10.6862 74.0293 10.6484C73.9538 10.5729 73.916 10.4596 73.916 10.3086V9.68555L74.0293 1.01953C74.0293 0.528646 74.0482 0.245443 74.0859 0.169922C74.1615 0.0566406 74.3503 0 74.6523 0H75.1621ZM95.7227 18.2383C95.7604 17.4831 95.7793 16.2936 95.7793 14.6699C95.7793 13.0462 95.0618 11.8568 93.627 11.1016C92.1921 10.3464 90.6816 9.96875 89.0957 9.96875C88.5293 9.93099 87.7363 9.91211 86.7168 9.91211C85.2064 9.91211 84.1302 10.0443 83.4883 10.3086C82.8464 10.5729 82.5254 11.0449 82.5254 11.7246L82.4121 22.4297C82.4121 22.9583 82.6953 23.2793 83.2617 23.3926C83.8659 23.4681 85.6029 23.5059 88.4727 23.5059C89.7943 23.5059 90.7949 23.487 91.4746 23.4492C92.1921 23.4115 92.8717 23.2604 93.5137 22.9961C94.1556 22.7318 94.5898 22.4674 94.8164 22.2031C95.043 21.9388 95.2507 21.3913 95.4395 20.5605C95.6283 19.7298 95.7227 18.9557 95.7227 18.2383ZM114.414 0.679688C115.547 0.377604 116.925 0.226562 118.549 0.226562C122.665 0.226562 125.572 0.698568 127.271 1.64258C129.348 2.85091 130.84 4.60677 131.746 6.91016C132.69 9.21354 133.162 12.3288 133.162 16.2559V21.127C133.162 21.5423 133.124 21.7878 133.049 21.8633C133.011 21.901 132.841 21.9199 132.539 21.9199H126.082C125.553 21.9199 125.27 21.8633 125.232 21.75C125.195 21.6367 125.176 21.4668 125.176 21.2402V17.8984C125.176 15.0664 124.723 13.1406 123.816 12.1211C122.91 11.0638 121.381 10.5352 119.229 10.5352C114.962 10.5352 112.281 12.14 111.186 15.3496C110.846 16.3691 110.676 18.0495 110.676 20.3906C110.676 23.1471 110.94 25.4694 111.469 27.3574C111.96 29.1322 112.809 30.4349 114.018 31.2656C115.226 32.0964 116.906 32.5117 119.059 32.5117H119.285C121.324 32.474 122.608 32.1719 123.137 31.6055C123.703 31.0013 123.986 30.0007 123.986 28.6035C123.986 27.7728 124.043 27.2819 124.156 27.1309C124.27 26.9798 124.609 26.9043 125.176 26.9043H132.709C133.275 26.9043 133.634 26.9609 133.785 27.0742C133.936 27.1497 134.012 27.3763 134.012 27.7539C134.012 28.2826 133.974 28.849 133.898 29.4531C133.861 30.0573 133.634 30.9635 133.219 32.1719C132.803 33.3802 132.218 34.4753 131.463 35.457C130.745 36.4388 129.632 37.4395 128.121 38.459C126.611 39.4785 124.836 40.2526 122.797 40.7812C121.551 41.1589 120.21 41.3477 118.775 41.3477C117.567 41.3477 116.359 41.2155 115.15 40.9512C113.98 40.6868 112.677 40.1204 111.242 39.252C109.807 38.3835 108.542 37.2695 107.447 35.9102C106.39 34.5508 105.503 32.6628 104.785 30.2461C104.068 27.7917 103.709 24.9785 103.709 21.8066V21.5234C103.747 14.6133 104.577 9.61003 106.201 6.51367C107.863 3.41732 110.6 1.47266 114.414 0.679688ZM155.195 38.7988C155.158 38.0814 155.139 37.515 155.139 37.0996C155.139 35.1738 154.931 33.5501 154.516 32.2285C154.138 30.8691 153.666 29.8496 153.1 29.1699C152.533 28.4525 151.702 27.9049 150.607 27.5273C149.512 27.1497 148.512 26.9232 147.605 26.8477C146.699 26.7721 145.472 26.7344 143.924 26.7344C143.697 26.7344 143.622 27.0176 143.697 27.584V38.5156C143.697 39.3086 143.622 39.7995 143.471 39.9883C143.32 40.1771 142.961 40.2904 142.395 40.3281L137.75 40.4414H137.58C137.051 40.4414 136.693 40.3092 136.504 40.0449C136.353 39.7428 136.277 39.1953 136.277 38.4023C136.391 27.9427 136.447 15.9915 136.447 2.54883C136.447 1.56706 136.504 0.981771 136.617 0.792969C136.768 0.604167 137.221 0.509766 137.977 0.509766L148.398 0.226562C149.72 0.226562 150.758 0.245443 151.514 0.283203C152.269 0.283203 153.156 0.339844 154.176 0.453125C155.195 0.528646 155.988 0.660807 156.555 0.849609C157.121 1.00065 157.763 1.22721 158.48 1.5293C159.236 1.83138 159.802 2.20898 160.18 2.66211C160.557 3.07747 160.954 3.60612 161.369 4.24805C161.822 4.88997 162.143 5.64518 162.332 6.51367C162.521 7.38216 162.672 8.38281 162.785 9.51562C162.936 10.6107 163.012 11.8568 163.012 13.2539C163.012 18.6159 161.482 22.0143 158.424 23.4492C157.404 23.9023 156.895 24.3366 156.895 24.752C156.895 25.1296 157.348 25.6204 158.254 26.2246C159.085 26.791 159.783 27.9049 160.35 29.5664C160.916 31.1901 161.199 32.8893 161.199 34.6641L161.426 39.1387C161.426 39.2897 161.426 39.4596 161.426 39.6484C161.464 39.7995 161.482 39.8939 161.482 39.9316C161.482 40.1582 161.237 40.2715 160.746 40.2715H160.066H156.385H155.988C155.648 40.2715 155.422 40.2337 155.309 40.1582C155.233 40.0449 155.195 39.7806 155.195 39.3652V38.7988ZM149.021 12.3477H144.377C144.037 12.3477 143.829 12.4043 143.754 12.5176C143.678 12.6309 143.641 12.9329 143.641 13.4238V20.2207C143.641 20.9004 143.848 21.2402 144.264 21.2402H149.305C151.495 21.2402 153.439 20.806 155.139 19.9375C156.838 19.0312 157.688 17.8418 157.688 16.3691C157.688 15.6139 157.518 14.972 157.178 14.4434C156.876 13.9147 156.498 13.5182 156.045 13.2539C155.63 12.9896 154.969 12.7819 154.062 12.6309C153.194 12.4798 152.439 12.4043 151.797 12.4043C151.155 12.3665 150.23 12.3477 149.021 12.3477ZM175.416 1.69922C175.605 0.94401 176.096 0.566406 176.889 0.566406H177.568C177.682 0.566406 177.795 0.566406 177.908 0.566406C178.021 0.566406 178.154 0.585286 178.305 0.623047C178.493 0.623047 178.89 0.623047 179.494 0.623047C180.098 0.623047 180.891 0.623047 181.873 0.623047C182.666 0.623047 183.119 0.660807 183.232 0.736328C183.383 0.811849 183.516 1.05729 183.629 1.47266C185.479 8.38281 189.708 21.75 196.316 41.5742C196.354 41.6875 196.392 41.7819 196.43 41.8574C196.467 41.9707 196.505 42.0462 196.543 42.084C196.581 42.1595 196.6 42.2161 196.6 42.2539C196.637 42.3294 196.656 42.3861 196.656 42.4238C196.656 42.5749 196.411 42.6504 195.92 42.6504H190.652C190.237 42.6504 189.973 42.6126 189.859 42.5371C189.746 42.4616 189.614 42.2161 189.463 41.8008C188.821 40.0638 187.575 36.1178 185.725 29.9629C185.574 29.4342 183.44 29.1699 179.324 29.1699C175.397 29.1699 173.358 29.472 173.207 30.0762L170.658 39.3652C170.62 39.4408 170.564 39.5729 170.488 39.7617C170.451 39.9128 170.413 40.0072 170.375 40.0449C170.375 40.0827 170.337 40.1393 170.262 40.2148C170.224 40.2904 170.148 40.3281 170.035 40.3281C169.96 40.3659 169.846 40.3848 169.695 40.3848H163.975C163.635 40.3848 163.465 40.2904 163.465 40.1016C163.465 39.875 163.54 39.5918 163.691 39.252C165.806 33.6257 167.467 28.8867 168.676 25.0352C169.922 21.1458 171.13 17.0111 172.301 12.6309C173.509 8.25065 174.548 4.60677 175.416 1.69922ZM180.004 11.0449H177.908C177.682 11.0449 177.531 11.0827 177.455 11.1582C177.38 11.196 177.323 11.3659 177.285 11.668L175.926 18.2383C175.888 18.4271 175.869 18.6159 175.869 18.8047C175.869 18.9557 175.964 19.0312 176.152 19.0312H182.439C182.628 19.0312 182.723 18.9746 182.723 18.8613L182.609 18.4082L180.514 11.668C180.363 11.2526 180.193 11.0449 180.004 11.0449ZM205.436 27.6973L205.889 40.498C205.889 40.8379 205.87 41.0456 205.832 41.1211C205.794 41.2344 205.662 41.291 205.436 41.291H205.209H199.885C199.469 41.291 199.186 41.2344 199.035 41.1211C198.922 41.0078 198.865 40.7435 198.865 40.3281C199.016 37.7982 199.092 34.3242 199.092 29.9062C199.092 29.7174 199.035 23.6758 198.922 11.7812C197.94 11.5547 197.449 11.2904 197.449 10.9883V2.71875C197.449 2.30339 197.506 2.05794 197.619 1.98242C197.732 1.86914 197.978 1.8125 198.355 1.8125C199.904 1.8125 206.21 1.66146 217.273 1.35938H217.5C217.689 1.35938 217.802 1.39714 217.84 1.47266C217.878 1.51042 217.896 1.69922 217.896 2.03906V11.1582V11.4414C217.896 11.5547 217.538 11.6113 216.82 11.6113C216.745 11.6113 215.914 11.5924 214.328 11.5547C212.78 11.5169 210.59 11.498 207.758 11.498C206.738 11.498 206.115 11.6491 205.889 11.9512C205.662 12.2533 205.549 13.1406 205.549 14.6133V18.1816C205.549 18.7103 205.568 19.0312 205.605 19.1445C205.681 19.2578 205.87 19.3145 206.172 19.3145C207.418 19.3145 208.702 19.3145 210.023 19.3145C211.383 19.2767 212.214 19.2578 212.516 19.2578C215.121 19.2578 216.424 19.4655 216.424 19.8809C216.424 19.9186 216.405 19.9753 216.367 20.0508C216.367 20.1263 216.367 20.2018 216.367 20.2773L216.594 25.6016C216.594 26.0547 216.556 26.3379 216.48 26.4512C216.443 26.5267 216.273 26.5645 215.971 26.5645C212.157 26.5267 209.589 26.5078 208.268 26.5078C207.739 26.5078 207.342 26.5267 207.078 26.5645C206.814 26.6022 206.474 26.6211 206.059 26.6211C205.757 26.6211 205.568 26.6777 205.492 26.791C205.454 26.8665 205.436 27.1686 205.436 27.6973ZM228.545 11.2148C228.394 11.2148 228.205 11.2148 227.979 11.2148C227.79 11.1771 227.639 11.1582 227.525 11.1582C227.45 11.1582 227.299 11.1582 227.072 11.1582C226.883 11.1582 226.676 11.1582 226.449 11.1582C226.26 11.1582 226.034 11.1582 225.77 11.1582H223.277L221.691 11.1016C221.352 11.1016 221.125 11.0072 221.012 10.8184C220.936 10.5918 220.898 10.2142 220.898 9.68555L221.068 0.90625V0.509766C221.068 0.358724 221.182 0.283203 221.408 0.283203H222.145C223.013 0.283203 224.92 0.283203 227.865 0.283203C230.811 0.245443 233.322 0.226562 235.398 0.226562C236.833 0.226562 239.269 0.151042 242.705 0C243.196 0 243.479 0.0566406 243.555 0.169922C243.668 0.283203 243.725 0.604167 243.725 1.13281V10.1953C243.725 10.6107 243.668 10.875 243.555 10.9883C243.441 11.0638 243.196 11.1016 242.818 11.1016C241.95 11.1393 240.421 11.1582 238.23 11.1582C238.155 11.1582 237.324 11.1016 235.738 10.9883V11.2148C236.078 19.862 236.324 29.2454 236.475 39.3652C236.475 39.8184 236.399 40.0827 236.248 40.1582C236.135 40.2337 235.795 40.2715 235.229 40.2715H229.111C228.923 40.2715 228.771 40.2715 228.658 40.2715C228.583 40.2337 228.507 40.1393 228.432 39.9883C228.356 39.8372 228.318 39.6107 228.318 39.3086C228.318 36.401 228.375 32.946 228.488 28.9434C228.639 24.9408 228.715 21.6556 228.715 19.0879C228.715 18.3327 228.658 15.7083 228.545 11.2148Z" fill="white"/>
</svg>
