<svg width="269" height="48" viewBox="0 0 269 48" fill="none" xmlns="http://www.w3.org/2000/svg">
<path d="M11.8125 0.75C13.0625 0.416667 14.5833 0.25 16.375 0.25C20.9167 0.25 24.125 0.770833 26 1.8125C28.2917 3.14583 29.9375 5.08333 30.9375 7.625C31.9792 10.1667 32.5 13.6042 32.5 17.9375V23.3125C32.5 23.7708 32.4583 24.0417 32.375 24.125C32.3333 24.1667 32.1458 24.1875 31.8125 24.1875H24.6875C24.1042 24.1875 23.7917 24.125 23.75 24C23.7083 23.875 23.6875 23.6875 23.6875 23.4375V19.75C23.6875 16.625 23.1875 14.5 22.1875 13.375C21.1875 12.2083 19.5 11.625 17.125 11.625C12.4167 11.625 9.45833 13.3958 8.25 16.9375C7.875 18.0625 7.6875 19.9167 7.6875 22.5C7.6875 25.5417 7.97917 28.1042 8.5625 30.1875C9.10417 32.1458 10.0417 33.5833 11.375 34.5C12.7083 35.4167 14.5625 35.875 16.9375 35.875H17.1875C19.4375 35.8333 20.8542 35.5 21.4375 34.875C22.0625 34.2083 22.375 33.1042 22.375 31.5625C22.375 30.6458 22.4375 30.1042 22.5625 29.9375C22.6875 29.7708 23.0625 29.6875 23.6875 29.6875H32C32.625 29.6875 33.0208 29.75 33.1875 29.875C33.3542 29.9583 33.4375 30.2083 33.4375 30.625C33.4375 31.2083 33.3958 31.8333 33.3125 32.5C33.2708 33.1667 33.0208 34.1667 32.5625 35.5C32.1042 36.8333 31.4583 38.0417 30.625 39.125C29.8333 40.2083 28.6042 41.3125 26.9375 42.4375C25.2708 43.5625 23.3125 44.4167 21.0625 45C19.6875 45.4167 18.2083 45.625 16.625 45.625C15.2917 45.625 13.9583 45.4792 12.625 45.1875C11.3333 44.8958 9.89583 44.2708 8.3125 43.3125C6.72917 42.3542 5.33333 41.125 4.125 39.625C2.95833 38.125 1.97917 36.0417 1.1875 33.375C0.395833 30.6667 0 27.5625 0 24.0625V23.75C0.0416667 16.125 0.958333 10.6042 2.75 7.1875C4.58333 3.77083 7.60417 1.625 11.8125 0.75ZM46.4375 17.9375C49.1875 18.0625 51.5625 18.125 53.5625 18.125C55.9375 18.125 57.6042 18.0625 58.5625 17.9375C58.6458 16.1875 58.6875 13.9792 58.6875 11.3125C58.6875 9.52083 58.6458 7.77083 58.5625 6.0625C58.5208 4.35417 58.5 3.4375 58.5 3.3125C58.5 2.72917 58.5833 2.375 58.75 2.25C58.9167 2.08333 59.2917 2 59.875 2H64.5C64.875 2 65.1042 2.10417 65.1875 2.3125C65.2708 2.52083 65.3125 3 65.3125 3.75L65.6875 45C65.6875 45.5 65.6042 45.8125 65.4375 45.9375C65.3125 46.0625 65 46.125 64.5 46.125H59.3125C58.9375 46.125 58.6875 46.0833 58.5625 46C58.4792 45.9167 58.4375 45.7083 58.4375 45.375C58.4375 45.3333 58.4792 44.6667 58.5625 43.375C58.6458 42.0417 58.6875 40.6458 58.6875 39.1875C58.6875 37.2292 58.6042 35.0208 58.4375 32.5625C58.4375 32.3542 57.8333 32.1667 56.625 32C55.4167 31.8333 54.0625 31.75 52.5625 31.75C48.4792 31.75 46.4375 32.1042 46.4375 32.8125C46.3125 34.4375 46.25 35.7917 46.25 36.875C46.25 37.7917 46.2708 38.7917 46.3125 39.875C46.3958 40.9167 46.4375 41.5417 46.4375 41.75C46.4375 42.375 46.3333 42.7917 46.125 43C45.9583 43.2083 45.5625 43.3125 44.9375 43.3125H37.8125C37.0208 43.3125 36.4792 43.2292 36.1875 43.0625C35.8958 42.8542 35.75 42.4167 35.75 41.75V41.5625C36.25 32.9375 36.5 25.8958 36.5 20.4375C36.5 17.6875 36.4583 14.6458 36.375 11.3125C36.2917 7.97917 36.25 6 36.25 5.375C36.25 3.83333 36.3333 2.75 36.5 2.125C36.6667 1.5 37 1.1875 37.5 1.1875C39.0833 1.27083 40.2292 1.3125 40.9375 1.3125C42.0625 1.3125 43.3333 1.27083 44.75 1.1875H45.4375C45.8125 1.1875 46.0625 1.27083 46.1875 1.4375C46.3125 1.60417 46.375 2.0625 46.375 2.8125L46.4375 17.9375ZM69.3125 0.9375H78.375H78.5625C78.6875 0.9375 78.75 1.02083 78.75 1.1875V1.5C78.6667 6.66667 78.625 13.2083 78.625 21.125C78.625 24.375 78.625 28.0208 78.625 32.0625C78.6667 36.0625 78.6875 38.4792 78.6875 39.3125C78.6875 42.7292 78.5625 44.4375 78.3125 44.4375L69.375 44.75H69.0625C68.8542 44.75 68.75 44.6042 68.75 44.3125C69.0833 38.0208 69.25 31.0625 69.25 23.4375C69.25 20.3958 69.2292 16.6875 69.1875 12.3125C69.1458 7.9375 69.125 5.27083 69.125 4.3125C69.125 2.0625 69.1875 0.9375 69.3125 0.9375ZM82.9375 0H92.5C96.625 0 99.8542 0.1875 102.188 0.5625C104.562 0.9375 106.562 1.70833 108.188 2.875C109.812 4.04167 110.917 5.625 111.5 7.625C112.083 9.625 112.375 12.3333 112.375 15.75C112.375 18.0417 112.312 19.8958 112.188 21.3125C112.062 22.6875 111.771 24.0625 111.312 25.4375C110.854 26.7708 110.208 27.7917 109.375 28.5C108.583 29.2083 107.458 29.8542 106 30.4375C104.542 30.9792 102.771 31.3542 100.688 31.5625C98.6458 31.7708 96.125 31.875 93.125 31.875C92.8333 31.875 92.5 31.875 92.125 31.875C91.75 31.8333 91.5417 31.8125 91.5 31.8125C91.2083 31.8125 91.0625 32.0417 91.0625 32.5C91.0625 32.5833 91.0625 32.6458 91.0625 32.6875V43.5V43.9375C91.0625 44.2708 91.0208 44.4792 90.9375 44.5625C90.8958 44.6458 90.7292 44.6875 90.4375 44.6875H89.75L85.625 44.4375H85.125C84.8333 44.4375 84.6458 44.4167 84.5625 44.375C84.4792 44.2917 84.4375 44.1042 84.4375 43.8125V43L84.5 12.0625L82.9375 11.875C82.7708 11.875 82.5625 11.8542 82.3125 11.8125C81.9792 11.8125 81.7708 11.7917 81.6875 11.75C81.6042 11.6667 81.5625 11.5417 81.5625 11.375V10.6875L81.6875 1.125C81.6875 0.583333 81.7083 0.270833 81.75 0.1875C81.8333 0.0625 82.0417 0 82.375 0H82.9375ZM105.625 20.125C105.667 19.2917 105.688 17.9792 105.688 16.1875C105.688 14.3958 104.896 13.0833 103.312 12.25C101.729 11.4167 100.062 11 98.3125 11C97.6875 10.9583 96.8125 10.9375 95.6875 10.9375C94.0208 10.9375 92.8333 11.0833 92.125 11.375C91.4167 11.6667 91.0625 12.1875 91.0625 12.9375L90.9375 24.75C90.9375 25.3333 91.25 25.6875 91.875 25.8125C92.5417 25.8958 94.4583 25.9375 97.625 25.9375C99.0833 25.9375 100.188 25.9167 100.938 25.875C101.729 25.8333 102.479 25.6667 103.188 25.375C103.896 25.0833 104.375 24.7917 104.625 24.5C104.875 24.2083 105.104 23.6042 105.312 22.6875C105.521 21.7708 105.625 20.9167 105.625 20.125ZM126.25 0.75C127.5 0.416667 129.021 0.25 130.812 0.25C135.354 0.25 138.562 0.770833 140.438 1.8125C142.729 3.14583 144.375 5.08333 145.375 7.625C146.417 10.1667 146.938 13.6042 146.938 17.9375V23.3125C146.938 23.7708 146.896 24.0417 146.812 24.125C146.771 24.1667 146.583 24.1875 146.25 24.1875H139.125C138.542 24.1875 138.229 24.125 138.188 24C138.146 23.875 138.125 23.6875 138.125 23.4375V19.75C138.125 16.625 137.625 14.5 136.625 13.375C135.625 12.2083 133.938 11.625 131.562 11.625C126.854 11.625 123.896 13.3958 122.688 16.9375C122.312 18.0625 122.125 19.9167 122.125 22.5C122.125 25.5417 122.417 28.1042 123 30.1875C123.542 32.1458 124.479 33.5833 125.812 34.5C127.146 35.4167 129 35.875 131.375 35.875H131.625C133.875 35.8333 135.292 35.5 135.875 34.875C136.5 34.2083 136.812 33.1042 136.812 31.5625C136.812 30.6458 136.875 30.1042 137 29.9375C137.125 29.7708 137.5 29.6875 138.125 29.6875H146.438C147.062 29.6875 147.458 29.75 147.625 29.875C147.792 29.9583 147.875 30.2083 147.875 30.625C147.875 31.2083 147.833 31.8333 147.75 32.5C147.708 33.1667 147.458 34.1667 147 35.5C146.542 36.8333 145.896 38.0417 145.062 39.125C144.271 40.2083 143.042 41.3125 141.375 42.4375C139.708 43.5625 137.75 44.4167 135.5 45C134.125 45.4167 132.646 45.625 131.062 45.625C129.729 45.625 128.396 45.4792 127.062 45.1875C125.771 44.8958 124.333 44.2708 122.75 43.3125C121.167 42.3542 119.771 41.125 118.562 39.625C117.396 38.125 116.417 36.0417 115.625 33.375C114.833 30.6667 114.438 27.5625 114.438 24.0625V23.75C114.479 16.125 115.396 10.6042 117.188 7.1875C119.021 3.77083 122.042 1.625 126.25 0.75ZM171.25 42.8125C171.208 42.0208 171.188 41.3958 171.188 40.9375C171.188 38.8125 170.958 37.0208 170.5 35.5625C170.083 34.0625 169.562 32.9375 168.938 32.1875C168.312 31.3958 167.396 30.7917 166.188 30.375C164.979 29.9583 163.875 29.7083 162.875 29.625C161.875 29.5417 160.521 29.5 158.812 29.5C158.562 29.5 158.479 29.8125 158.562 30.4375V42.5C158.562 43.375 158.479 43.9167 158.312 44.125C158.146 44.3333 157.75 44.4583 157.125 44.5L152 44.625H151.812C151.229 44.625 150.833 44.4792 150.625 44.1875C150.458 43.8542 150.375 43.25 150.375 42.375C150.5 30.8333 150.562 17.6458 150.562 2.8125C150.562 1.72917 150.625 1.08333 150.75 0.875C150.917 0.666667 151.417 0.5625 152.25 0.5625L163.75 0.25C165.208 0.25 166.354 0.270833 167.188 0.3125C168.021 0.3125 169 0.375 170.125 0.5C171.25 0.583333 172.125 0.729167 172.75 0.9375C173.375 1.10417 174.083 1.35417 174.875 1.6875C175.708 2.02083 176.333 2.4375 176.75 2.9375C177.167 3.39583 177.604 3.97917 178.062 4.6875C178.562 5.39583 178.917 6.22917 179.125 7.1875C179.333 8.14583 179.5 9.25 179.625 10.5C179.792 11.7083 179.875 13.0833 179.875 14.625C179.875 20.5417 178.188 24.2917 174.812 25.875C173.688 26.375 173.125 26.8542 173.125 27.3125C173.125 27.7292 173.625 28.2708 174.625 28.9375C175.542 29.5625 176.312 30.7917 176.938 32.625C177.562 34.4167 177.875 36.2917 177.875 38.25L178.125 43.1875C178.125 43.3542 178.125 43.5417 178.125 43.75C178.167 43.9167 178.188 44.0208 178.188 44.0625C178.188 44.3125 177.917 44.4375 177.375 44.4375H176.625H172.562H172.125C171.75 44.4375 171.5 44.3958 171.375 44.3125C171.292 44.1875 171.25 43.8958 171.25 43.4375V42.8125ZM164.438 13.625H159.312C158.938 13.625 158.708 13.6875 158.625 13.8125C158.542 13.9375 158.5 14.2708 158.5 14.8125V22.3125C158.5 23.0625 158.729 23.4375 159.188 23.4375H164.75C167.167 23.4375 169.312 22.9583 171.188 22C173.062 21 174 19.6875 174 18.0625C174 17.2292 173.812 16.5208 173.438 15.9375C173.104 15.3542 172.688 14.9167 172.188 14.625C171.729 14.3333 171 14.1042 170 13.9375C169.042 13.7708 168.208 13.6875 167.5 13.6875C166.792 13.6458 165.771 13.625 164.438 13.625ZM193.562 1.875C193.771 1.04167 194.312 0.625 195.188 0.625H195.938C196.062 0.625 196.188 0.625 196.312 0.625C196.438 0.625 196.583 0.645833 196.75 0.6875C196.958 0.6875 197.396 0.6875 198.062 0.6875C198.729 0.6875 199.604 0.6875 200.688 0.6875C201.562 0.6875 202.062 0.729167 202.188 0.8125C202.354 0.895833 202.5 1.16667 202.625 1.625C204.667 9.25 209.333 24 216.625 45.875C216.667 46 216.708 46.1042 216.75 46.1875C216.792 46.3125 216.833 46.3958 216.875 46.4375C216.917 46.5208 216.938 46.5833 216.938 46.625C216.979 46.7083 217 46.7708 217 46.8125C217 46.9792 216.729 47.0625 216.188 47.0625H210.375C209.917 47.0625 209.625 47.0208 209.5 46.9375C209.375 46.8542 209.229 46.5833 209.062 46.125C208.354 44.2083 206.979 39.8542 204.938 33.0625C204.771 32.4792 202.417 32.1875 197.875 32.1875C193.542 32.1875 191.292 32.5208 191.125 33.1875L188.312 43.4375C188.271 43.5208 188.208 43.6667 188.125 43.875C188.083 44.0417 188.042 44.1458 188 44.1875C188 44.2292 187.958 44.2917 187.875 44.375C187.833 44.4583 187.75 44.5 187.625 44.5C187.542 44.5417 187.417 44.5625 187.25 44.5625H180.938C180.562 44.5625 180.375 44.4583 180.375 44.25C180.375 44 180.458 43.6875 180.625 43.3125C182.958 37.1042 184.792 31.875 186.125 27.625C187.5 23.3333 188.833 18.7708 190.125 13.9375C191.458 9.10417 192.604 5.08333 193.562 1.875ZM198.625 12.1875H196.312C196.062 12.1875 195.896 12.2292 195.812 12.3125C195.729 12.3542 195.667 12.5417 195.625 12.875L194.125 20.125C194.083 20.3333 194.062 20.5417 194.062 20.75C194.062 20.9167 194.167 21 194.375 21H201.312C201.521 21 201.625 20.9375 201.625 20.8125L201.5 20.3125L199.188 12.875C199.021 12.4167 198.833 12.1875 198.625 12.1875ZM226.688 30.5625L227.188 44.6875C227.188 45.0625 227.167 45.2917 227.125 45.375C227.083 45.5 226.938 45.5625 226.688 45.5625H226.438H220.562C220.104 45.5625 219.792 45.5 219.625 45.375C219.5 45.25 219.438 44.9583 219.438 44.5C219.604 41.7083 219.688 37.875 219.688 33C219.688 32.7917 219.625 26.125 219.5 13C218.417 12.75 217.875 12.4583 217.875 12.125V3C217.875 2.54167 217.938 2.27083 218.062 2.1875C218.188 2.0625 218.458 2 218.875 2C220.583 2 227.542 1.83333 239.75 1.5H240C240.208 1.5 240.333 1.54167 240.375 1.625C240.417 1.66667 240.438 1.875 240.438 2.25V12.3125V12.625C240.438 12.75 240.042 12.8125 239.25 12.8125C239.167 12.8125 238.25 12.7917 236.5 12.75C234.792 12.7083 232.375 12.6875 229.25 12.6875C228.125 12.6875 227.438 12.8542 227.188 13.1875C226.938 13.5208 226.812 14.5 226.812 16.125V20.0625C226.812 20.6458 226.833 21 226.875 21.125C226.958 21.25 227.167 21.3125 227.5 21.3125C228.875 21.3125 230.292 21.3125 231.75 21.3125C233.25 21.2708 234.167 21.25 234.5 21.25C237.375 21.25 238.812 21.4792 238.812 21.9375C238.812 21.9792 238.792 22.0417 238.75 22.125C238.75 22.2083 238.75 22.2917 238.75 22.375L239 28.25C239 28.75 238.958 29.0625 238.875 29.1875C238.833 29.2708 238.646 29.3125 238.312 29.3125C234.104 29.2708 231.271 29.25 229.812 29.25C229.229 29.25 228.792 29.2708 228.5 29.3125C228.208 29.3542 227.833 29.375 227.375 29.375C227.042 29.375 226.833 29.4375 226.75 29.5625C226.708 29.6458 226.688 29.9792 226.688 30.5625ZM252.188 12.375C252.021 12.375 251.812 12.375 251.562 12.375C251.354 12.3333 251.188 12.3125 251.062 12.3125C250.979 12.3125 250.812 12.3125 250.562 12.3125C250.354 12.3125 250.125 12.3125 249.875 12.3125C249.667 12.3125 249.417 12.3125 249.125 12.3125H246.375L244.625 12.25C244.25 12.25 244 12.1458 243.875 11.9375C243.792 11.6875 243.75 11.2708 243.75 10.6875L243.938 1V0.5625C243.938 0.395833 244.062 0.3125 244.312 0.3125H245.125C246.083 0.3125 248.188 0.3125 251.438 0.3125C254.688 0.270833 257.458 0.25 259.75 0.25C261.333 0.25 264.021 0.166667 267.812 0C268.354 0 268.667 0.0625 268.75 0.1875C268.875 0.3125 268.938 0.666667 268.938 1.25V11.25C268.938 11.7083 268.875 12 268.75 12.125C268.625 12.2083 268.354 12.25 267.938 12.25C266.979 12.2917 265.292 12.3125 262.875 12.3125C262.792 12.3125 261.875 12.25 260.125 12.125V12.375C260.5 21.9167 260.771 32.2708 260.938 43.4375C260.938 43.9375 260.854 44.2292 260.688 44.3125C260.562 44.3958 260.188 44.4375 259.562 44.4375H252.812C252.604 44.4375 252.438 44.4375 252.312 44.4375C252.229 44.3958 252.146 44.2917 252.062 44.125C251.979 43.9583 251.938 43.7083 251.938 43.375C251.938 40.1667 252 36.3542 252.125 31.9375C252.292 27.5208 252.375 23.8958 252.375 21.0625C252.375 20.2292 252.312 17.3333 252.188 12.375Z" fill="#C231C9"/>
</svg>
