<svg width="208" height="19" viewBox="0 0 208 19" fill="none" xmlns="http://www.w3.org/2000/svg">
<path d="M12.0905 16.198C10.4958 17.602 8.82314 18.304 7.07247 18.304C6.03247 18.304 5.0358 18.0527 4.08247 17.55C3.12914 17.0473 2.32314 16.328 1.66447 15.392C0.555135 13.8667 0.000468787 11.9427 0.000468787 9.62001C0.000468787 7.90401 0.269135 6.37867 0.806469 5.04401C1.36114 3.70934 2.13247 2.64334 3.12047 1.84601C3.67514 1.39534 4.2818 1.04867 4.94047 0.806005C5.59914 0.563338 6.2578 0.442005 6.91647 0.442005C7.15914 0.442005 7.39314 0.459339 7.61847 0.494006C7.8438 0.528672 8.13847 0.589339 8.50247 0.676005L8.76247 0.130006L12.2465 1.74201L10.2965 6.91601C9.8458 6.30934 9.4038 5.87601 8.97047 5.61601C8.55447 5.33867 8.06914 5.20001 7.51447 5.20001C5.79847 5.20001 4.94047 6.61267 4.94047 9.43801C4.94047 10.79 5.14847 11.8387 5.56447 12.584C5.98047 13.3293 6.56114 13.702 7.30647 13.702C8.39847 13.702 9.39514 12.9393 10.2965 11.414L12.0905 16.198ZM13.4963 5.38201H12.4563L13.4963 0.702005H18.1763V10.01C18.1763 10.8593 18.185 11.5093 18.2023 11.96C18.237 12.3933 18.289 12.7053 18.3583 12.896C18.549 13.4333 18.8956 13.702 19.3983 13.702C19.641 13.702 19.849 13.624 20.0223 13.468C20.213 13.312 20.343 13.104 20.4123 12.844C20.4643 12.6707 20.499 12.3847 20.5163 11.986C20.5336 11.5873 20.5423 10.9287 20.5423 10.01V0.702005H25.2223V10.686C25.2223 11.2753 25.2136 11.778 25.1963 12.194C25.1963 12.61 25.179 12.974 25.1443 13.286C25.127 13.5807 25.0923 13.8407 25.0403 14.066C25.0056 14.2913 24.9536 14.508 24.8843 14.716C24.5203 15.8773 23.8616 16.77 22.9083 17.394C21.955 18.0007 20.7503 18.304 19.2943 18.304C18.2023 18.304 17.223 18.096 16.3563 17.68C15.507 17.2467 14.831 16.64 14.3283 15.86C14.1723 15.6 14.0423 15.3313 13.9383 15.054C13.8343 14.7593 13.7476 14.4213 13.6783 14.04C13.609 13.6413 13.557 13.182 13.5223 12.662C13.505 12.142 13.4963 11.518 13.4963 10.79V5.38201ZM28.1638 12.272C28.8051 12.7227 29.4811 13.078 30.1918 13.338C30.9024 13.5807 31.5611 13.702 32.1678 13.702C32.5144 13.702 32.8004 13.6153 33.0257 13.442C33.2511 13.2687 33.3638 13.0347 33.3638 12.74C33.3638 12.584 33.3378 12.4453 33.2858 12.324C33.2338 12.1853 33.1298 12.0467 32.9738 11.908C32.8178 11.7693 32.6011 11.622 32.3238 11.466C32.0638 11.31 31.7171 11.128 31.2838 10.92C30.4691 10.5387 29.8364 10.2093 29.3858 9.93201C28.9524 9.65467 28.5711 9.36001 28.2418 9.04801C27.7911 8.64934 27.4444 8.14667 27.2017 7.54001C26.9764 6.93334 26.8638 6.28334 26.8638 5.59001C26.8638 4.84467 26.9851 4.16001 27.2278 3.53601C27.4704 2.91201 27.8084 2.37467 28.2418 1.92401C28.6924 1.45601 29.2124 1.09201 29.8018 0.832005C30.3911 0.572005 31.0411 0.442005 31.7518 0.442005C32.1158 0.442005 32.4538 0.468005 32.7658 0.520006C33.0951 0.554672 33.5198 0.632672 34.0398 0.754006L34.2218 6.19888e-06L37.9658 0.910005L36.7958 5.66801C36.3104 5.26934 35.7731 4.96601 35.1838 4.75801C34.5944 4.53267 34.0224 4.42001 33.4678 4.42001C33.0344 4.42001 32.6791 4.50667 32.4018 4.68001C32.1418 4.83601 32.0118 5.05267 32.0118 5.33001C32.0118 5.46867 32.0378 5.59867 32.0898 5.72001C32.1591 5.84134 32.2804 5.97134 32.4538 6.11001C32.6271 6.24867 32.8611 6.40467 33.1558 6.57801C33.4504 6.75134 33.8231 6.95067 34.2738 7.17601C34.7071 7.40134 35.0711 7.60067 35.3658 7.77401C35.6778 7.93001 35.9378 8.08601 36.1458 8.24201C36.3711 8.38067 36.5618 8.51934 36.7178 8.65801C36.8738 8.79667 37.0211 8.95267 37.1598 9.12601C37.9224 10.0447 38.3038 11.18 38.3038 12.532C38.3038 13.3813 38.1564 14.1613 37.8618 14.872C37.5844 15.5827 37.1944 16.1893 36.6918 16.692C36.1891 17.1947 35.5824 17.5933 34.8718 17.888C34.1784 18.1653 33.4071 18.304 32.5578 18.304C31.6218 18.304 30.7118 18.174 29.8278 17.914C28.9438 17.654 28.0251 17.2467 27.0718 16.692L28.1638 12.272ZM40.9523 5.38201H38.5083L39.5483 0.702005H44.9043L45.0603 0.104005H49.1163L47.9463 5.38201H45.6323V18.044H40.9523V5.38201ZM56.0546 0.442005C57.3026 0.442005 58.464 0.780005 59.5386 1.45601C60.6133 2.11467 61.48 3.04201 62.1386 4.23801C62.52 4.89667 62.806 5.66801 62.9966 6.55201C63.2046 7.43601 63.3086 8.37201 63.3086 9.36001C63.3086 11.9773 62.6586 14.0833 61.3586 15.678C60.6653 16.5273 59.8593 17.1773 58.9406 17.628C58.0393 18.0787 57.0686 18.304 56.0286 18.304C54.434 18.304 53.0213 17.7667 51.7906 16.692C49.8146 15.028 48.8266 12.5407 48.8266 9.23001C48.8266 6.71667 49.4766 4.66267 50.7766 3.06801C51.47 2.23601 52.276 1.59467 53.1946 1.14401C54.1133 0.676005 55.0666 0.442005 56.0546 0.442005ZM56.0546 5.20001C55.3266 5.20001 54.7633 5.57267 54.3646 6.31801C53.966 7.06334 53.7666 8.08601 53.7666 9.38601C53.7666 10.7553 53.966 11.8213 54.3646 12.584C54.7806 13.3293 55.3526 13.702 56.0806 13.702C56.8086 13.702 57.372 13.3293 57.7706 12.584C58.1693 11.8213 58.3686 10.7813 58.3686 9.46401C58.3686 8.11201 58.1606 7.06334 57.7446 6.31801C57.346 5.57267 56.7826 5.20001 56.0546 5.20001ZM64.9903 5.38201H63.9503L64.9903 0.702005H69.6703L72.1403 4.73201L74.6103 0.702005H79.2903V18.044H74.6103V8.32001L72.1403 12.298L69.6703 8.32001V18.044H64.9903V5.38201ZM89.4681 5.38201H88.4281L89.4681 0.702005H94.1481V18.044H89.4681V5.38201ZM107.991 16.198C106.396 17.602 104.724 18.304 102.973 18.304C101.933 18.304 100.936 18.0527 99.9829 17.55C99.0295 17.0473 98.2235 16.328 97.5649 15.392C96.4555 13.8667 95.9009 11.9427 95.9009 9.62001C95.9009 7.90401 96.1695 6.37867 96.7069 5.04401C97.2615 3.70934 98.0329 2.64334 99.0209 1.84601C99.5755 1.39534 100.182 1.04867 100.841 0.806005C101.5 0.563338 102.158 0.442005 102.817 0.442005C103.06 0.442005 103.294 0.459339 103.519 0.494006C103.744 0.528672 104.039 0.589339 104.403 0.676005L104.663 0.130006L108.147 1.74201L106.197 6.91601C105.746 6.30934 105.304 5.87601 104.871 5.61601C104.455 5.33867 103.97 5.20001 103.415 5.20001C101.699 5.20001 100.841 6.61267 100.841 9.43801C100.841 10.79 101.049 11.8387 101.465 12.584C101.881 13.3293 102.462 13.702 103.207 13.702C104.299 13.702 105.296 12.9393 106.197 11.414L107.991 16.198ZM117.27 5.38201H116.23L117.27 0.702005H121.95L124.42 4.73201L126.89 0.702005H131.57V18.044H126.89V8.32001L124.42 12.298L121.95 8.32001V18.044H117.27V5.38201ZM135.772 5.38201H134.732L135.772 0.702005H143.26L147.368 18.044H142.194L141.596 15.054H138.32L137.696 18.044H132.678L135.772 5.38201ZM141.102 11.18L140.01 6.34401L138.892 11.18H141.102ZM149.125 12.272C149.766 12.7227 150.442 13.078 151.153 13.338C151.863 13.5807 152.522 13.702 153.129 13.702C153.475 13.702 153.761 13.6153 153.987 13.442C154.212 13.2687 154.325 13.0347 154.325 12.74C154.325 12.584 154.299 12.4453 154.247 12.324C154.195 12.1853 154.091 12.0467 153.935 11.908C153.779 11.7693 153.562 11.622 153.285 11.466C153.025 11.31 152.678 11.128 152.245 10.92C151.43 10.5387 150.797 10.2093 150.347 9.93201C149.913 9.65467 149.532 9.36001 149.203 9.04801C148.752 8.64934 148.405 8.14667 148.163 7.54001C147.937 6.93334 147.825 6.28334 147.825 5.59001C147.825 4.84467 147.946 4.16001 148.189 3.53601C148.431 2.91201 148.769 2.37467 149.203 1.92401C149.653 1.45601 150.173 1.09201 150.763 0.832005C151.352 0.572005 152.002 0.442005 152.713 0.442005C153.077 0.442005 153.415 0.468005 153.727 0.520006C154.056 0.554672 154.481 0.632672 155.001 0.754006L155.183 6.19888e-06L158.927 0.910005L157.757 5.66801C157.271 5.26934 156.734 4.96601 156.145 4.75801C155.555 4.53267 154.983 4.42001 154.429 4.42001C153.995 4.42001 153.64 4.50667 153.363 4.68001C153.103 4.83601 152.973 5.05267 152.973 5.33001C152.973 5.46867 152.999 5.59867 153.051 5.72001C153.12 5.84134 153.241 5.97134 153.415 6.11001C153.588 6.24867 153.822 6.40467 154.117 6.57801C154.411 6.75134 154.784 6.95067 155.235 7.17601C155.668 7.40134 156.032 7.60067 156.327 7.77401C156.639 7.93001 156.899 8.08601 157.107 8.24201C157.332 8.38067 157.523 8.51934 157.679 8.65801C157.835 8.79667 157.982 8.95267 158.121 9.12601C158.883 10.0447 159.265 11.18 159.265 12.532C159.265 13.3813 159.117 14.1613 158.823 14.872C158.545 15.5827 158.155 16.1893 157.653 16.692C157.15 17.1947 156.543 17.5933 155.833 17.888C155.139 18.1653 154.368 18.304 153.519 18.304C152.583 18.304 151.673 18.174 150.789 17.914C149.905 17.654 148.986 17.2467 148.033 16.692L149.125 12.272ZM161.913 5.38201H159.469L160.509 0.702005H165.865L166.021 0.104005H170.077L168.907 5.38201H166.593V18.044H161.913V5.38201ZM170.844 5.38201H169.804L170.844 0.702005H176.772V0.104005H180.906L179.736 5.38201H175.524V7.46201H180.542L179.736 11.284H175.524V13.364H180.542L179.502 18.044H170.844V5.38201ZM182.65 5.38201H181.61L182.65 0.702005H187.772C188.5 0.702005 189.133 0.736672 189.67 0.806005C190.208 0.858005 190.684 0.953339 191.1 1.09201C191.516 1.23067 191.88 1.41267 192.192 1.63801C192.522 1.86334 192.834 2.14067 193.128 2.47001C194.099 3.59667 194.584 5.12201 194.584 7.04601C194.584 9.76734 193.735 11.57 192.036 12.454L194.558 18.044H189.202L187.59 13.052H187.33V18.044H182.65V5.38201ZM187.33 5.22601V9.28201C187.4 9.29934 187.469 9.30801 187.538 9.30801C187.608 9.30801 187.66 9.30801 187.694 9.30801C188.318 9.30801 188.795 9.12601 189.124 8.76201C189.471 8.39801 189.644 7.88667 189.644 7.22801C189.644 5.89334 188.986 5.22601 187.668 5.22601H187.33ZM198.555 10.244L194.343 0.702005H199.413L200.895 5.01801L202.429 0.702005H207.499L203.235 10.244V18.044H198.555V10.244Z" fill="white"/>
</svg>
