<svg width="179" height="66" viewBox="0 0 179 66" fill="none" xmlns="http://www.w3.org/2000/svg">
<path d="M10.8043 65.12C7.40027 65.12 4.78561 64.1827 2.96027 62.308C1.13494 60.4334 0.222273 57.6954 0.222273 54.094V53.354H9.17627V54.686C9.17627 56.61 9.74361 57.572 10.8783 57.572C11.4703 57.572 11.8896 57.35 12.1363 56.906C12.4323 56.462 12.5803 55.722 12.5803 54.686V48.026C10.9029 50.0487 8.95427 51.06 6.73427 51.06C4.51427 51.06 2.83694 50.2214 1.70227 48.544C0.567607 46.8174 0.000273526 44.2767 0.000273526 40.922V22.274C0.000273526 19.1167 0.61694 16.6994 1.85027 15.022C3.08361 13.2954 4.83494 12.432 7.10427 12.432C8.43627 12.432 9.69427 12.7527 10.8783 13.394C12.0623 13.986 13.0489 14.8494 13.8383 15.984L15.7623 12.95H21.5343V53.502C21.5343 57.3007 20.6216 60.1867 18.7963 62.16C16.9709 64.1334 14.3069 65.12 10.8043 65.12ZM10.5823 43.216C11.7663 43.216 12.4323 42.18 12.5803 40.108V23.236C12.4323 21.2627 11.7909 20.276 10.6563 20.276C10.0643 20.276 9.62027 20.498 9.32427 20.942C9.07761 21.386 8.95427 22.1014 8.95427 23.088V40.626C8.95427 42.3527 9.49694 43.216 10.5823 43.216ZM25.9436 53.28V12.95H31.7156L33.4916 15.984C34.2316 14.8 35.0456 13.9367 35.9336 13.394C36.871 12.8514 37.9563 12.58 39.1896 12.58C40.0283 12.58 40.7436 12.6787 41.3356 12.876L40.6696 22.422C39.4856 22.0767 38.6963 21.904 38.3016 21.904C37.315 21.904 36.5503 22.1507 36.0076 22.644C35.5143 23.1374 35.1443 23.9267 34.8976 25.012V53.28H25.9436ZM52.8195 53.28H43.8655V13.32H52.8195V53.28ZM48.3795 9.76803C46.8502 9.76803 45.6415 9.32403 44.7535 8.43603C43.8655 7.54803 43.4215 6.36403 43.4215 4.88403C43.4215 3.40403 43.8655 2.22003 44.7535 1.33203C45.6415 0.444027 46.8502 2.71797e-05 48.3795 2.71797e-05C49.8595 2.71797e-05 51.0435 0.468694 51.9315 1.40603C52.8195 2.29403 53.2635 3.45336 53.2635 4.88403C53.2635 6.36403 52.8195 7.54803 51.9315 8.43603C51.0435 9.32403 49.8595 9.76803 48.3795 9.76803ZM64.1924 54.168C61.9724 54.168 60.2457 53.354 59.0124 51.726C57.779 50.098 57.1624 47.7054 57.1624 44.548V22.348C57.1624 19.1414 57.779 16.6994 59.0124 15.022C60.2457 13.2954 62.0217 12.432 64.3404 12.432C66.3137 12.432 68.1144 13.2707 69.7424 14.948V1.48003H78.6964V53.65H72.9244L71.0004 50.468C69.3231 52.9347 67.0537 54.168 64.1924 54.168ZM67.6704 46.324C68.8051 46.324 69.4957 45.3127 69.7424 43.29V22.792C69.4957 21.1147 68.8297 20.276 67.7444 20.276C66.6591 20.276 66.1164 21.238 66.1164 23.162V43.512C66.1164 45.3867 66.6344 46.324 67.6704 46.324ZM92.9477 54.168C89.5437 54.168 86.9291 53.1814 85.1037 51.208C83.2784 49.2347 82.3657 46.3487 82.3657 42.55V24.05C82.3657 20.2514 83.2537 17.3654 85.0297 15.392C86.8551 13.4187 89.4944 12.432 92.9477 12.432C96.4011 12.432 99.0404 13.4187 100.866 15.392C102.691 17.3654 103.604 20.2514 103.604 24.05V27.898H94.6497V22.792C94.6497 20.9174 94.0824 19.98 92.9477 19.98C91.8624 19.98 91.3197 20.9174 91.3197 22.792V43.808C91.3197 45.6827 91.8624 46.62 92.9477 46.62C94.0824 46.62 94.6497 45.6827 94.6497 43.808V37.814H103.604V42.55C103.604 46.3487 102.666 49.2347 100.792 51.208C98.9664 53.1814 96.3517 54.168 92.9477 54.168ZM106.809 53.28V12.95H112.581L114.357 15.984C115.097 14.8 115.911 13.9367 116.799 13.394C117.736 12.8514 118.822 12.58 120.055 12.58C120.894 12.58 121.609 12.6787 122.201 12.876L121.535 22.422C120.351 22.0767 119.562 21.904 119.167 21.904C118.18 21.904 117.416 22.1507 116.873 22.644C116.38 23.1374 116.01 23.9267 115.763 25.012V53.28H106.809ZM133.85 12.432C137.155 12.432 139.696 13.468 141.472 15.54C143.297 17.5627 144.21 20.4487 144.21 24.198V53.65H138.438L136.144 49.95C135.453 51.282 134.541 52.318 133.406 53.058C132.321 53.798 131.087 54.168 129.706 54.168C127.535 54.168 125.858 53.3047 124.674 51.578C123.539 49.802 122.972 47.2614 122.972 43.956V39.812C122.972 36.3094 123.909 33.6454 125.784 31.82C127.708 29.9947 130.495 29.082 134.146 29.082H135.256V22.348C135.256 21.5094 135.133 20.9174 134.886 20.572C134.689 20.1774 134.343 19.98 133.85 19.98C132.863 19.98 132.37 20.7694 132.37 22.348V26.492H123.416V24.198C123.416 20.3994 124.304 17.4887 126.08 15.466C127.905 13.4434 130.495 12.432 133.85 12.432ZM133.332 46.694C133.825 46.694 134.245 46.4474 134.59 45.954C134.935 45.4607 135.157 44.7454 135.256 43.808V36.112H134.146C133.357 36.112 132.789 36.3587 132.444 36.852C132.099 37.3454 131.926 38.1347 131.926 39.22V44.178C131.926 45.8554 132.395 46.694 133.332 46.694ZM160.351 8.73203C159.463 8.73203 158.822 8.97869 158.427 9.47203C158.033 9.91603 157.835 10.656 157.835 11.692V13.32H161.535V20.054H157.835V53.28H148.881V20.054H146.809V15.392L148.881 13.172V12.284C148.881 5.08136 152.458 1.48003 159.611 1.48003C160.499 1.48003 161.338 1.55403 162.127 1.70203V9.02803C161.585 8.83069 160.993 8.73203 160.351 8.73203ZM175.135 53.798C171.533 53.798 168.943 52.9594 167.365 51.282C165.786 49.5554 164.997 46.7927 164.997 42.994V20.054H162.925V15.392L165.589 13.32L168.179 5.32803H173.951V13.32H178.095V20.054H173.951V42.994C173.951 44.03 174.148 44.7947 174.543 45.288C174.937 45.732 175.579 45.954 176.467 45.954C176.861 45.954 177.404 45.8554 178.095 45.658V53.428C177.009 53.6747 176.023 53.798 175.135 53.798Z" fill="#C231C9"/>
</svg>
