<svg width="125" height="141" viewBox="0 0 125 141" fill="none" xmlns="http://www.w3.org/2000/svg">
<path d="M62.2041 8.75781C96.5585 8.75781 124.408 36.6075 124.408 70.9619C124.408 105.316 96.5586 133.166 62.2041 133.166C27.8497 133.166 0 105.316 0 70.9619C3.21161e-05 36.6075 27.8497 8.75789 62.2041 8.75781ZM16.6924 55.6914C14.9591 60.6427 14.0137 65.965 14.0137 71.5078C14.0139 96.3413 32.9305 116.757 57.1416 119.136L56.0947 118.073L44.9492 106.929V68.3125H30.3477L16.6963 55.7002L16.6924 55.6914ZM93.417 68.3125H78.8154V106.929L67.6699 118.073L66.6221 119.135C90.8309 116.754 109.745 96.3396 109.745 71.5078C109.745 65.7766 108.736 60.2807 106.889 55.1875L93.417 68.3125ZM61.8789 23.6484C47.648 23.6486 34.8699 29.8603 26.1025 39.7178H54.0215L61.8818 47.0586L69.7441 39.7178H97.6562C88.8887 29.8602 76.1101 23.6484 61.8789 23.6484Z" fill="url(#paint0_radial_226_3)"/>
<path d="M34.5615 50.2812C35.8178 50.2818 36.8768 51.1209 37.2129 52.2687H49.1641L49.415 52.5107L56.4873 59.3359L56.8447 59.6816L57.1094 59.9366V109.747L55.6504 108.36L50.4668 103.437L50.1973 103.181V64.5293L50.4443 64.2773L54.6602 59.9747L48.4658 53.9972H37.1543C36.7662 55.0547 35.7534 55.8103 34.5615 55.8106C33.0347 55.8106 31.7969 54.5728 31.7969 53.0459C31.797 51.5192 33.0348 50.2812 34.5615 50.2812ZM51.9258 65.2344V102.439L55.3809 105.722V61.708L51.9258 65.2344ZM34.5586 51.3564C33.6256 51.3565 32.8692 52.1129 32.8691 53.0459C32.8693 53.9788 33.6257 54.7354 34.5586 54.7355C35.4913 54.7352 36.2478 53.9787 36.248 53.0459C36.248 52.113 35.4914 51.3567 34.5586 51.3564Z" fill="white"/>
<path d="M89.7627 50.2812C88.5064 50.2816 87.4475 51.1209 87.1113 52.2687H75.1543L74.9033 52.5107L67.8311 59.3359L67.4736 59.6816L67.209 59.9366V109.747L68.668 108.36L73.8516 103.437L74.1211 103.181V64.5293L73.874 64.2773L69.6582 59.9747L75.8525 53.9972H87.1699C87.558 55.0547 88.5708 55.8103 89.7627 55.8106C91.2896 55.8106 92.5273 54.5728 92.5273 53.0459C92.5272 51.5192 91.2895 50.2812 89.7627 50.2812ZM72.3926 65.2344V102.439L68.9375 105.722V61.708L72.3926 65.2344ZM89.7617 51.3564C90.6947 51.3564 91.4511 52.1129 91.4512 53.0459C91.451 53.9788 90.6947 54.7355 89.7617 54.7355C88.829 54.7352 88.0725 53.9787 88.0723 53.0459C88.0724 52.113 88.8289 51.3567 89.7617 51.3564Z" fill="white"/>
<path d="M97.9678 41.8164C99.4945 41.8165 100.732 43.0543 100.732 44.5811C100.732 46.1078 99.4945 47.3456 97.9678 47.3457C96.7426 47.3457 95.7045 46.5482 95.3418 45.4443H72.6631L62.9775 55.0479V124.003C64.1256 124.339 64.9648 125.399 64.9648 126.655C64.9645 128.182 63.7266 129.42 62.2002 129.42C60.6735 129.42 59.4359 128.182 59.4355 126.655C59.4355 125.463 60.1915 124.448 61.25 124.061V55.0518L51.3945 45.4443H28.8857C28.5229 46.5479 27.4855 47.3453 26.2607 47.3457C24.7339 47.3457 23.4962 46.1078 23.4961 44.5811C23.4961 43.0542 24.7339 41.8164 26.2607 41.8164C27.4848 41.8168 28.5214 42.6133 28.8848 43.7158H52.0977L52.3496 43.9619L62.1084 53.4756L71.7002 43.9668L71.9521 43.7158H95.3428C95.7061 42.6129 96.7432 41.8164 97.9678 41.8164ZM62.2002 125.271C61.4371 125.272 60.8186 125.89 60.8184 126.653C60.8185 127.416 61.437 128.036 62.2002 128.036C62.9634 128.036 63.5829 127.417 63.583 126.653C63.5828 125.89 62.9634 125.272 62.2002 125.271ZM110.062 94.3418C111.588 94.3422 112.826 95.5803 112.826 97.1064C112.826 98.6331 111.588 99.8707 110.062 99.8711C108.535 99.8711 107.297 98.6333 107.297 97.1064C107.297 95.58 108.535 94.3418 110.062 94.3418ZM110.062 95.7256C109.298 95.7257 108.68 96.3444 108.68 97.1074C108.68 97.8708 109.298 98.4901 110.062 98.4902C110.825 98.49 111.444 97.8707 111.444 97.1074C111.444 96.3444 110.825 95.7258 110.062 95.7256ZM26.2607 43.1973C25.4974 43.1974 24.8789 43.8167 24.8789 44.5801C24.8791 45.3433 25.4975 45.9618 26.2607 45.9619C27.0238 45.9617 27.6433 45.3432 27.6436 44.5801C27.6436 43.8168 27.024 43.1975 26.2607 43.1973ZM97.9688 43.1973C97.2053 43.1973 96.5859 43.8166 96.5859 44.5801C96.5862 45.3433 97.2055 45.9619 97.9688 45.9619C98.7318 45.9616 99.3504 45.3432 99.3506 44.5801C99.3506 43.8168 98.7319 43.1976 97.9688 43.1973Z" fill="white"/>
<path d="M15.7178 93.3047C17.2445 93.3047 18.4822 94.5426 18.4824 96.0693C18.4824 97.5962 17.2446 98.834 15.7178 98.834C14.1909 98.834 12.9531 97.5962 12.9531 96.0693C12.9533 94.5426 14.191 93.3047 15.7178 93.3047ZM15.7188 94.6885C14.9553 94.6885 14.336 95.3069 14.3359 96.0703C14.3359 96.8337 14.9553 97.4531 15.7188 97.4531C16.482 97.453 17.1006 96.8336 17.1006 96.0703C17.1006 95.307 16.482 94.6886 15.7188 94.6885Z" fill="white"/>
<path d="M62.2061 13.8242C63.7329 13.8242 64.9707 15.062 64.9707 16.5889C64.9706 17.8929 64.0672 18.9821 62.8525 19.2734V24.1055H61.5557V19.2725C60.3434 18.9794 59.4415 17.8911 59.4414 16.5889C59.4414 15.0623 60.6795 13.8246 62.2061 13.8242ZM62.207 15.207C61.4438 15.2073 60.8252 15.8266 60.8252 16.5898C60.8254 17.3529 61.444 17.9714 62.207 17.9717C62.9703 17.9717 63.5896 17.3531 63.5898 16.5898C63.5898 15.8264 62.9705 15.207 62.207 15.207Z" fill="#A5F4FB"/>
<path d="M106.585 59.3154C106.689 59.6704 106.788 60.0273 106.883 60.3857L105.455 71.4805L108.413 71.0439C108.417 71.189 108.419 71.3341 108.422 71.4795L105.44 71.9189L106.743 84.6758C106.64 85.0448 106.533 85.412 106.422 85.7773L105.071 72.5654L99.5811 84.8867L105.85 87.5293C105.802 87.6655 105.752 87.8009 105.703 87.9365L99.4053 85.2812L94.3838 96.5498L97.7764 101.799C97.6799 101.915 97.5839 102.032 97.4863 102.147L94.1807 97.0312L88.7275 110.188C88.5096 110.342 88.291 110.496 88.0703 110.646L93.5908 97.3262L80.0596 108.991L87.5664 110.985C87.4054 111.092 87.2434 111.198 87.0811 111.303L79.6641 109.332L69.7832 117.851C74.4783 117.096 78.9421 115.652 83.0693 113.626C77.8867 116.296 72.1404 118.043 66.0518 118.637L66.4199 118.266C66.9978 118.215 67.5728 118.155 68.1445 118.084L67.4023 117.285L67.71 116.98L68.6729 118.017C68.6857 118.015 68.699 118.013 68.7119 118.012C68.8013 117.999 68.8903 117.985 68.9795 117.973L79.1582 109.197L76.3281 108.444L76.6826 108.093L79.5537 108.856L93.3262 96.9844L78.0322 100.636V100.191L93.7246 96.4453C93.6076 96.3368 93.4527 96.1959 93.2598 96.0283C92.7984 95.6274 92.1343 95.0703 91.3145 94.3926C89.6749 93.0373 87.4146 91.2042 84.9072 89.1865C84.5887 88.9302 84.2652 88.6718 83.9395 88.4102L78.0322 94.2754V93.666L83.6006 88.1377C81.7914 86.6851 79.892 85.1672 78.0322 83.6836V83.1299C79.9911 84.692 82.0007 86.2986 83.9092 87.8311L90.2832 81.502L90.2725 81.4561L78.0322 78.9219V78.4805L89.8936 80.9365L81.2998 70.5234L80.1787 69.165H80.7383L81.416 69.9863L81.8057 69.165H82.2842L81.7197 70.3545L90.3828 80.8525L96.5186 65.1738L97.2627 64.4551L90.8955 80.7275L104.902 71.6738L98.9443 62.833L99.2607 62.5284L105.062 71.1396L106.585 59.3154ZM19.3281 71.1885L24.5869 63.8535L24.9082 64.1465L19.5098 71.6758L33.7305 80.7031L27.2129 66.2559L28.0205 66.9951L34.2725 80.8545L43.2461 69.165H43.792L34.751 80.9414L44.7441 78.8525V79.2939L34.6436 81.4053L40.8799 88.1152L44.7441 85.2832V85.8184L41.1758 88.4336L44.7441 92.2725V92.9062L40.8252 88.6904L30.9375 95.9355L44.7441 99.6045V100.051L31.2178 96.4561L43.8672 108.35L45.8682 107.871L46.2295 108.229L44.2441 108.704L53.8291 117.716C53.916 117.731 54.0028 117.748 54.0898 117.763C54.7749 117.881 55.4653 117.983 56.1602 118.071L56.6543 118.567C55.7675 118.465 54.888 118.339 54.0166 118.188C47.3859 117.045 41.2218 114.538 35.8242 110.966L35.3047 110.617C32.1922 108.498 29.3422 106.021 26.8145 103.246L26.3135 102.687C22.6422 98.5275 19.6819 93.7253 17.624 88.4707C15.5446 83.1611 14.3887 77.3896 14.3477 71.3525C14.4382 66.7435 15.2074 62.2994 16.5557 58.1114C15.4111 62.1679 14.7905 66.4447 14.7764 70.8652L18.9375 71.4785L16.6289 57.88C16.7232 57.5922 16.8211 57.3058 16.9209 57.0205L19.3281 71.1885ZM36.1221 110.644C41.1711 113.975 46.8938 116.366 53.042 117.569L43.7402 108.824L36.1221 110.644ZM35.373 110.139C35.4314 110.179 35.4893 110.22 35.5479 110.26C35.5756 110.279 35.6041 110.297 35.6318 110.315L43.3633 108.47L30.9209 96.7715L35.373 110.139ZM26.7002 102.473C29.1048 105.186 31.8167 107.62 34.7793 109.724L30.3867 96.5322L26.7002 102.473ZM18.3682 89.1602C20.3416 93.9249 23.0702 98.2975 26.4033 102.131L30.1465 96.1025L18.3682 89.1602ZM94.2002 95.9004L99.0068 85.1133L90.7607 81.6367L94.2002 95.9004ZM84.249 88.1035C84.5618 88.3548 84.8726 88.6033 85.1787 88.8496C87.6864 90.8676 89.9481 92.7025 91.5898 94.0596C92.4104 94.7378 93.0775 95.2977 93.543 95.7021C93.6192 95.7684 93.6883 95.8335 93.7539 95.8916L90.4023 81.9932L84.249 88.1035ZM18.1006 88.499L18.1025 88.5029L30.3086 95.6963L33.9053 81.6465L18.1006 88.499ZM30.8057 95.498L40.5293 88.3721L34.3359 81.709L30.8057 95.498ZM17.8887 87.9521C17.9069 87.9999 17.925 88.048 17.9434 88.0957L33.7656 81.2363L19.3838 72.1064L17.8887 87.9521ZM14.7783 71.3027C14.8105 76.8165 15.7835 82.106 17.5439 87.0205L18.9668 71.9189L14.7783 71.3027ZM90.9102 81.2324L99.1826 84.7188L104.711 72.3115L90.9102 81.2324ZM61.9873 25.6855C62.1418 25.6875 62.2961 25.6909 62.4502 25.6943L62.582 36.0176L62.873 36.1318L75.043 30.8525L66.624 25.9678C66.9883 26.0078 67.3512 26.0524 67.7129 26.1006L75.5352 30.6387L79.0898 29.0967C79.2763 29.1718 79.4622 29.2478 79.6475 29.3252L76 30.9082L80.9561 33.7832L81.8408 30.3076C81.9736 30.3712 82.1062 30.4352 82.2383 30.5L81.3447 34.0088L86.3154 36.8926L84.0176 31.4209C84.2216 31.532 84.4247 31.6447 84.627 31.7588L86.9346 37.252L93.9609 41.3281H93.1006L87.2119 37.9121L88.6465 41.3281H88.1787L86.5938 37.5537L81.2148 34.4336L78.8975 41.3281H78.4414L80.834 34.2119L75.5068 31.1221L63.4443 36.3555L76.1514 41.3281H74.9648L62.8818 36.5986L62.5908 36.7256L62.6895 44.4707V44.5459L62.6445 44.6055L62.4189 44.8984V47.5215L61.9873 47.9209V45.4609L60.3848 47.5479L60.0664 47.2529L61.9873 44.752V36.9873L51.9805 41.3281H50.8955L61.9873 36.5166V36.249L49.0322 31.1787L44.1387 34.0684L47.1836 41.3281H46.7148L43.7637 34.29L35.5947 39.1133L31.8428 41.3281H30.9922L35.3223 38.7715L39.4219 31.0625C39.6455 30.9453 39.87 30.8295 40.0957 30.7158L36.0352 38.3506L43.5947 33.8877L41.9033 29.8545C42.0346 29.7952 42.1659 29.7358 42.2979 29.6777L43.9707 33.666L48.5225 30.9795L43.6953 29.0898C43.8914 29.011 44.0878 28.9328 44.2852 28.8564L48.9951 30.7002L57.1826 25.8662C57.5079 25.8377 57.834 25.812 58.1611 25.79L49.5059 30.9004L61.9873 35.7842V25.6855Z" fill="url(#paint1_linear_226_3)"/>
<mask id="mask0_226_3" style="mask-type:luminance" maskUnits="userSpaceOnUse" x="14" y="23" width="97" height="96">
<path d="M17.0156 55.2041L30.667 67.8174H45.2686V106.434L56.4141 117.578L57.46 118.639C33.2506 116.258 14.336 95.845 14.3359 71.0127C14.3359 65.4708 15.281 60.1498 17.0137 55.1992L17.0156 55.2041ZM107.21 54.6904C109.058 59.7843 110.067 65.2806 110.067 71.0127C110.067 95.8449 91.1527 116.258 66.9434 118.639L67.9902 117.578L79.1357 106.434V67.8174H93.7373L107.21 54.6904ZM62.2012 23.1523C76.4319 23.1523 89.21 29.3646 97.9775 39.2217H70.0645L62.2021 46.5645L54.3408 39.2217H26.4248C35.1922 29.3644 47.9704 23.1525 62.2012 23.1523Z" fill="white"/>
</mask>
<g mask="url(#mask0_226_3)">
<path d="M17.0156 55.2041L15.8124 55.6854L15.9211 55.9572L16.1362 56.1559L17.0156 55.2041ZM30.667 67.8174L29.7875 68.7692L30.16 69.1133H30.667V67.8174ZM45.2686 67.8174H46.5645V66.5215H45.2686V67.8174ZM45.2686 106.434H43.9726V106.97L44.3522 107.35L45.2686 106.434ZM56.4141 117.578L57.3368 116.668L57.3304 116.662L56.4141 117.578ZM57.46 118.639L57.3331 119.928L60.8976 120.279L58.3827 117.729L57.46 118.639ZM17.0137 55.1992L18.2169 54.7179L16.9328 51.5076L15.7905 54.7711L17.0137 55.1992ZM107.21 54.6904L108.428 54.2484L107.743 52.3612L106.306 53.7622L107.21 54.6904ZM66.9434 118.639L66.0211 117.728L63.5031 120.279L67.0702 119.928L66.9434 118.639ZM67.9902 117.578L67.0739 116.662L67.068 116.668L67.9902 117.578ZM79.1357 106.434L80.0521 107.35L80.4317 106.97V106.434H79.1357ZM79.1357 67.8174V66.5215H77.8398V67.8174H79.1357ZM93.7373 67.8174V69.1133H94.2643L94.6417 68.7456L93.7373 67.8174ZM97.9775 39.2217V40.5176H100.865L98.9458 38.3604L97.9775 39.2217ZM70.0645 39.2217V37.9258H69.5534L69.1799 38.2746L70.0645 39.2217ZM62.2021 46.5645L61.3176 47.5115L62.2021 48.3377L63.0867 47.5116L62.2021 46.5645ZM54.3408 39.2217L55.2254 38.2746L54.8519 37.9258H54.3408V39.2217ZM26.4248 39.2217L25.4565 38.3604L23.5378 40.5176H26.4248V39.2217ZM17.0156 55.2041L16.1362 56.1559L29.7875 68.7692L30.667 67.8174L31.5464 66.8656L17.8951 54.2523L17.0156 55.2041ZM30.667 67.8174V69.1133H45.2686V67.8174V66.5215H30.667V67.8174ZM45.2686 67.8174H43.9726V106.434H45.2686H46.5645V67.8174H45.2686ZM45.2686 106.434L44.3522 107.35L55.4977 118.495L56.4141 117.578L57.3304 116.662L46.1849 105.517L45.2686 106.434ZM56.4141 117.578L55.4914 118.488L56.5373 119.549L57.46 118.639L58.3827 117.729L57.3368 116.668L56.4141 117.578ZM57.46 118.639L57.5868 117.349C34.0341 115.033 15.6319 95.1716 15.6319 71.0127H14.3359H13.04C13.0401 96.5183 32.4672 117.483 57.3331 119.928L57.46 118.639ZM14.3359 71.0127H15.6319C15.6319 65.6191 16.5515 60.4426 18.2368 55.6273L17.0137 55.1992L15.7905 54.7711C14.0105 59.8569 13.04 65.3225 13.04 71.0127H14.3359ZM17.0137 55.1992L15.8104 55.6805L15.8124 55.6854L17.0156 55.2041L18.2189 54.7228L18.2169 54.7179L17.0137 55.1992ZM107.21 54.6904L105.992 55.1324C107.789 60.0869 108.771 65.4338 108.771 71.0127H110.067H111.363C111.363 65.1275 110.327 59.4817 108.428 54.2484L107.21 54.6904ZM110.067 71.0127H108.771C108.771 95.1716 90.3692 115.033 66.8165 117.349L66.9434 118.639L67.0702 119.928C91.9361 117.483 111.363 96.5183 111.363 71.0127H110.067ZM66.9434 118.639L67.8656 119.549L68.9125 118.489L67.9902 117.578L67.068 116.668L66.0211 117.728L66.9434 118.639ZM67.9902 117.578L68.9065 118.495L80.0521 107.35L79.1357 106.434L78.2194 105.517L67.0739 116.662L67.9902 117.578ZM79.1357 106.434H80.4317V67.8174H79.1357H77.8398V106.434H79.1357ZM79.1357 67.8174V69.1133H93.7373V67.8174V66.5215H79.1357V67.8174ZM93.7373 67.8174L94.6417 68.7456L108.114 55.6186L107.21 54.6904L106.306 53.7622L92.8329 66.8892L93.7373 67.8174ZM62.2012 23.1523V24.4483C76.0463 24.4483 88.4771 30.4905 97.0092 40.083L97.9775 39.2217L98.9458 38.3604C89.943 28.2387 76.8176 21.8564 62.2012 21.8564V23.1523ZM97.9775 39.2217V37.9258H70.0645V39.2217V40.5176H97.9775V39.2217ZM70.0645 39.2217L69.1799 38.2746L61.3176 45.6173L62.2021 46.5645L63.0867 47.5116L70.949 40.1688L70.0645 39.2217ZM62.2021 46.5645L63.0867 45.6174L55.2254 38.2746L54.3408 39.2217L53.4562 40.1687L61.3176 47.5115L62.2021 46.5645ZM54.3408 39.2217V37.9258H26.4248V39.2217V40.5176H54.3408V39.2217ZM26.4248 39.2217L27.3931 40.0829C35.9252 30.4903 48.356 24.4484 62.2012 24.4483V23.1523V21.8564C47.5848 21.8566 34.4593 28.2385 25.4565 38.3604L26.4248 39.2217Z" fill="url(#paint2_linear_226_3)"/>
</g>
<path d="M109.892 35.9417L103.155 38.2744C102.085 36.7899 100.796 35.205 99.3537 33.8682M109.892 35.9417C104.377 28.4653 96.33 21.7232 84.9125 16.6287M109.892 35.9417C112.313 39.2241 114.245 42.6481 115.76 46.1363M99.3537 33.8682C91.0598 25.4015 83.2841 20.2179 67.9922 18.2308L65.5732 11.7512C71.3616 12.1831 80.2978 14.5696 84.9125 16.6287M99.3537 33.8682L100.463 29.8941C97.2958 27.0718 89.5046 21.4274 84.9125 19.8723V16.6287M115.76 46.1363C115.142 46.1363 113.599 47.3458 112.904 47.9506C114.425 49.6785 116.187 56.3885 116.878 59.5275L113.695 62.6377M115.76 46.1363C123.63 62.6377 120.693 85.9643 115.423 94.2582L109.807 91.148M113.695 62.6377C113.027 57.7132 111.116 51.7519 108.77 47.0866M113.695 62.6377C114.1 65.6186 114.469 68.5022 114.381 71.3636M114.381 71.3636C114.135 79.3119 111.368 86.8484 109.721 90.9752M114.381 71.3636L117.397 74.6466C116.912 78.7647 114.685 89.229 113.09 91.9937L111.103 95.2949" stroke="white" stroke-width="1.29592" stroke-linecap="square" stroke-linejoin="round"/>
<path d="M14.167 41.4707C15.6937 41.4709 16.9316 42.7086 16.9316 44.2354C16.9316 44.7623 16.7804 45.2528 16.5244 45.6719L32.6641 61.5566H45.3135V68.5977H44.0176V62.8525H32.1328L31.9434 62.666L15.6104 46.5889C15.1898 46.8474 14.6968 46.9999 14.167 47C12.6402 47 11.4025 45.7621 11.4023 44.2354C11.4023 42.7085 12.6401 41.4707 14.167 41.4707ZM14.167 42.8516C13.4038 42.8518 12.7852 43.4711 12.7852 44.2344C12.7854 44.9974 13.4039 45.616 14.167 45.6162C14.9302 45.6161 15.5495 44.9975 15.5498 44.2344C15.5498 43.471 14.9303 42.8517 14.167 42.8516Z" fill="#CDDEFA"/>
<path d="M110.282 41.8145C108.755 41.8146 107.518 43.0523 107.518 44.5791C107.518 45.1077 107.669 45.5996 107.927 46.0195L91.7881 61.9043H79.1387V68.9453H80.4346V63.2002H92.3193L92.5088 63.0137L108.844 46.9355C109.263 47.1922 109.754 47.3437 110.282 47.3438C111.809 47.3438 113.047 46.106 113.047 44.5791C113.047 43.0522 111.809 41.8145 110.282 41.8145ZM110.281 43.1953C111.045 43.1953 111.664 43.8147 111.664 44.5781C111.664 45.3414 111.045 45.96 110.281 45.96C109.518 45.9597 108.9 45.3413 108.899 44.5781C108.899 43.8149 109.518 43.1956 110.281 43.1953Z" fill="#C8E0FA"/>
<path d="M69.34 127.831C68.5869 127.562 68.0587 126.974 68.3124 126.046C68.3745 125.825 68.4783 125.615 68.6173 125.431C68.7562 125.246 68.9273 125.091 69.1199 124.974C70.0131 124.431 70.7615 124.884 71.1105 125.743C71.6739 125.583 72.4968 125.447 73.087 125.317C74.2466 125.064 75.401 124.769 76.5481 124.432C83.9589 122.245 89.6908 118.986 95.9575 114.13C94.2048 113.798 92.9347 113.679 91.1924 113.308C88.6235 115.082 86.0081 116.134 83.2175 117.485C82.5655 117.806 81.9049 118.103 81.2371 118.376C80.4952 118.681 79.4709 119.045 78.7629 119.443C78.5602 119.811 78.438 120.211 78.1722 120.553C77.6931 121.168 76.6627 121.226 76.1767 120.696C74.7835 119.177 77.0403 116.83 78.5117 118.668L78.5711 118.744C79.5492 118.312 80.5915 117.946 81.5799 117.503C84.4775 116.204 88.3895 114.536 90.9665 112.563C92.8752 113.036 94.6585 113.134 96.6141 113.552C99.4004 111.363 102.567 107.908 104.826 105.132C104.643 104.695 104.521 104.391 104.63 103.871C104.672 103.668 104.753 103.474 104.869 103.3C104.984 103.126 105.131 102.976 105.3 102.861C105.477 102.74 105.671 102.655 105.873 102.611C106.074 102.567 106.278 102.565 106.472 102.605C107.461 102.81 107.617 103.705 107.368 104.654C106.788 105.565 106.273 105.781 105.334 105.523C102.27 109.441 97.2845 114.313 93.2027 117.019L98.3042 118.231C103.855 113.528 107.287 109.898 111.494 103.768C111.087 103.105 110.955 102.225 111.633 101.588C111.955 101.29 112.365 101.127 112.774 101.137C112.992 101.143 113.203 101.198 113.393 101.297C113.582 101.396 113.747 101.537 113.876 101.712C113.975 101.845 114.044 102.002 114.079 102.172C114.113 102.342 114.111 102.521 114.075 102.697C113.84 103.863 113.033 104.291 112.016 104.112C108.424 109.896 103.413 114.623 98.4018 118.987C96.5539 118.441 94.3164 118.115 92.509 117.533C86.0776 121.822 78.5076 125.261 71.1488 126.404C70.8898 127.45 70.321 127.85 69.34 127.831Z" fill="white" stroke="white" stroke-width="0.518369"/>
<path d="M58.0279 14.4219C58.7652 14.7318 59.2603 15.3476 58.9562 16.26C58.882 16.4776 58.7669 16.6811 58.618 16.8577C58.4691 17.0343 58.2897 17.1802 58.091 17.2863C57.1694 17.7793 56.447 17.2862 56.1456 16.4091C55.5743 16.5383 54.7451 16.6293 54.1487 16.7259C52.977 16.9149 51.8081 17.1465 50.6443 17.4203C43.1247 19.1974 37.2227 22.1371 30.6991 26.6424C32.4309 27.0698 33.6926 27.258 35.4119 27.7246C38.0742 26.0941 40.7434 25.1867 43.6039 23.9905C44.2725 23.7062 44.9484 23.4459 45.6302 23.21C46.3877 22.9462 47.4304 22.6391 48.1592 22.28C48.3818 21.9241 48.5258 21.5306 48.8099 21.2042C49.322 20.616 50.354 20.6148 50.8102 21.1706C52.118 22.7639 49.7359 24.9833 48.3675 23.0678L48.3123 22.989C47.312 23.3664 46.2512 23.6741 45.2401 24.0625C42.2755 25.2013 38.278 26.6513 35.5966 28.4805C33.7167 27.903 31.9415 27.7081 30.0117 27.1833C27.1095 29.2163 23.7581 32.4922 21.3503 35.1401C21.5091 35.5861 21.6146 35.8965 21.4774 36.4104C21.4243 36.6102 21.3322 36.8 21.2072 36.9674C21.0822 37.1348 20.9271 37.2759 20.7521 37.3814C20.5692 37.4926 20.3704 37.5668 20.1672 37.5996C19.9639 37.6325 19.7603 37.6234 19.5679 37.573C18.592 37.3138 18.485 36.412 18.7857 35.4776C19.4149 34.5998 19.9409 34.4123 20.8647 34.7218C24.1391 30.9775 29.3841 26.387 33.6082 23.9088L28.5808 22.419C22.7801 26.8104 19.1549 30.2459 14.6179 36.1363C14.9878 36.8205 15.0707 37.7068 14.3592 38.3055C14.0209 38.5857 13.6027 38.7251 13.1955 38.6933C12.9777 38.6749 12.7703 38.609 12.5863 38.4998C12.4022 38.3905 12.2456 38.2403 12.1263 38.0585C12.0346 37.9199 11.9743 37.7594 11.9494 37.5879C11.9245 37.4164 11.9357 37.2378 11.9821 37.0641C12.28 35.9128 13.1095 35.5295 14.1156 35.764C18.0194 30.1863 23.2817 25.7409 28.5248 21.6585C30.34 22.3045 32.5562 22.7532 34.329 23.4335C40.986 19.5037 48.7332 16.4847 56.1436 15.7474C56.4596 14.7167 57.0494 14.3489 58.0279 14.4219Z" fill="white" stroke="white" stroke-width="0.518369"/>
<path d="M13.6512 105.401L20.3878 103.069C21.4578 104.553 22.7468 106.138 24.1892 107.475M13.6512 105.401C19.1654 112.878 27.2128 119.62 38.6304 124.714M13.6512 105.401C11.2303 102.119 9.29758 98.6949 7.78235 95.2067M24.1892 107.475C32.4831 115.941 40.1724 121.212 55.4642 123.199L56.6736 129.419C50.8851 128.987 43.2451 126.773 38.6304 124.714M24.1892 107.475L23.0793 111.449C26.2471 114.271 33.7923 120.175 38.6304 121.212V124.714M7.78235 95.2067C8.40034 95.2067 9.94392 93.9972 10.6385 93.3924C9.11791 91.6645 7.35546 84.9545 6.6643 81.8155L9.84764 78.7053M7.78235 95.2067C-0.0876026 78.7053 2.85035 54.8603 8.12013 46.5664L12.958 51.5773C11.3103 55.7041 9.40806 62.0311 9.1621 69.9794M9.84764 78.7053C10.516 83.6298 12.0939 88.7271 14.4398 93.3924M9.84764 78.7053C9.44308 75.7244 9.07355 72.8407 9.1621 69.9794M9.1621 69.9794L6.14593 66.6964C6.63064 62.5782 8.85734 52.1139 10.4528 49.3493" stroke="white" stroke-width="1.29592" stroke-linecap="square" stroke-linejoin="round"/>
<defs>
<radialGradient id="paint0_radial_226_3" cx="0" cy="0" r="1" gradientUnits="userSpaceOnUse" gradientTransform="translate(121.903 68.8022) rotate(-179.739) scale(132.963)">
<stop stop-color="#260B68"/>
<stop offset="0.485577" stop-color="#65A3EC"/>
<stop offset="1" stop-color="#1D0225"/>
</radialGradient>
<linearGradient id="paint1_linear_226_3" x1="14.3477" y1="80.3587" x2="108.422" y2="80.3587" gradientUnits="userSpaceOnUse">
<stop stop-color="#4A5ED7"/>
<stop offset="0.504808" stop-color="#4D5DD7"/>
<stop offset="1" stop-color="#C231CA"/>
</linearGradient>
<linearGradient id="paint2_linear_226_3" x1="62.2017" y1="23.1523" x2="62.2017" y2="118.639" gradientUnits="userSpaceOnUse">
<stop stop-color="#A5F4FB"/>
<stop offset="1" stop-color="#F3C8F9"/>
</linearGradient>
</defs>
</svg>
