<svg width="220" height="43" viewBox="0 0 220 43" fill="none" xmlns="http://www.w3.org/2000/svg">
<path d="M0.509766 0.90625H8.72266H8.89258C9.00586 0.90625 9.0625 0.981771 9.0625 1.13281V1.41602C8.98698 6.09831 8.94922 12.0267 8.94922 19.2012C8.94922 22.1465 8.94922 25.4505 8.94922 29.1133C8.98698 32.7383 9.00586 34.9284 9.00586 35.6836C9.00586 38.7799 8.89258 40.3281 8.66602 40.3281L0.566406 40.6113H0.283203C0.094401 40.6113 0 40.4792 0 40.2148C0.302083 34.513 0.453125 28.207 0.453125 21.2969C0.453125 18.5404 0.434245 15.1797 0.396484 11.2148C0.358724 7.25 0.339844 4.83333 0.339844 3.96484C0.339844 1.92578 0.396484 0.90625 0.509766 0.90625ZM34.5508 12.6309V0.679688C34.6641 0.226562 34.7773 0 34.8906 0H40.0449C40.3092 0 40.4414 0.113281 40.4414 0.339844V0.679688L39.7051 38.459C39.7051 38.6478 39.4219 38.8743 38.8555 39.1387C38.3268 39.3652 37.6094 39.5729 36.7031 39.7617C35.8346 39.9505 34.985 40.0449 34.1543 40.0449C32.7194 40.0449 31.6621 39.5729 30.9824 38.6289C28.4525 33.3047 26.3757 28.8112 24.752 25.1484C23.1283 21.4857 22.1276 19.1634 21.75 18.1816C21.3724 17.1999 21.0137 16.4069 20.6738 15.8027C20.3717 15.1608 19.9186 14.4245 19.3145 13.5938C19.0879 13.8958 18.9746 23.1094 18.9746 41.2344C18.9746 41.4987 18.9746 41.6497 18.9746 41.6875C18.9746 41.763 18.9368 41.8197 18.8613 41.8574C18.7858 41.9329 18.6536 41.9707 18.4648 41.9707H17.3887C13.7637 41.9707 11.9512 41.4987 11.9512 40.5547L12.1777 3.28516C12.1777 2.68099 12.1966 2.36003 12.2344 2.32227C12.3099 2.28451 12.5931 2.30339 13.084 2.37891L18.8613 3.28516C20.4095 3.58724 22.1842 3.73828 24.1855 3.73828C25.054 3.73828 26.2057 5.5319 27.6406 9.11914C29.0755 12.7064 30.416 16.2936 31.6621 19.8809C32.9082 23.4303 33.7389 25.2051 34.1543 25.2051C34.4186 25.2051 34.5508 21.0137 34.5508 12.6309ZM58.793 24.4688C58.9818 24.4688 59.1517 24.2233 59.3027 23.7324C59.4538 23.2793 59.6426 22.4863 59.8691 21.3535C60.0957 20.2207 60.3223 18.8047 60.5488 17.1055C60.8132 15.4062 61.0397 13.8014 61.2285 12.291C61.4551 10.7428 61.7005 8.9681 61.9648 6.9668C62.2292 4.92773 62.4368 3.39844 62.5879 2.37891C62.7389 1.73698 62.8522 1.32161 62.9277 1.13281C63.041 0.90625 63.2109 0.736328 63.4375 0.623047C63.7018 0.472005 64.0983 0.396484 64.627 0.396484H65.4766L72.0469 0.566406C72.6133 0.566406 72.8965 0.679688 72.8965 0.90625C72.8965 1.01953 72.8021 1.35938 72.6133 1.92578C71.556 5.51302 70.2344 10.3086 68.6484 16.3125C67.1003 22.2786 65.7975 27.3763 64.7402 31.6055L63.1543 37.8926C62.7389 39.0632 62.4557 39.7806 62.3047 40.0449C62.1536 40.2715 61.946 40.3848 61.6816 40.3848H56.4707C56.1309 40.3848 55.8854 40.3092 55.7344 40.1582C55.5833 39.9694 55.3757 39.4785 55.1113 38.6855L52.959 30.1895C49.6738 17.7663 47.2949 11.5547 45.8223 11.5547L44.0098 11.498C43.4811 11.498 43.1413 11.4225 42.9902 11.2715C42.877 11.0827 42.8203 10.5918 42.8203 9.79883V4.13477C42.8203 3.37956 42.9147 2.92643 43.1035 2.77539C43.2923 2.62435 43.821 2.54883 44.6895 2.54883H51.7695C52.1471 2.54883 52.3926 2.62435 52.5059 2.77539C52.6191 2.88867 52.7702 3.22852 52.959 3.79492C53.4499 6.02279 54.3561 9.61003 55.6777 14.5566C57.0371 19.5033 57.9245 22.6185 58.3398 23.9023C58.4909 24.2799 58.6419 24.4688 58.793 24.4688ZM80.0332 25.8848C79.7689 25.8848 79.6367 26.6589 79.6367 28.207C79.6367 29.3776 79.8066 29.9629 80.1465 29.9629C81.3171 30.1139 82.7142 30.1895 84.3379 30.1895C85.4329 30.1895 87.1322 30.1517 89.4355 30.0762C91.7389 29.9629 93.4759 29.9062 94.6465 29.9062C95.0618 29.9062 95.2884 29.9251 95.3262 29.9629C95.3639 30.0007 95.4017 30.1895 95.4395 30.5293L96.1758 39.252C96.2135 39.6673 96.2135 39.9316 96.1758 40.0449C96.138 40.1204 96.0247 40.1582 95.8359 40.1582H95.5527L75.6719 39.9883C75.0299 39.6107 74.6901 39.3652 74.6523 39.252V37.6094C74.6523 35.2305 74.6146 31.1712 74.5391 25.4316C74.4635 19.6543 74.4258 15.3118 74.4258 12.4043C74.4258 8.59049 74.4824 5.13542 74.5957 2.03906C74.5957 1.73698 74.6146 1.56706 74.6523 1.5293C74.6901 1.49154 74.8789 1.47266 75.2188 1.47266L96.5156 1.01953H96.7422C96.931 1.01953 97.0443 1.05729 97.082 1.13281C97.1198 1.20833 97.1387 1.39714 97.1387 1.69922V10.8184C97.1387 10.9316 97.1198 11.026 97.082 11.1016C97.0443 11.1393 96.9121 11.1771 96.6855 11.2148C96.459 11.2526 96.1003 11.2904 95.6094 11.3281C95.1185 11.3281 94.4388 11.3281 93.5703 11.3281C92.6641 11.3281 90.776 11.3092 87.9062 11.2715C85.0742 11.2337 82.4876 11.196 80.1465 11.1582C79.7311 11.1582 79.5234 12.1022 79.5234 13.9902C79.5234 15.6517 79.6745 16.4824 79.9766 16.4824L96.2324 16.4258C96.2702 16.4258 96.3457 16.4258 96.459 16.4258C96.8366 16.4258 97.0443 16.4824 97.082 16.5957C97.082 16.6335 97.0632 16.709 97.0254 16.8223C97.0254 16.9355 97.0254 17.0299 97.0254 17.1055L96.6289 24.4121C96.5911 24.9785 96.5156 25.2806 96.4023 25.3184C96.2891 25.3561 95.9115 25.3939 95.2695 25.4316L80.0332 25.8848ZM122.344 12.6309V0.679688C122.457 0.226562 122.57 0 122.684 0H127.838C128.102 0 128.234 0.113281 128.234 0.339844V0.679688L127.498 38.459C127.498 38.6478 127.215 38.8743 126.648 39.1387C126.12 39.3652 125.402 39.5729 124.496 39.7617C123.628 39.9505 122.778 40.0449 121.947 40.0449C120.512 40.0449 119.455 39.5729 118.775 38.6289C116.245 33.3047 114.169 28.8112 112.545 25.1484C110.921 21.4857 109.921 19.1634 109.543 18.1816C109.165 17.1999 108.807 16.4069 108.467 15.8027C108.165 15.1608 107.712 14.4245 107.107 13.5938C106.881 13.8958 106.768 23.1094 106.768 41.2344C106.768 41.4987 106.768 41.6497 106.768 41.6875C106.768 41.763 106.73 41.8197 106.654 41.8574C106.579 41.9329 106.447 41.9707 106.258 41.9707H105.182C101.557 41.9707 99.7441 41.4987 99.7441 40.5547L99.9707 3.28516C99.9707 2.68099 99.9896 2.36003 100.027 2.32227C100.103 2.28451 100.386 2.30339 100.877 2.37891L106.654 3.28516C108.202 3.58724 109.977 3.73828 111.979 3.73828C112.847 3.73828 113.999 5.5319 115.434 9.11914C116.868 12.7064 118.209 16.2936 119.455 19.8809C120.701 23.4303 121.532 25.2051 121.947 25.2051C122.212 25.2051 122.344 21.0137 122.344 12.6309ZM146.756 12.8574C146.756 14.2546 146.737 17.0299 146.699 21.1836C146.699 25.3372 146.699 28.6035 146.699 30.9824C146.699 35.3626 146.718 38.4779 146.756 40.3281C146.718 41.0078 146.643 41.4232 146.529 41.5742C146.416 41.763 146.189 41.8574 145.85 41.8574H145.227C144.924 41.8197 144.66 41.8008 144.434 41.8008C142.697 41.8008 141.677 41.8197 141.375 41.8574H140.695C140.355 41.8574 140.129 41.763 140.016 41.5742C139.94 41.4232 139.883 41.0078 139.846 40.3281C139.808 38.7799 139.789 29.623 139.789 12.8574H131.689C131.35 12.8574 131.142 12.763 131.066 12.5742C130.991 12.3854 130.934 11.9323 130.896 11.2148L130.613 2.0957C130.613 1.68034 130.67 1.41602 130.783 1.30273C130.934 1.18945 131.236 1.13281 131.689 1.13281C133.426 1.13281 135.39 1.17057 137.58 1.24609C139.808 1.28385 141.337 1.30273 142.168 1.30273C151.004 1.18945 155.497 1.13281 155.648 1.13281C156.102 1.13281 156.385 1.18945 156.498 1.30273C156.611 1.37826 156.668 1.64258 156.668 2.0957L156.385 11.2148C156.385 11.2904 156.385 11.4036 156.385 11.5547C156.347 12.3099 156.215 12.7253 155.988 12.8008C155.913 12.8385 155.799 12.8574 155.648 12.8574C155.12 12.7441 153.232 12.6875 149.984 12.6875C147.832 12.6875 146.756 12.7441 146.756 12.8574ZM178.021 38.8555C177.984 38.138 177.965 37.5716 177.965 37.1562C177.965 35.2305 177.757 33.6068 177.342 32.2852C176.964 30.9258 176.492 29.9062 175.926 29.2266C175.359 28.5091 174.529 27.9616 173.434 27.584C172.339 27.2064 171.338 26.9798 170.432 26.9043C169.525 26.8288 168.298 26.791 166.75 26.791C166.523 26.791 166.448 27.0742 166.523 27.6406V38.5723C166.523 39.3652 166.448 39.8561 166.297 40.0449C166.146 40.2337 165.787 40.347 165.221 40.3848L160.576 40.498H160.406C159.878 40.498 159.519 40.3659 159.33 40.1016C159.179 39.7995 159.104 39.252 159.104 38.459C159.217 27.9993 159.273 16.0482 159.273 2.60547C159.273 1.6237 159.33 1.03841 159.443 0.849609C159.594 0.660807 160.048 0.566406 160.803 0.566406L171.225 0.283203C172.546 0.283203 173.585 0.302083 174.34 0.339844C175.095 0.339844 175.982 0.396484 177.002 0.509766C178.021 0.585286 178.814 0.717448 179.381 0.90625C179.947 1.05729 180.589 1.28385 181.307 1.58594C182.062 1.88802 182.628 2.26562 183.006 2.71875C183.383 3.13411 183.78 3.66276 184.195 4.30469C184.648 4.94661 184.969 5.70182 185.158 6.57031C185.347 7.4388 185.498 8.43945 185.611 9.57227C185.762 10.6673 185.838 11.9134 185.838 13.3105C185.838 18.6725 184.309 22.071 181.25 23.5059C180.23 23.959 179.721 24.3932 179.721 24.8086C179.721 25.1862 180.174 25.6771 181.08 26.2812C181.911 26.8477 182.609 27.9616 183.176 29.623C183.742 31.2467 184.025 32.946 184.025 34.7207L184.252 39.1953C184.252 39.3464 184.252 39.5163 184.252 39.7051C184.29 39.8561 184.309 39.9505 184.309 39.9883C184.309 40.2148 184.063 40.3281 183.572 40.3281H182.893H179.211H178.814C178.475 40.3281 178.248 40.2904 178.135 40.2148C178.059 40.1016 178.021 39.8372 178.021 39.4219V38.8555ZM171.848 12.4043H167.203C166.863 12.4043 166.656 12.4609 166.58 12.5742C166.505 12.6875 166.467 12.9896 166.467 13.4805V20.2773C166.467 20.957 166.674 21.2969 167.09 21.2969H172.131C174.321 21.2969 176.266 20.8626 177.965 19.9941C179.664 19.0879 180.514 17.8984 180.514 16.4258C180.514 15.6706 180.344 15.0286 180.004 14.5C179.702 13.9714 179.324 13.5749 178.871 13.3105C178.456 13.0462 177.795 12.8385 176.889 12.6875C176.02 12.5365 175.265 12.4609 174.623 12.4609C173.981 12.4232 173.056 12.4043 171.848 12.4043ZM198.242 1.75586C198.431 1.00065 198.922 0.623047 199.715 0.623047H200.395C200.508 0.623047 200.621 0.623047 200.734 0.623047C200.848 0.623047 200.98 0.641927 201.131 0.679688C201.32 0.679688 201.716 0.679688 202.32 0.679688C202.924 0.679688 203.717 0.679688 204.699 0.679688C205.492 0.679688 205.945 0.717448 206.059 0.792969C206.21 0.86849 206.342 1.11393 206.455 1.5293C208.305 8.43945 212.535 21.8066 219.143 41.6309C219.18 41.7441 219.218 41.8385 219.256 41.9141C219.294 42.0273 219.331 42.1029 219.369 42.1406C219.407 42.2161 219.426 42.2728 219.426 42.3105C219.464 42.3861 219.482 42.4427 219.482 42.4805C219.482 42.6315 219.237 42.707 218.746 42.707H213.479C213.063 42.707 212.799 42.6693 212.686 42.5938C212.572 42.5182 212.44 42.2728 212.289 41.8574C211.647 40.1204 210.401 36.1745 208.551 30.0195C208.4 29.4909 206.266 29.2266 202.15 29.2266C198.223 29.2266 196.184 29.5286 196.033 30.1328L193.484 39.4219C193.447 39.4974 193.39 39.6296 193.314 39.8184C193.277 39.9694 193.239 40.0638 193.201 40.1016C193.201 40.1393 193.163 40.196 193.088 40.2715C193.05 40.347 192.975 40.3848 192.861 40.3848C192.786 40.4225 192.673 40.4414 192.521 40.4414H186.801C186.461 40.4414 186.291 40.347 186.291 40.1582C186.291 39.9316 186.367 39.6484 186.518 39.3086C188.632 33.6823 190.294 28.9434 191.502 25.0918C192.748 21.2025 193.956 17.0677 195.127 12.6875C196.335 8.30729 197.374 4.66341 198.242 1.75586ZM202.83 11.1016H200.734C200.508 11.1016 200.357 11.1393 200.281 11.2148C200.206 11.2526 200.149 11.4225 200.111 11.7246L198.752 18.2949C198.714 18.4837 198.695 18.6725 198.695 18.8613C198.695 19.0124 198.79 19.0879 198.979 19.0879H205.266C205.454 19.0879 205.549 19.0312 205.549 18.918L205.436 18.4648L203.34 11.7246C203.189 11.3092 203.019 11.1016 202.83 11.1016Z" fill="#C231C9"/>
</svg>
