<svg width="331" height="33" viewBox="0 0 331 33" fill="none" xmlns="http://www.w3.org/2000/svg">
<path d="M0 5.126e-05H9.29899V4.64955H13.9485V9.29904H18.598V4.64955H23.2475V5.126e-05H32.5465V32.5465H23.2475V18.598H18.598V23.2475H13.9485V18.598H9.29899V32.5465H0V5.126e-05ZM37.1836 5.126e-05H69.7301V4.64955H46.4826V13.9485H65.0806V18.598H46.4826V27.897H69.7301V32.5465H37.1836V5.126e-05ZM83.6662 5.126e-05H102.264V4.64955H106.914V9.29904H97.6147V4.64955H88.3157V9.29904H83.6662V23.2475H88.3157V27.897H97.6147V23.2475H106.914V27.897H102.264V32.5465H83.6662V27.897H79.0167V23.2475H74.3672V9.29904H79.0167V4.64955H83.6662V5.126e-05ZM111.551 5.126e-05H120.85V13.9485H134.798V5.126e-05H144.097V32.5465H134.798V18.598H120.85V32.5465H111.551V5.126e-05ZM158.033 5.126e-05H171.982V4.64955H176.631V9.29904H181.281V32.5465H171.982V23.2475H158.033V32.5465H148.734V9.29904H153.384V4.64955H158.033V5.126e-05ZM162.683 4.64955V9.29904H158.033V18.598H171.982V9.29904H167.332V4.64955H162.683ZM185.918 5.126e-05H213.815V4.64955H218.464V18.598H209.165V23.2475H213.815V27.897H218.464V32.5465H204.516V27.897H199.866V23.2475H195.217V32.5465H185.918V5.126e-05ZM195.217 4.64955V18.598H204.516V13.9485H209.165V4.64955H195.217ZM223.102 5.126e-05H255.648V4.64955H232.401V13.9485H250.999V18.598H232.401V27.897H255.648V32.5465H223.102V5.126e-05ZM260.285 5.126e-05H269.584V4.64955H274.234V9.29904H278.883V13.9485H283.533V5.126e-05H292.832V32.5465H283.533V27.897H278.883V23.2475H274.234V18.598H269.584V32.5465H260.285V5.126e-05ZM306.768 5.126e-05H320.716V4.64955H325.366V9.29904H330.015V32.5465H320.716V23.2475H306.768V32.5465H297.469V9.29904H302.118V4.64955H306.768V5.126e-05ZM311.417 4.64955V9.29904H306.768V18.598H320.716V9.29904H316.067V4.64955H311.417Z" fill="#C231C9"/>
</svg>
