<svg width="147" height="19" viewBox="0 0 147 19" fill="none" xmlns="http://www.w3.org/2000/svg">
<path d="M1.04012 5.278H0.000117197L1.04012 0.598001H5.72012C6.29212 0.598001 6.78612 0.624001 7.20212 0.676002C7.63545 0.710668 8.01678 0.771335 8.34612 0.858002C8.67545 0.944669 8.97012 1.066 9.23012 1.222C9.49012 1.36067 9.75012 1.54267 10.0101 1.768C10.6861 2.37467 11.2061 3.15467 11.5701 4.108C11.9515 5.06134 12.1421 6.11 12.1421 7.254C12.1421 8.606 11.8995 9.81934 11.4141 10.894C10.9288 11.9513 10.2701 12.74 9.43812 13.26C8.58878 13.8147 7.34945 14.092 5.72012 14.092V17.94H1.04012V5.278ZM5.90212 9.594C6.38745 9.594 6.78612 9.386 7.09812 8.97C7.41012 8.53667 7.56612 7.99067 7.56612 7.332C7.56612 5.928 6.95078 5.18267 5.72012 5.096V9.594H5.90212ZM13.8116 5.278H12.7716L13.8116 0.598001H18.9336C19.6616 0.598001 20.2943 0.632668 20.8316 0.702001C21.3689 0.754002 21.8456 0.849335 22.2616 0.988002C22.6776 1.12667 23.0416 1.30867 23.3536 1.534C23.6829 1.75933 23.9949 2.03667 24.2896 2.366C25.2603 3.49267 25.7456 5.018 25.7456 6.942C25.7456 9.66334 24.8963 11.466 23.1976 12.35L25.7196 17.94H20.3636L18.7516 12.948H18.4916V17.94H13.8116V5.278ZM18.4916 5.122V9.178C18.5609 9.19534 18.6303 9.204 18.6996 9.204C18.7689 9.204 18.8209 9.204 18.8556 9.204C19.4796 9.204 19.9563 9.022 20.2856 8.658C20.6323 8.294 20.8056 7.78267 20.8056 7.124C20.8056 5.78934 20.1469 5.122 18.8296 5.122H18.4916ZM34.1005 0.338001C35.3485 0.338001 36.5099 0.676002 37.5845 1.352C38.6592 2.01067 39.5259 2.938 40.1845 4.134C40.5659 4.79267 40.8519 5.564 41.0425 6.448C41.2505 7.332 41.3545 8.268 41.3545 9.256C41.3545 11.8733 40.7045 13.9793 39.4045 15.574C38.7112 16.4233 37.9052 17.0733 36.9865 17.524C36.0852 17.9747 35.1145 18.2 34.0745 18.2C32.4799 18.2 31.0672 17.6627 29.8365 16.588C27.8605 14.924 26.8725 12.4367 26.8725 9.126C26.8725 6.61267 27.5225 4.55867 28.8225 2.964C29.5159 2.132 30.3219 1.49067 31.2405 1.04C32.1592 0.572001 33.1125 0.338001 34.1005 0.338001ZM34.1005 5.096C33.3725 5.096 32.8092 5.46867 32.4105 6.214C32.0119 6.95934 31.8125 7.982 31.8125 9.282C31.8125 10.6513 32.0119 11.7173 32.4105 12.48C32.8265 13.2253 33.3985 13.598 34.1265 13.598C34.8545 13.598 35.4179 13.2253 35.8165 12.48C36.2152 11.7173 36.4145 10.6773 36.4145 9.36C36.4145 8.008 36.2065 6.95934 35.7905 6.214C35.3919 5.46867 34.8285 5.096 34.1005 5.096ZM42.7242 13.078C42.9669 13.3033 43.1835 13.468 43.3742 13.572C43.5822 13.6587 43.8075 13.702 44.0502 13.702C44.4835 13.702 44.7782 13.5113 44.9342 13.13C45.0902 12.7313 45.1682 11.9947 45.1682 10.92V5.278H41.8402L42.9322 0.598001H49.8482V10.582C49.8482 11.362 49.8395 11.986 49.8222 12.454C49.8222 12.9047 49.8049 13.286 49.7702 13.598C49.7529 13.91 49.7095 14.1787 49.6402 14.404C49.5882 14.6293 49.5102 14.8893 49.4062 15.184C49.0769 16.12 48.5135 16.8567 47.7162 17.394C46.9362 17.9313 46.0262 18.2 44.9862 18.2C43.8942 18.2 42.8455 17.9227 41.8402 17.368L42.7242 13.078ZM52.1007 5.278H51.0607L52.1007 0.598001H58.0287V9.53674e-07H62.1627L60.9927 5.278H56.7807V7.358H61.7987L60.9927 11.18H56.7807V13.26H61.7987L60.7587 17.94H52.1007V5.278ZM75.3473 16.094C73.7526 17.498 72.08 18.2 70.3293 18.2C69.2893 18.2 68.2926 17.9487 67.3393 17.446C66.386 16.9433 65.58 16.224 64.9213 15.288C63.812 13.7627 63.2573 11.8387 63.2573 9.516C63.2573 7.8 63.526 6.27467 64.0633 4.94C64.618 3.60534 65.3893 2.53934 66.3773 1.742C66.932 1.29133 67.5386 0.944668 68.1973 0.702001C68.856 0.459335 69.5146 0.338001 70.1733 0.338001C70.416 0.338001 70.65 0.355335 70.8753 0.390002C71.1006 0.424668 71.3953 0.485335 71.7593 0.572001L72.0193 0.0260022L75.5033 1.638L73.5533 6.812C73.1026 6.20533 72.6606 5.772 72.2273 5.512C71.8113 5.23467 71.326 5.096 70.7713 5.096C69.0553 5.096 68.1973 6.50867 68.1973 9.334C68.1973 10.686 68.4053 11.7347 68.8213 12.48C69.2373 13.2253 69.818 13.598 70.5633 13.598C71.6553 13.598 72.652 12.8353 73.5533 11.31L75.3473 16.094ZM78.2091 5.278H75.7651L76.8051 0.598001H82.1611L82.3171 9.53674e-07H86.3731L85.2031 5.278H82.8891V17.94H78.2091V5.278ZM94.9346 5.278H93.8946L94.9346 0.598001H100.863V9.53674e-07H104.997L103.827 5.278H99.6146V7.358H104.633L103.827 11.18H99.6146V13.26H104.633L103.593 17.94H94.9346V5.278ZM109.497 8.866L105.701 0.598001H110.875L112.383 4.68L113.891 0.598001H119.065L115.295 8.866L119.481 17.94H114.125L112.383 13.104L110.641 17.94H105.285L109.497 8.866ZM120.401 5.278H119.361L120.401 0.598001H125.081C125.653 0.598001 126.147 0.624001 126.563 0.676002C126.997 0.710668 127.378 0.771335 127.707 0.858002C128.037 0.944669 128.331 1.066 128.591 1.222C128.851 1.36067 129.111 1.54267 129.371 1.768C130.047 2.37467 130.567 3.15467 130.931 4.108C131.313 5.06134 131.503 6.11 131.503 7.254C131.503 8.606 131.261 9.81934 130.775 10.894C130.29 11.9513 129.631 12.74 128.799 13.26C127.95 13.8147 126.711 14.092 125.081 14.092V17.94H120.401V5.278ZM125.263 9.594C125.749 9.594 126.147 9.386 126.459 8.97C126.771 8.53667 126.927 7.99067 126.927 7.332C126.927 5.928 126.312 5.18267 125.081 5.096V9.594H125.263ZM139.751 0.338001C140.999 0.338001 142.16 0.676002 143.235 1.352C144.31 2.01067 145.176 2.938 145.835 4.134C146.216 4.79267 146.502 5.564 146.693 6.448C146.901 7.332 147.005 8.268 147.005 9.256C147.005 11.8733 146.355 13.9793 145.055 15.574C144.362 16.4233 143.556 17.0733 142.637 17.524C141.736 17.9747 140.765 18.2 139.725 18.2C138.13 18.2 136.718 17.6627 135.487 16.588C133.511 14.924 132.523 12.4367 132.523 9.126C132.523 6.61267 133.173 4.55867 134.473 2.964C135.166 2.132 135.972 1.49067 136.891 1.04C137.81 0.572001 138.763 0.338001 139.751 0.338001ZM139.751 5.096C139.023 5.096 138.46 5.46867 138.061 6.214C137.662 6.95934 137.463 7.982 137.463 9.282C137.463 10.6513 137.662 11.7173 138.061 12.48C138.477 13.2253 139.049 13.598 139.777 13.598C140.505 13.598 141.068 13.2253 141.467 12.48C141.866 11.7173 142.065 10.6773 142.065 9.36C142.065 8.008 141.857 6.95934 141.441 6.214C141.042 5.46867 140.479 5.096 139.751 5.096Z" fill="white"/>
</svg>
