<svg width="177" height="24" viewBox="0 0 177 24" fill="none" xmlns="http://www.w3.org/2000/svg">
<path d="M41.6 6.68799C41.76 6.75199 41.856 6.81599 41.792 6.97599C41.76 7.10399 41.664 7.19999 41.472 7.19999C40.928 7.19999 38.208 7.19999 37.312 7.19999C37.088 7.19999 36.928 7.16799 36.896 6.94399C36.832 6.71999 37.056 6.71999 37.216 6.65599C37.696 6.43199 37.888 5.82399 37.632 5.15199C37.312 4.19199 36.736 3.83999 35.712 3.74399C33.888 3.77599 10.08 3.74399 7.67995 3.74399C7.10395 3.71199 6.49595 3.71199 5.91995 3.87199C5.66395 3.93599 5.43995 4.15999 5.47195 4.44799C5.50395 5.21599 6.87995 6.01599 8.95995 6.65599C19.904 9.75999 35.04 12.16 38.24 14.496C38.848 14.944 39.392 15.392 39.872 15.936C40.032 16.128 40.192 16.32 40.32 16.544C41.152 17.888 41.312 19.392 41.12 20.896C40.96 22.304 40.064 23.04 38.752 23.392C38.368 23.52 37.952 23.584 37.536 23.584C35.104 23.552 7.55195 23.584 6.52795 23.616C3.96795 23.616 2.07995 22.4 1.31195 20.704C0.831953 19.616 1.05595 17.728 0.767953 17.44C0.479953 17.12 -4.68493e-05 17.088 0.0319532 16.832C0.0319532 16.672 0.127953 16.608 0.383953 16.576H4.79995C4.95995 16.608 5.34395 16.576 5.37595 16.768C5.43995 16.992 5.11995 17.12 4.95995 17.184C4.35195 17.472 4.31995 17.888 4.51195 18.688C4.76795 19.648 5.40795 20 6.43195 20.064C7.51995 20.16 35.84 20.128 36.384 20C36.928 19.84 37.088 19.328 36.8 18.88C36.128 17.92 35.168 17.344 34.176 16.832C29.408 14.56 12.704 12.16 4.83195 9.11999C3.99995 8.76799 3.23195 8.35199 2.52795 7.77599C1.59995 6.97599 1.40795 6.33599 1.18395 5.15199C0.991953 4.22399 1.11995 2.97599 1.50395 2.07999C1.82395 1.37599 2.39995 0.895992 3.10395 0.607992C4.41595 0.095993 5.75995 0.319992 7.07195 0.287992L36.256 0.255993C37.92 0.255993 39.52 1.18399 40.288 2.68799C40.8 3.74399 41.024 4.89599 40.992 5.69599C40.992 6.20799 41.088 6.49599 41.6 6.68799ZM82.071 1.50399C82.487 2.11199 82.519 2.81599 82.583 3.51999C82.583 7.35999 79.287 9.79199 75.863 11.904C72.695 13.664 70.551 13.792 66.455 14.08C63.895 14.272 50.839 14.24 50.551 14.24C49.655 14.176 49.239 14.528 49.207 15.424C49.143 16.704 49.175 20.192 49.143 21.76C49.079 22.432 49.463 22.88 50.071 23.136C50.327 23.2 50.423 23.488 50.071 23.488C49.399 23.488 45.751 23.456 44.695 23.488C44.375 23.52 44.247 23.264 44.631 23.104C45.367 22.816 45.463 22.24 45.463 21.568C45.463 21.568 45.495 2.39999 45.463 1.75999C45.399 1.11999 45.143 0.607992 44.567 0.351992C44.503 0.319992 44.375 0.319992 44.407 0.159992C44.407 0.031992 44.535 -7.62939e-06 44.631 -7.62939e-06C45.495 -7.62939e-06 46.231 -7.62939e-06 47.191 -7.62939e-06H79.095C80.279 0.031992 81.303 0.479992 82.071 1.50399ZM77.655 5.88799C77.879 5.59999 78.519 4.60799 78.295 4.12799C78.071 3.64799 77.655 3.67999 77.239 3.61599C77.207 3.61599 77.175 3.61599 77.143 3.61599C76.375 3.55199 75.607 3.61599 74.839 3.61599C72.567 3.61599 70.263 3.58399 67.991 3.61599C63.255 3.64799 58.519 3.55199 53.783 3.67999C52.599 3.67999 51.415 3.58399 50.231 3.71199C49.687 3.74399 49.303 4.15999 49.271 4.63999C49.239 5.15199 49.239 8.67199 49.239 8.95999C49.239 9.21599 49.207 9.50399 49.527 9.79199C49.847 10.08 50.199 10.208 50.647 10.24C51.895 10.336 67.287 11.456 72.087 9.66399C72.983 9.37599 75.927 8.35199 77.655 5.88799ZM92.4842 0.639992C91.3962 0.895992 91.5562 1.91999 91.5562 2.68799C91.5562 3.10399 91.5562 7.42399 91.5562 11.808V11.904V21.824C91.5882 22.368 91.6202 22.784 92.2922 23.072C92.6122 23.2 92.5802 23.456 92.2282 23.456H86.8202C86.4682 23.456 86.5322 23.168 86.8202 23.104C87.9082 22.848 87.7482 21.824 87.7162 21.024C87.7162 20.608 87.7162 16.32 87.7162 11.904V11.808L87.7482 1.88799C87.7162 1.34399 87.6522 0.959993 87.0122 0.671993C86.6602 0.543993 86.6922 0.287992 87.0442 0.287992H92.4522C92.8362 0.287992 92.7402 0.575993 92.4842 0.639992ZM132.56 0.703993C132.016 0.895992 131.856 1.40799 131.856 1.88799C131.856 2.91199 131.824 20.864 131.824 21.792C131.856 22.496 131.856 22.944 132.624 23.104C132.912 23.168 132.848 23.52 132.624 23.52H127.152C126.896 23.52 126.864 23.168 127.248 23.072C127.28 23.072 127.312 23.072 127.344 23.04C127.728 22.944 127.888 22.464 127.664 22.144C124.144 17.152 109.936 5.91999 102.48 5.82399C101.904 5.72799 101.584 5.98399 101.552 6.59199C101.552 7.67999 101.392 20.704 101.424 21.632C101.456 22.24 101.872 22.944 102.32 23.136C102.544 23.2 102.64 23.52 102.256 23.52C101.136 23.52 97.4882 23.488 96.9122 23.52C96.7522 23.52 96.7522 23.488 96.6882 23.328C96.6242 23.136 96.8482 23.072 96.9442 23.04C97.7442 22.656 97.8082 22.016 97.8082 21.216C97.8402 20.256 97.8722 2.52799 97.7442 1.59999C97.6802 1.15199 97.4242 0.831993 97.0082 0.607992C96.6882 0.479992 96.8802 0.223993 97.0082 0.223993H102.416C102.672 0.223993 102.704 0.479992 102.416 0.575993C102.192 0.639992 101.776 0.799994 101.808 1.08799C101.808 1.27999 102.128 1.34399 102.416 1.37599C111.536 2.59199 122.544 11.392 127.056 15.456C127.44 15.776 128.048 15.52 128.016 15.008L127.888 2.07999C127.888 1.31199 128.08 0.863993 127.216 0.671993C126.896 0.575993 126.96 0.223993 127.216 0.223993H132.72C132.976 0.223993 133.04 0.543993 132.56 0.703993ZM175.885 23.008C176.365 23.168 176.173 23.52 175.885 23.52H169.613C169.229 23.52 169.229 23.104 169.581 23.072C170.061 22.976 170.189 22.688 169.933 22.272C169.837 22.08 163.725 16.128 163.309 15.712C162.765 15.2 162.349 15.104 161.773 15.808C154.861 21.6 145.261 23.52 139.405 23.52C138.285 23.552 137.165 23.52 136.077 23.52C135.757 23.52 135.437 23.104 135.501 22.72V19.36C135.501 19.008 135.821 19.104 135.885 19.36C136.013 19.872 136.269 20.192 136.685 20.192C146.861 20.64 153.069 17.92 158.445 14.112C159.341 13.344 159.693 12.832 159.853 12.256C159.693 11.712 159.341 11.2 158.445 10.4C153.069 6.59199 146.861 3.87199 136.685 4.35199C136.269 4.35199 136.013 4.67199 135.885 5.18399C135.821 5.43999 135.501 5.50399 135.501 5.15199V1.82399C135.437 1.40799 135.757 0.991993 136.077 1.02399C137.165 1.02399 138.285 0.991993 139.405 1.02399C145.261 1.02399 154.861 2.91199 161.773 8.73599C162.349 9.43999 162.765 9.34399 163.309 8.83199C163.725 8.41599 169.837 2.46399 169.933 2.27199C170.189 1.85599 170.061 1.56799 169.581 1.47199C169.229 1.40799 169.229 1.02399 169.613 1.02399H175.885C176.173 1.02399 176.365 1.37599 175.885 1.53599C173.965 2.23999 166.861 10.144 164.973 12.256C166.861 14.4 173.965 22.304 175.885 23.008Z" fill="#C231C9"/>
</svg>
