<svg width="267" height="19" viewBox="0 0 267 19" fill="none" xmlns="http://www.w3.org/2000/svg">
<path d="M1.29998 12.272C1.94131 12.7227 2.61731 13.078 3.32798 13.338C4.03865 13.5807 4.69731 13.702 5.30398 13.702C5.65065 13.702 5.93665 13.6153 6.16198 13.442C6.38731 13.2687 6.49998 13.0347 6.49998 12.74C6.49998 12.584 6.47398 12.4453 6.42198 12.324C6.36998 12.1853 6.26598 12.0467 6.10998 11.908C5.95398 11.7693 5.73731 11.622 5.45998 11.466C5.19998 11.31 4.85331 11.128 4.41998 10.92C3.60531 10.5387 2.97265 10.2093 2.52198 9.93201C2.08865 9.65467 1.70731 9.36001 1.37798 9.04801C0.927314 8.64934 0.580647 8.14667 0.33798 7.54001C0.112647 6.93334 -1.94944e-05 6.28334 -1.94944e-05 5.59001C-1.94944e-05 4.84467 0.121314 4.16001 0.363981 3.53601C0.606647 2.91201 0.944647 2.37467 1.37798 1.92401C1.82865 1.45601 2.34865 1.09201 2.93798 0.832005C3.52731 0.572005 4.17731 0.442005 4.88798 0.442005C5.25198 0.442005 5.58998 0.468005 5.90198 0.520006C6.23131 0.554672 6.65598 0.632672 7.17598 0.754006L7.35798 6.19888e-06L11.102 0.910005L9.93198 5.66801C9.44665 5.26934 8.90931 4.96601 8.31998 4.75801C7.73065 4.53267 7.15865 4.42001 6.60398 4.42001C6.17065 4.42001 5.81531 4.50667 5.53798 4.68001C5.27798 4.83601 5.14798 5.05267 5.14798 5.33001C5.14798 5.46867 5.17398 5.59867 5.22598 5.72001C5.29531 5.84134 5.41665 5.97134 5.58998 6.11001C5.76331 6.24867 5.99731 6.40467 6.29198 6.57801C6.58665 6.75134 6.95931 6.95067 7.40998 7.17601C7.84331 7.40134 8.20731 7.60067 8.50198 7.77401C8.81398 7.93001 9.07398 8.08601 9.28198 8.24201C9.50731 8.38067 9.69798 8.51934 9.85398 8.65801C10.01 8.79667 10.1573 8.95267 10.296 9.12601C11.0586 10.0447 11.44 11.18 11.44 12.532C11.44 13.3813 11.2926 14.1613 10.998 14.872C10.7206 15.5827 10.3306 16.1893 9.82798 16.692C9.32531 17.1947 8.71865 17.5933 8.00798 17.888C7.31465 18.1653 6.54331 18.304 5.69398 18.304C4.75798 18.304 3.84798 18.174 2.96398 17.914C2.07998 17.654 1.16131 17.2467 0.20798 16.692L1.29998 12.272ZM14.0885 5.38201H11.6445L12.6845 0.702005H18.0405L18.1965 0.104005H22.2525L21.0825 5.38201H18.7685V18.044H14.0885V5.38201ZM23.0711 5.38201H22.0311L23.0711 0.702005H27.7511V18.044H23.0711V5.38201ZM30.1539 5.38201H29.1139L30.1539 0.702005H34.8339L37.3039 4.73201L39.7739 0.702005H44.4539V18.044H39.7739V8.32001L37.3039 12.298L34.8339 8.32001V18.044H30.1539V5.38201ZM46.7067 5.38201H45.6667L46.7067 0.702005H51.3867V10.01C51.3867 10.8593 51.3954 11.5093 51.4127 11.96C51.4474 12.3933 51.4994 12.7053 51.5687 12.896C51.7594 13.4333 52.1061 13.702 52.6087 13.702C52.8514 13.702 53.0594 13.624 53.2327 13.468C53.4234 13.312 53.5534 13.104 53.6227 12.844C53.6747 12.6707 53.7094 12.3847 53.7267 11.986C53.7441 11.5873 53.7527 10.9287 53.7527 10.01V0.702005H58.4327V10.686C58.4327 11.2753 58.4241 11.778 58.4067 12.194C58.4067 12.61 58.3894 12.974 58.3547 13.286C58.3374 13.5807 58.3027 13.8407 58.2507 14.066C58.2161 14.2913 58.1641 14.508 58.0947 14.716C57.7307 15.8773 57.0721 16.77 56.1187 17.394C55.1654 18.0007 53.9607 18.304 52.5047 18.304C51.4127 18.304 50.4334 18.096 49.5667 17.68C48.7174 17.2467 48.0414 16.64 47.5387 15.86C47.3827 15.6 47.2527 15.3313 47.1487 15.054C47.0447 14.7593 46.9581 14.4213 46.8887 14.04C46.8194 13.6413 46.7674 13.182 46.7327 12.662C46.7154 12.142 46.7067 11.518 46.7067 10.79V5.38201ZM60.7242 5.38201H59.6842L60.7242 0.702005H65.4042V13.364H68.9402L67.9262 18.044H60.7242V5.38201ZM72.0669 5.38201H71.0269L72.0669 0.702005H79.5549L83.6629 18.044H78.4889L77.8909 15.054H74.6149L73.9909 18.044H68.9729L72.0669 5.38201ZM77.3969 11.18L76.3049 6.34401L75.1869 11.18H77.3969ZM85.5631 5.38201H83.1191L84.1591 0.702005H89.5151L89.6711 0.104005H93.7271L92.5571 5.38201H90.2431V18.044H85.5631V5.38201ZM94.4937 5.38201H93.4537L94.4937 0.702005H100.422V0.104005H104.556L103.386 5.38201H99.1737V7.46201H104.192L103.386 11.284H99.1737V13.364H104.192L103.152 18.044H94.4937V5.38201ZM108.77 12.974C109.498 12.974 110.07 13.2167 110.486 13.702C110.902 14.1873 111.11 14.846 111.11 15.678C111.11 16.51 110.885 17.1687 110.434 17.654C110.001 18.1393 109.42 18.382 108.692 18.382C107.964 18.382 107.384 18.1393 106.95 17.654C106.517 17.1687 106.3 16.5273 106.3 15.73C106.3 14.898 106.526 14.2307 106.976 13.728C107.427 13.2253 108.025 12.974 108.77 12.974ZM114.136 12.272C114.777 12.7227 115.453 13.078 116.164 13.338C116.875 13.5807 117.533 13.702 118.14 13.702C118.487 13.702 118.773 13.6153 118.998 13.442C119.223 13.2687 119.336 13.0347 119.336 12.74C119.336 12.584 119.31 12.4453 119.258 12.324C119.206 12.1853 119.102 12.0467 118.946 11.908C118.79 11.7693 118.573 11.622 118.296 11.466C118.036 11.31 117.689 11.128 117.256 10.92C116.441 10.5387 115.809 10.2093 115.358 9.93201C114.925 9.65467 114.543 9.36001 114.214 9.04801C113.763 8.64934 113.417 8.14667 113.174 7.54001C112.949 6.93334 112.836 6.28334 112.836 5.59001C112.836 4.84467 112.957 4.16001 113.2 3.53601C113.443 2.91201 113.781 2.37467 114.214 1.92401C114.665 1.45601 115.185 1.09201 115.774 0.832005C116.363 0.572005 117.013 0.442005 117.724 0.442005C118.088 0.442005 118.426 0.468005 118.738 0.520006C119.067 0.554672 119.492 0.632672 120.012 0.754006L120.194 6.19888e-06L123.938 0.910005L122.768 5.66801C122.283 5.26934 121.745 4.96601 121.156 4.75801C120.567 4.53267 119.995 4.42001 119.44 4.42001C119.007 4.42001 118.651 4.50667 118.374 4.68001C118.114 4.83601 117.984 5.05267 117.984 5.33001C117.984 5.46867 118.01 5.59867 118.062 5.72001C118.131 5.84134 118.253 5.97134 118.426 6.11001C118.599 6.24867 118.833 6.40467 119.128 6.57801C119.423 6.75134 119.795 6.95067 120.246 7.17601C120.679 7.40134 121.043 7.60067 121.338 7.77401C121.65 7.93001 121.91 8.08601 122.118 8.24201C122.343 8.38067 122.534 8.51934 122.69 8.65801C122.846 8.79667 122.993 8.95267 123.132 9.12601C123.895 10.0447 124.276 11.18 124.276 12.532C124.276 13.3813 124.129 14.1613 123.834 14.872C123.557 15.5827 123.167 16.1893 122.664 16.692C122.161 17.1947 121.555 17.5933 120.844 17.888C120.151 18.1653 119.379 18.304 118.53 18.304C117.594 18.304 116.684 18.174 115.8 17.914C114.916 17.654 113.997 17.2467 113.044 16.692L114.136 12.272ZM132.455 0.442005C133.703 0.442005 134.864 0.780005 135.939 1.45601C137.013 2.11467 137.88 3.04201 138.539 4.23801C138.92 4.89667 139.206 5.66801 139.397 6.55201C139.605 7.43601 139.709 8.37201 139.709 9.36001C139.709 11.9773 139.059 14.0833 137.759 15.678C137.065 16.5273 136.259 17.1773 135.341 17.628C134.439 18.0787 133.469 18.304 132.429 18.304C130.834 18.304 129.421 17.7667 128.191 16.692C126.215 15.028 125.227 12.5407 125.227 9.23001C125.227 6.71667 125.877 4.66267 127.177 3.06801C127.87 2.23601 128.676 1.59467 129.595 1.14401C130.513 0.676005 131.467 0.442005 132.455 0.442005ZM132.455 5.20001C131.727 5.20001 131.163 5.57267 130.765 6.31801C130.366 7.06334 130.167 8.08601 130.167 9.38601C130.167 10.7553 130.366 11.8213 130.765 12.584C131.181 13.3293 131.753 13.702 132.481 13.702C133.209 13.702 133.772 13.3293 134.171 12.584C134.569 11.8213 134.769 10.7813 134.769 9.46401C134.769 8.11201 134.561 7.06334 134.145 6.31801C133.746 5.57267 133.183 5.20001 132.455 5.20001ZM141.39 5.38201H140.35L141.39 0.702005H146.07V13.364H149.606L148.592 18.044H141.39V5.38201ZM148.541 0.702005H153.663L155.535 9.38601L157.381 0.702005H162.555L157.823 18.044H153.247L148.541 0.702005ZM163.404 5.38201H162.364L163.404 0.702005H169.332V0.104005H173.466L172.296 5.38201H168.084V7.46201H173.102L172.296 11.284H168.084V13.364H173.102L172.062 18.044H163.404V5.38201ZM177.681 12.974C178.409 12.974 178.981 13.2167 179.397 13.702C179.813 14.1873 180.021 14.846 180.021 15.678C180.021 16.51 179.795 17.1687 179.345 17.654C178.911 18.1393 178.331 18.382 177.603 18.382C176.875 18.382 176.294 18.1393 175.861 17.654C175.427 17.1687 175.211 16.5273 175.211 15.73C175.211 14.898 175.436 14.2307 175.887 13.728C176.337 13.2253 176.935 12.974 177.681 12.974ZM183.046 12.272C183.687 12.7227 184.363 13.078 185.074 13.338C185.785 13.5807 186.443 13.702 187.05 13.702C187.397 13.702 187.683 13.6153 187.908 13.442C188.133 13.2687 188.246 13.0347 188.246 12.74C188.246 12.584 188.22 12.4453 188.168 12.324C188.116 12.1853 188.012 12.0467 187.856 11.908C187.7 11.7693 187.483 11.622 187.206 11.466C186.946 11.31 186.599 11.128 186.166 10.92C185.351 10.5387 184.719 10.2093 184.268 9.93201C183.835 9.65467 183.453 9.36001 183.124 9.04801C182.673 8.64934 182.327 8.14667 182.084 7.54001C181.859 6.93334 181.746 6.28334 181.746 5.59001C181.746 4.84467 181.867 4.16001 182.11 3.53601C182.353 2.91201 182.691 2.37467 183.124 1.92401C183.575 1.45601 184.095 1.09201 184.684 0.832005C185.273 0.572005 185.923 0.442005 186.634 0.442005C186.998 0.442005 187.336 0.468005 187.648 0.520006C187.977 0.554672 188.402 0.632672 188.922 0.754006L189.104 6.19888e-06L192.848 0.910005L191.678 5.66801C191.193 5.26934 190.655 4.96601 190.066 4.75801C189.477 4.53267 188.905 4.42001 188.35 4.42001C187.917 4.42001 187.561 4.50667 187.284 4.68001C187.024 4.83601 186.894 5.05267 186.894 5.33001C186.894 5.46867 186.92 5.59867 186.972 5.72001C187.041 5.84134 187.163 5.97134 187.336 6.11001C187.509 6.24867 187.743 6.40467 188.038 6.57801C188.333 6.75134 188.705 6.95067 189.156 7.17601C189.589 7.40134 189.953 7.60067 190.248 7.77401C190.56 7.93001 190.82 8.08601 191.028 8.24201C191.253 8.38067 191.444 8.51934 191.6 8.65801C191.756 8.79667 191.903 8.95267 192.042 9.12601C192.805 10.0447 193.186 11.18 193.186 12.532C193.186 13.3813 193.039 14.1613 192.744 14.872C192.467 15.5827 192.077 16.1893 191.574 16.692C191.071 17.1947 190.465 17.5933 189.754 17.888C189.061 18.1653 188.289 18.304 187.44 18.304C186.504 18.304 185.594 18.174 184.71 17.914C183.826 17.654 182.907 17.2467 181.954 16.692L183.046 12.272ZM194.709 5.38201H193.669L194.709 0.702005H199.389V10.01C199.389 10.8593 199.397 11.5093 199.415 11.96C199.449 12.3933 199.501 12.7053 199.571 12.896C199.761 13.4333 200.108 13.702 200.611 13.702C200.853 13.702 201.061 13.624 201.235 13.468C201.425 13.312 201.555 13.104 201.625 12.844C201.677 12.6707 201.711 12.3847 201.729 11.986C201.746 11.5873 201.755 10.9287 201.755 10.01V0.702005H206.435V10.686C206.435 11.2753 206.426 11.778 206.409 12.194C206.409 12.61 206.391 12.974 206.357 13.286C206.339 13.5807 206.305 13.8407 206.253 14.066C206.218 14.2913 206.166 14.508 206.097 14.716C205.733 15.8773 205.074 16.77 204.121 17.394C203.167 18.0007 201.963 18.304 200.507 18.304C199.415 18.304 198.435 18.096 197.569 17.68C196.719 17.2467 196.043 16.64 195.541 15.86C195.385 15.6 195.255 15.3313 195.151 15.054C195.047 14.7593 194.96 14.4213 194.891 14.04C194.821 13.6413 194.769 13.182 194.735 12.662C194.717 12.142 194.709 11.518 194.709 10.79V5.38201ZM208.726 5.38201H207.686L208.726 0.702005H213.848C214.576 0.702005 215.209 0.736672 215.746 0.806005C216.283 0.858005 216.76 0.953339 217.176 1.09201C217.592 1.23067 217.956 1.41267 218.268 1.63801C218.597 1.86334 218.909 2.14067 219.204 2.47001C220.175 3.59667 220.66 5.12201 220.66 7.04601C220.66 9.76734 219.811 11.57 218.112 12.454L220.634 18.044H215.278L213.666 13.052H213.406V18.044H208.726V5.38201ZM213.406 5.22601V9.28201C213.475 9.29934 213.545 9.30801 213.614 9.30801C213.683 9.30801 213.735 9.30801 213.77 9.30801C214.394 9.30801 214.871 9.12601 215.2 8.76201C215.547 8.39801 215.72 7.88667 215.72 7.22801C215.72 5.89334 215.061 5.22601 213.744 5.22601H213.406ZM220.777 0.702005H225.899L227.771 9.38601L229.617 0.702005H234.791L230.059 18.044H225.483L220.777 0.702005ZM235.692 5.38201H234.652L235.692 0.702005H240.372V18.044H235.692V5.38201ZM241.293 0.702005H246.415L248.287 9.38601L250.133 0.702005H255.307L250.575 18.044H245.999L241.293 0.702005ZM256.156 5.38201H255.116L256.156 0.702005H262.084V0.104005H266.218L265.048 5.38201H260.836V7.46201H265.854L265.048 11.284H260.836V13.364H265.854L264.814 18.044H256.156V5.38201Z" fill="white"/>
</svg>
