<svg width="261" height="43" viewBox="0 0 261 43" fill="none" xmlns="http://www.w3.org/2000/svg">
<path d="M20.8218 33.35L20.5318 42.63H-0.000234306L0.231766 2.9L10.4398 3.016V13.63L16.2978 13.34L16.5878 22.388H10.4398V33.35H20.8218ZM34.4486 30.508L34.9126 34.8L51.4426 35.09L52.4286 42.398L24.2986 42.63V11.948L52.2546 11.426L52.7186 29.812L34.4486 30.508ZM33.5206 23.954L43.6706 23.374L43.1486 17.864L33.5206 18.096V23.954ZM90.8133 32.48L90.4653 42.63H56.1873L58.8553 7.598L93.1913 8.352L91.7993 18.56L68.3673 18.212L67.3813 32.074L90.8133 32.48ZM105.559 3.132V20.01L123.133 20.416V42.804H112.171V29.348H105.559L105.327 42.224L96.6853 42.514L96.9173 2.9L105.559 3.132ZM146.312 33.35L146.892 42.398H127.81L126.592 3.712L136.8 4.06V12.992L140.57 12.702L140.86 22.388H136.8V33.35H146.312ZM168.187 22.678L168.013 18.56L161.575 18.792L162.561 42.572H151.599L150.381 11.31L176.307 10.73V22.678H168.187ZM180.357 2.668L189.173 2.204L188.709 9.338L180.647 9.628L180.357 2.668ZM179.777 42.63L180.357 13.108L189.057 12.586L189.347 42.63H179.777ZM223.486 8.7L222.036 42.63L192.804 42.688L192.862 21.46L212.466 21.344L212.524 16.414L193.384 16.182L193.616 8.004L223.486 8.7ZM201.562 28.188L201.62 34.8H212.292L212.234 28.188H201.562ZM249.057 17.4L249.579 4.05312e-06H260.019L258.453 42.34L226.959 42.63L228.177 17.4H249.057ZM237.921 25.926L237.515 34.742L247.839 34.858L248.477 26.1L237.921 25.926Z" fill="white"/>
</svg>
