<svg width="260" height="19" viewBox="0 0 260 19" fill="none" xmlns="http://www.w3.org/2000/svg">
<path d="M2.44448 5.38194H0.00048438L1.04048 0.701944H6.39648L6.55248 0.103944H10.6085L9.43848 5.38194H7.12449V18.0439H2.44448V5.38194ZM11.3751 5.38194H10.3351L11.3751 0.701944H16.0551V6.94194H18.9411V0.701944H23.6211V18.0439H18.9411V11.5439H16.0551V18.0439H11.3751V5.38194ZM26.0255 5.38194H24.9855L26.0255 0.701944H31.9535V0.103944H36.0875L34.9175 5.38194H30.7055V7.46195H35.7235L34.9175 11.2839H30.7055V13.3639H35.7235L34.6835 18.0439H26.0255V5.38194ZM45.627 5.38194H44.587L45.627 0.701944H50.307C50.879 0.701944 51.373 0.727944 51.789 0.779944C52.2224 0.814611 52.6037 0.875278 52.933 0.961945C53.2624 1.04861 53.557 1.16995 53.817 1.32595C54.077 1.46461 54.337 1.64661 54.597 1.87194C55.273 2.47861 55.793 3.25861 56.157 4.21195C56.5384 5.16528 56.729 6.21394 56.729 7.35794C56.729 8.70995 56.4864 9.92328 56.001 10.9979C55.5157 12.0553 54.857 12.8439 54.025 13.3639C53.1757 13.9186 51.9364 14.1959 50.307 14.1959V18.0439H45.627V5.38194ZM50.489 9.69795C50.9744 9.69795 51.373 9.48994 51.685 9.07394C51.997 8.64061 52.153 8.09461 52.153 7.43594C52.153 6.03194 51.5377 5.28661 50.307 5.19994V9.69795H50.489ZM58.4505 5.38194H57.4105L58.4505 0.701944H63.1305V18.0439H58.4505V5.38194ZM65.5333 5.38194H64.4933L65.5333 0.701944H70.2133L73.4373 7.27994V0.701944H78.1173V18.0439H74.0093L70.2133 10.6079V18.0439H65.5333V5.38194ZM80.4884 5.38194H79.4484L80.4884 0.701944H85.1684L88.3924 7.27994V0.701944H93.0724V18.0439H88.9644L85.1684 10.6079V18.0439H80.4884V5.38194ZM97.2647 5.38194H96.2247L97.2647 0.701944H104.753L108.861 18.0439H103.687L103.089 15.0539H99.8127L99.1887 18.0439H94.1707L97.2647 5.38194ZM102.595 11.1799L101.503 6.34394L100.385 11.1799H102.595ZM121.001 16.1979C119.406 17.6019 117.733 18.3039 115.983 18.3039C114.943 18.3039 113.946 18.0526 112.993 17.5499C112.039 17.0473 111.233 16.3279 110.575 15.3919C109.465 13.8666 108.911 11.9426 108.911 9.61995C108.911 7.90395 109.179 6.37861 109.717 5.04395C110.271 3.70928 111.043 2.64328 112.031 1.84594C112.585 1.39528 113.192 1.04861 113.851 0.805944C114.509 0.563277 115.168 0.441944 115.827 0.441944C116.069 0.441944 116.303 0.459278 116.529 0.493945C116.754 0.528611 117.049 0.589278 117.413 0.675944L117.673 0.129945L121.157 1.74194L119.207 6.91594C118.756 6.30928 118.314 5.87594 117.881 5.61594C117.465 5.33861 116.979 5.19994 116.425 5.19994C114.709 5.19994 113.851 6.61261 113.851 9.43794C113.851 10.7899 114.059 11.8386 114.475 12.5839C114.891 13.3293 115.471 13.7019 116.217 13.7019C117.309 13.7019 118.305 12.9393 119.207 11.4139L121.001 16.1979ZM122.484 5.38194H121.444L122.484 0.701944H127.164V13.3639H130.7L129.686 18.0439H122.484V5.38194ZM131.955 5.38194H130.915L131.955 0.701944H137.883V0.103944H142.017L140.847 5.38194H136.635V7.46195H141.653L140.847 11.2839H136.635V13.3639H141.653L140.613 18.0439H131.955V5.38194ZM158.135 0.441944C159.383 0.441944 160.544 0.779944 161.619 1.45595C162.693 2.11461 163.56 3.04194 164.219 4.23794C164.6 4.89661 164.886 5.66794 165.077 6.55194C165.285 7.43594 165.389 8.37194 165.389 9.35994C165.389 11.9773 164.739 14.0833 163.439 15.6779C162.745 16.5273 161.939 17.1773 161.021 17.6279C160.119 18.0786 159.149 18.3039 158.109 18.3039C156.514 18.3039 155.101 17.7666 153.871 16.6919C151.895 15.0279 150.907 12.5406 150.907 9.22994C150.907 6.71661 151.557 4.66261 152.857 3.06794C153.55 2.23594 154.356 1.59461 155.275 1.14394C156.193 0.675944 157.147 0.441944 158.135 0.441944ZM158.135 5.19994C157.407 5.19994 156.843 5.57261 156.445 6.31794C156.046 7.06328 155.847 8.08594 155.847 9.38595C155.847 10.7553 156.046 11.8213 156.445 12.5839C156.861 13.3293 157.433 13.7019 158.161 13.7019C158.889 13.7019 159.452 13.3293 159.851 12.5839C160.249 11.8213 160.449 10.7813 160.449 9.46394C160.449 8.11194 160.241 7.06328 159.825 6.31794C159.426 5.57261 158.863 5.19994 158.135 5.19994ZM167.07 5.38194H166.03L167.07 0.701944H172.972L173.102 0.103944H177.158L175.988 5.38194H171.75V7.64395H176.3L175.312 11.9859H171.75V18.0439H167.07V5.38194ZM186.342 5.38194H185.302L186.342 0.701944H190.008C190.736 0.701944 191.36 0.727944 191.88 0.779944C192.417 0.831945 192.894 0.918611 193.31 1.03994C193.726 1.14394 194.107 1.29994 194.454 1.50794C194.801 1.71594 195.147 1.97595 195.494 2.28795C197.314 3.89995 198.224 6.23994 198.224 9.30794C198.224 10.9373 197.964 12.3846 197.444 13.6499C196.941 14.9153 196.196 15.9379 195.208 16.7179C194.896 16.9779 194.567 17.1946 194.22 17.3679C193.891 17.5413 193.518 17.6799 193.102 17.7839C192.686 17.8706 192.209 17.9399 191.672 17.9919C191.135 18.0266 190.502 18.0439 189.774 18.0439H186.342V5.38194ZM191.022 13.3639C191.75 13.3293 192.305 12.9653 192.686 12.2719C193.085 11.5786 193.284 10.6079 193.284 9.35994C193.284 8.05994 193.111 7.10661 192.764 6.49994C192.435 5.89328 191.854 5.52061 191.022 5.38194V13.3639ZM199.926 5.38194H198.886L199.926 0.701944H205.854V0.103944H209.988L208.818 5.38194H204.606V7.46195H209.624L208.818 11.2839H204.606V13.3639H209.624L208.584 18.0439H199.926V5.38194ZM212.383 12.2719C213.024 12.7226 213.7 13.0779 214.411 13.3379C215.121 13.5806 215.78 13.7019 216.387 13.7019C216.733 13.7019 217.019 13.6153 217.244 13.4419C217.47 13.2686 217.583 13.0346 217.583 12.7399C217.583 12.5839 217.557 12.4453 217.505 12.3239C217.453 12.1853 217.349 12.0466 217.193 11.9079C217.037 11.7693 216.82 11.6219 216.543 11.4659C216.283 11.3099 215.936 11.1279 215.503 10.9199C214.688 10.5386 214.055 10.2093 213.605 9.93195C213.171 9.65461 212.79 9.35995 212.461 9.04794C212.01 8.64928 211.663 8.14661 211.42 7.53994C211.195 6.93328 211.083 6.28328 211.083 5.58994C211.083 4.84461 211.204 4.15994 211.447 3.53594C211.689 2.91194 212.027 2.37461 212.461 1.92395C212.911 1.45595 213.431 1.09194 214.021 0.831944C214.61 0.571944 215.26 0.441944 215.971 0.441944C216.335 0.441944 216.673 0.467944 216.985 0.519945C217.314 0.554611 217.739 0.632611 218.259 0.753945L218.441 -5.48363e-05L222.185 0.909944L221.015 5.66795C220.529 5.26928 219.992 4.96594 219.403 4.75794C218.813 4.53261 218.241 4.41994 217.687 4.41994C217.253 4.41994 216.898 4.50661 216.621 4.67995C216.361 4.83595 216.231 5.05261 216.231 5.32994C216.231 5.46861 216.257 5.59861 216.309 5.71994C216.378 5.84128 216.499 5.97128 216.673 6.10994C216.846 6.24861 217.08 6.40461 217.375 6.57794C217.669 6.75128 218.042 6.95061 218.493 7.17594C218.926 7.40128 219.29 7.60061 219.585 7.77395C219.897 7.92995 220.157 8.08595 220.365 8.24195C220.59 8.38061 220.781 8.51928 220.937 8.65794C221.093 8.79661 221.24 8.95261 221.379 9.12594C222.141 10.0446 222.523 11.1799 222.523 12.5319C222.523 13.3813 222.375 14.1613 222.081 14.8719C221.803 15.5826 221.413 16.1893 220.911 16.6919C220.408 17.1946 219.801 17.5933 219.091 17.8879C218.397 18.1653 217.626 18.3039 216.777 18.3039C215.841 18.3039 214.931 18.1739 214.047 17.9139C213.163 17.6539 212.244 17.2466 211.291 16.6919L212.383 12.2719ZM224.175 5.38194H223.135L224.175 0.701944H228.855V18.0439H224.175V5.38194ZM238.902 7.14994H245.116C245.099 8.05128 245.073 8.81394 245.038 9.43794C245.003 10.0619 244.96 10.6079 244.908 11.0759C244.856 11.5439 244.787 11.9599 244.7 12.3239C244.631 12.6879 244.535 13.0519 244.414 13.4159C244.154 14.1439 243.799 14.8113 243.348 15.4179C242.897 16.0073 242.386 16.5186 241.814 16.9519C241.242 17.3853 240.618 17.7233 239.942 17.9659C239.266 18.1913 238.573 18.3039 237.862 18.3039C236.787 18.3039 235.808 18.0873 234.924 17.6539C234.04 17.2033 233.277 16.5879 232.636 15.8079C231.995 15.0106 231.492 14.0659 231.128 12.9739C230.781 11.8646 230.608 10.6513 230.608 9.33395C230.608 8.05128 230.781 6.87261 231.128 5.79794C231.475 4.70594 231.951 3.76128 232.558 2.96394C233.165 2.16661 233.884 1.55128 234.716 1.11794C235.565 0.667278 236.484 0.441944 237.472 0.441944C237.871 0.441944 238.235 0.476611 238.564 0.545944C238.911 0.615278 239.344 0.745278 239.864 0.935944L240.306 0.363945L243.426 2.67794L240.15 6.68195C239.751 6.12728 239.387 5.74594 239.058 5.53794C238.746 5.31261 238.365 5.19994 237.914 5.19994C237.169 5.19994 236.588 5.56394 236.172 6.29194C235.756 7.00261 235.548 8.00794 235.548 9.30794C235.548 10.7119 235.756 11.7953 236.172 12.5579C236.588 13.3206 237.212 13.7019 238.044 13.7019C238.685 13.7019 239.197 13.4766 239.578 13.0259C239.977 12.5579 240.219 11.9079 240.306 11.0759H238.044L238.902 7.14994ZM246.543 5.38194H245.503L246.543 0.701944H251.223L254.447 7.27994V0.701944H259.127V18.0439H255.019L251.223 10.6079V18.0439H246.543V5.38194Z" fill="white"/>
</svg>
