<svg width="218" height="19" viewBox="0 0 218 19" fill="none" xmlns="http://www.w3.org/2000/svg">
<path d="M2.44448 5.382H0.00048438L1.04048 0.701997H6.39648L6.55248 0.103997H10.6085L9.43848 5.382H7.12449V18.044H2.44448V5.382ZM11.3751 5.382H10.3351L11.3751 0.701997H16.0551V6.942H18.9411V0.701997H23.6211V18.044H18.9411V11.544H16.0551V18.044H11.3751V5.382ZM26.0775 5.382H25.0375L26.0775 0.701997H30.7575V18.044H26.0775V5.382ZM33.1602 5.382H32.1202L33.1602 0.701997H37.8402L41.0642 7.28V0.701997H45.7442V18.044H41.6362L37.8402 10.608V18.044H33.1602V5.382ZM48.1153 5.382H47.0753L48.1153 0.701997H52.7953V7.306L55.4473 0.701997H60.2313L56.6173 9.126L60.7253 18.044H55.6553L52.7953 11.414V18.044H48.1153V5.382ZM63.9662 12.974C64.6942 12.974 65.2662 13.2167 65.6822 13.702C66.0982 14.1873 66.3062 14.846 66.3062 15.678C66.3062 16.51 66.0808 17.1687 65.6302 17.654C65.1968 18.1393 64.6162 18.382 63.8882 18.382C63.1602 18.382 62.5795 18.1393 62.1462 17.654C61.7128 17.1687 61.4962 16.5273 61.4962 15.73C61.4962 14.898 61.7215 14.2307 62.1722 13.728C62.6228 13.2253 63.2208 12.974 63.9662 12.974ZM68.6817 5.382H67.6417L68.6817 0.701997H72.3477C73.0757 0.701997 73.6997 0.727997 74.2197 0.779998C74.7571 0.831998 75.2337 0.918665 75.6497 1.04C76.0657 1.144 76.4471 1.3 76.7937 1.508C77.1404 1.716 77.4871 1.976 77.8337 2.288C79.6537 3.9 80.5637 6.24 80.5637 9.308C80.5637 10.9373 80.3037 12.3847 79.7837 13.65C79.2811 14.9153 78.5357 15.938 77.5477 16.718C77.2357 16.978 76.9064 17.1947 76.5597 17.368C76.2304 17.5413 75.8577 17.68 75.4417 17.784C75.0257 17.8707 74.5491 17.94 74.0117 17.992C73.4744 18.0267 72.8417 18.044 72.1137 18.044H68.6817V5.382ZM73.3617 13.364C74.0897 13.3293 74.6444 12.9653 75.0257 12.272C75.4244 11.5787 75.6237 10.608 75.6237 9.36C75.6237 8.06 75.4504 7.10666 75.1037 6.5C74.7744 5.89333 74.1937 5.52066 73.3617 5.382V13.364ZM82.2657 5.382H81.2257L82.2657 0.701997H88.1937V0.103997H92.3277L91.1577 5.382H86.9457V7.462H91.9637L91.1577 11.284H86.9457V13.364H91.9637L90.9237 18.044H82.2657V5.382ZM94.7223 12.272C95.3637 12.7227 96.0397 13.078 96.7503 13.338C97.461 13.5807 98.1197 13.702 98.7263 13.702C99.073 13.702 99.359 13.6153 99.5843 13.442C99.8097 13.2687 99.9223 13.0347 99.9223 12.74C99.9223 12.584 99.8963 12.4453 99.8443 12.324C99.7923 12.1853 99.6883 12.0467 99.5323 11.908C99.3763 11.7693 99.1597 11.622 98.8823 11.466C98.6223 11.31 98.2757 11.128 97.8423 10.92C97.0277 10.5387 96.395 10.2093 95.9443 9.932C95.511 9.65467 95.1297 9.36 94.8003 9.048C94.3497 8.64933 94.003 8.14666 93.7603 7.54C93.535 6.93333 93.4223 6.28333 93.4223 5.59C93.4223 4.84466 93.5437 4.16 93.7863 3.536C94.029 2.912 94.367 2.37466 94.8003 1.924C95.251 1.456 95.771 1.092 96.3603 0.831997C96.9497 0.571997 97.5997 0.441998 98.3103 0.441998C98.6743 0.441998 99.0123 0.467998 99.3243 0.519998C99.6537 0.554664 100.078 0.632664 100.598 0.753998L100.78 -1.43051e-06L104.524 0.909998L103.354 5.668C102.869 5.26933 102.332 4.966 101.742 4.758C101.153 4.53266 100.581 4.42 100.026 4.42C99.593 4.42 99.2377 4.50666 98.9603 4.68C98.7003 4.836 98.5703 5.05267 98.5703 5.33C98.5703 5.46866 98.5963 5.59866 98.6483 5.72C98.7177 5.84133 98.839 5.97133 99.0123 6.11C99.1857 6.24866 99.4197 6.40466 99.7143 6.578C100.009 6.75133 100.382 6.95066 100.832 7.176C101.266 7.40133 101.63 7.60066 101.924 7.774C102.236 7.93 102.496 8.086 102.704 8.242C102.93 8.38067 103.12 8.51933 103.276 8.658C103.432 8.79666 103.58 8.95266 103.718 9.126C104.481 10.0447 104.862 11.18 104.862 12.532C104.862 13.3813 104.715 14.1613 104.42 14.872C104.143 15.5827 103.753 16.1893 103.25 16.692C102.748 17.1947 102.141 17.5933 101.43 17.888C100.737 18.1653 99.9657 18.304 99.1163 18.304C98.1803 18.304 97.2703 18.174 96.3863 17.914C95.5023 17.654 94.5837 17.2467 93.6303 16.692L94.7223 12.272ZM106.515 5.382H105.475L106.515 0.701997H111.195V18.044H106.515V5.382ZM121.242 7.15H127.456C127.438 8.05133 127.412 8.814 127.378 9.438C127.343 10.062 127.3 10.608 127.248 11.076C127.196 11.544 127.126 11.96 127.04 12.324C126.97 12.688 126.875 13.052 126.754 13.416C126.494 14.144 126.138 14.8113 125.688 15.418C125.237 16.0073 124.726 16.5187 124.154 16.952C123.582 17.3853 122.958 17.7233 122.282 17.966C121.606 18.1913 120.912 18.304 120.202 18.304C119.127 18.304 118.148 18.0873 117.264 17.654C116.38 17.2033 115.617 16.588 114.976 15.808C114.334 15.0107 113.832 14.066 113.468 12.974C113.121 11.8647 112.948 10.6513 112.948 9.334C112.948 8.05133 113.121 6.87267 113.468 5.798C113.814 4.706 114.291 3.76133 114.898 2.964C115.504 2.16666 116.224 1.55133 117.056 1.118C117.905 0.667331 118.824 0.441998 119.812 0.441998C120.21 0.441998 120.574 0.476664 120.904 0.545998C121.25 0.615331 121.684 0.745331 122.204 0.935997L122.646 0.363999L125.766 2.678L122.49 6.682C122.091 6.12733 121.727 5.746 121.398 5.538C121.086 5.31266 120.704 5.2 120.254 5.2C119.508 5.2 118.928 5.564 118.512 6.292C118.096 7.00266 117.888 8.008 117.888 9.308C117.888 10.712 118.096 11.7953 118.512 12.558C118.928 13.3207 119.552 13.702 120.384 13.702C121.025 13.702 121.536 13.4767 121.918 13.026C122.316 12.558 122.559 11.908 122.646 11.076H120.384L121.242 7.15ZM128.883 5.382H127.843L128.883 0.701997H133.563L136.787 7.28V0.701997H141.467V18.044H137.359L133.563 10.608V18.044H128.883V5.382ZM146.308 12.974C147.036 12.974 147.608 13.2167 148.024 13.702C148.44 14.1873 148.648 14.846 148.648 15.678C148.648 16.51 148.423 17.1687 147.972 17.654C147.539 18.1393 146.958 18.382 146.23 18.382C145.502 18.382 144.921 18.1393 144.488 17.654C144.055 17.1687 143.838 16.5273 143.838 15.73C143.838 14.898 144.063 14.2307 144.514 13.728C144.965 13.2253 145.563 12.974 146.308 12.974ZM162.464 16.198C160.869 17.602 159.196 18.304 157.446 18.304C156.406 18.304 155.409 18.0527 154.456 17.55C153.502 17.0473 152.696 16.328 152.038 15.392C150.928 13.8667 150.374 11.9427 150.374 9.62C150.374 7.904 150.642 6.37867 151.18 5.044C151.734 3.70933 152.506 2.64333 153.494 1.846C154.048 1.39533 154.655 1.04866 155.314 0.805997C155.972 0.563331 156.631 0.441998 157.29 0.441998C157.532 0.441998 157.766 0.459331 157.992 0.493998C158.217 0.528665 158.512 0.589331 158.876 0.675998L159.136 0.129998L162.62 1.742L160.67 6.916C160.219 6.30933 159.777 5.876 159.344 5.616C158.928 5.33866 158.442 5.2 157.888 5.2C156.172 5.2 155.314 6.61266 155.314 9.438C155.314 10.79 155.522 11.8387 155.938 12.584C156.354 13.3293 156.934 13.702 157.68 13.702C158.772 13.702 159.768 12.9393 160.67 11.414L162.464 16.198ZM165.997 5.382H164.957L165.997 0.701997H173.485L177.593 18.044H172.419L171.821 15.054H168.545L167.921 18.044H162.903L165.997 5.382ZM171.327 11.18L170.235 6.344L169.117 11.18H171.327ZM178.699 5.382H177.659L178.699 0.701997H183.821C184.549 0.701997 185.182 0.736664 185.719 0.805997C186.257 0.857998 186.733 0.953332 187.149 1.092C187.565 1.23066 187.929 1.41266 188.241 1.638C188.571 1.86333 188.883 2.14066 189.177 2.47C190.148 3.59666 190.633 5.122 190.633 7.046C190.633 9.76733 189.784 11.57 188.085 12.454L190.607 18.044H185.251L183.639 13.052H183.379V18.044H178.699V5.382ZM183.379 5.226V9.282C183.449 9.29933 183.518 9.308 183.587 9.308C183.657 9.308 183.709 9.308 183.743 9.308C184.367 9.308 184.844 9.126 185.173 8.762C185.52 8.398 185.693 7.88666 185.693 7.228C185.693 5.89333 185.035 5.226 183.717 5.226H183.379ZM192.588 5.382H191.548L192.588 0.701997H197.71C198.438 0.701997 199.071 0.736664 199.608 0.805997C200.145 0.857998 200.622 0.953332 201.038 1.092C201.454 1.23066 201.818 1.41266 202.13 1.638C202.459 1.86333 202.771 2.14066 203.066 2.47C204.037 3.59666 204.522 5.122 204.522 7.046C204.522 9.76733 203.673 11.57 201.974 12.454L204.496 18.044H199.14L197.528 13.052H197.268V18.044H192.588V5.382ZM197.268 5.226V9.282C197.337 9.29933 197.407 9.308 197.476 9.308C197.545 9.308 197.597 9.308 197.632 9.308C198.256 9.308 198.733 9.126 199.062 8.762C199.409 8.398 199.582 7.88666 199.582 7.228C199.582 5.89333 198.923 5.226 197.606 5.226H197.268ZM208.492 10.244L204.28 0.701997H209.35L210.832 5.018L212.366 0.701997H217.436L213.172 10.244V18.044H208.492V10.244Z" fill="white"/>
</svg>
