<svg width="258" height="74" viewBox="0 0 258 74" fill="none" xmlns="http://www.w3.org/2000/svg">
<path d="M10.3396 72.16C9.75294 72.4533 9.16628 72.6 8.57961 72.6C7.40628 72.6 6.45294 71.83 5.71961 70.29C5.27961 69.2633 5.05961 67.87 5.05961 66.11C5.05961 64.2767 5.20628 62.3333 5.49961 60.28C5.79294 58.2267 5.97628 56.9433 6.04961 56.43C7.22294 49.2433 9.64294 40.59 13.3096 30.47C13.6763 29.2967 14.0796 28.1967 14.5196 27.17L15.3996 24.75C15.6196 24.1633 15.7296 23.6867 15.7296 23.32C15.7296 22.9533 15.5463 22.7333 15.1796 22.66C14.8863 22.5133 14.3729 22.4767 13.6396 22.55L4.72961 23.65C4.43628 23.7233 4.06961 23.7967 3.62961 23.87C3.18961 23.9433 2.63961 23.98 1.97961 23.98C1.46628 23.98 1.06294 23.9433 0.769609 23.87C0.329609 23.7233 0.0729423 23.5033 -0.000390887 23.21V22.88C-0.000390887 22.44 0.182942 22.1467 0.549609 22C1.28294 21.78 2.30961 21.5233 3.62961 21.23C5.90294 20.9367 9.82628 20.46 15.3996 19.8C16.7196 19.7267 17.6363 19.1033 18.1496 17.93L21.1196 11.33C22.4396 8.98334 23.4663 7.22334 24.1996 6.05C24.4929 5.39 24.8596 4.91334 25.2996 4.62C25.7396 4.25334 26.1429 4.07 26.5096 4.07C26.8029 4.07 27.0229 4.18 27.1696 4.40001C27.3896 4.62001 27.4996 4.91334 27.4996 5.28001C27.4996 5.72001 27.3163 6.38001 26.9496 7.26001C26.3629 8.72667 25.0063 11.66 22.8796 16.06C22.8063 16.2067 22.6596 16.5367 22.4396 17.05C22.2196 17.49 22.1096 18.04 22.1096 18.7C22.8429 18.8467 23.3196 18.92 23.5396 18.92L24.7496 18.81C28.1963 18.4433 31.4963 18.15 34.6496 17.93L44.7696 16.94C45.6496 16.8667 46.4196 16.8667 47.0796 16.94C47.7396 16.94 48.2896 16.94 48.7296 16.94C49.1696 16.94 49.4629 17.3067 49.6096 18.04C49.6096 18.6267 49.3896 18.9933 48.9496 19.14C48.2163 19.2867 47.2629 19.4333 46.0896 19.58L22.4396 21.67C21.6329 21.7433 20.9729 21.9633 20.4596 22.33C19.9463 22.6233 19.5429 23.1367 19.2496 23.87C17.9296 26.8767 16.1696 31.7167 13.9696 38.39C11.7696 44.99 10.3029 49.9767 9.56961 53.35C8.83628 56.2833 8.28628 59.95 7.91961 64.35C7.91961 64.7167 7.88294 65.0833 7.80961 65.45C7.73628 65.8167 7.69961 66.1833 7.69961 66.55C7.69961 67.7233 8.10294 68.64 8.90961 69.3C9.64294 69.2267 10.2296 68.97 10.6696 68.53C11.1096 68.1633 11.5129 67.7233 11.8796 67.21C12.3196 66.77 12.6129 66.44 12.7596 66.22C15.0329 63.36 18.0763 59.2167 21.8896 53.79C22.4763 52.9833 23.7963 51.1867 25.8496 48.4C27.9029 45.54 29.3696 43.6333 30.2496 42.68C30.3229 42.6067 30.5429 42.3133 30.9096 41.8C31.3496 41.2133 31.9363 40.7733 32.6696 40.48C33.1096 40.3333 33.5129 40.37 33.8796 40.59C34.4663 41.03 34.5763 41.58 34.2096 42.24C34.2096 42.46 34.0996 42.68 33.8796 42.9C32.4863 44.5133 29.7363 48.1433 25.6296 53.79C24.9696 54.67 23.3196 56.9433 20.6796 60.61C18.0396 64.2033 15.6196 67.2467 13.4196 69.74C12.6863 70.7667 11.6596 71.5733 10.3396 72.16ZM36.4285 58.41C35.4018 58.9967 34.3752 59.29 33.3485 59.29C32.0285 59.29 30.8552 58.8867 29.8285 58.08C28.8018 57.2 28.1418 56.0633 27.8485 54.67C27.6285 53.6433 27.5552 52.69 27.6285 51.81C28.0685 47.2633 29.7918 43.2667 32.7985 39.82C33.7518 38.5733 34.7785 37.7667 35.8785 37.4C36.3185 37.18 36.7952 37.07 37.3085 37.07C38.0418 37.2167 38.4452 37.5833 38.5185 38.17V38.61C38.5185 39.1967 38.2985 39.5267 37.8585 39.6C36.7585 39.82 35.9152 40.2233 35.3285 40.81C34.7418 41.3967 34.0085 42.3867 33.1285 43.78C32.1018 45.6133 31.3685 47.4833 30.9285 49.39C30.6352 50.27 30.4885 51.3333 30.4885 52.58C30.4885 53.8267 30.7085 54.78 31.1485 55.44C31.6618 56.1 32.3952 56.43 33.3485 56.43C33.9352 56.43 34.5218 56.2467 35.1085 55.88C35.6952 55.5133 36.1718 55 36.5385 54.34C37.4185 52.8 37.8585 51.48 37.8585 50.38C37.8585 49.3533 37.5285 48.29 36.8685 47.19C36.5752 46.75 36.2085 46.0167 35.7685 44.99V44.66C35.7685 44.2933 35.8785 44 36.0985 43.78C36.3185 43.56 36.5752 43.4133 36.8685 43.34H40.2785C41.5985 43.4867 43.6518 43.1567 46.4385 42.35L52.4885 40.15L54.2485 39.71C54.8352 39.71 55.3118 40.0033 55.6785 40.59C55.7518 40.7367 55.7885 40.92 55.7885 41.14C55.7885 41.7267 55.4585 42.13 54.7985 42.35L51.8285 43.45C51.3885 43.5967 50.1419 44.0367 48.0885 44.77C46.1085 45.43 44.1285 45.87 42.1485 46.09C41.4152 46.1633 40.9385 46.2733 40.7185 46.42C40.4985 46.4933 40.3885 46.7133 40.3885 47.08C40.3885 47.52 40.4252 47.9233 40.4985 48.29C40.6452 49.17 40.7185 49.83 40.7185 50.27C40.7185 51.6633 40.3885 53.0933 39.7285 54.56C38.9952 56.1733 37.8952 57.4567 36.4285 58.41ZM54.0603 72.16C53.4736 72.4533 52.887 72.6 52.3003 72.6C51.127 72.6 50.1736 71.83 49.4403 70.29C49.0003 69.2633 48.7803 67.87 48.7803 66.11C48.7803 64.2767 48.927 62.3333 49.2203 60.28C49.5136 58.2267 49.697 56.9433 49.7703 56.43C50.9436 49.2433 53.3636 40.59 57.0303 30.47C57.397 29.2967 57.8003 28.1967 58.2403 27.17L59.1203 24.75C59.3403 24.1633 59.4503 23.6867 59.4503 23.32C59.4503 22.9533 59.267 22.7333 58.9003 22.66C58.607 22.5133 58.0936 22.4767 57.3603 22.55L48.4503 23.65C48.157 23.7233 47.7903 23.7967 47.3503 23.87C46.9103 23.9433 46.3603 23.98 45.7003 23.98C45.187 23.98 44.7836 23.9433 44.4903 23.87C44.0503 23.7233 43.7936 23.5033 43.7203 23.21V22.88C43.7203 22.44 43.9036 22.1467 44.2703 22C45.0036 21.78 46.0303 21.5233 47.3503 21.23C49.6236 20.9367 53.547 20.46 59.1203 19.8C60.4403 19.7267 61.357 19.1033 61.8703 17.93L64.8403 11.33C66.1603 8.98334 67.187 7.22334 67.9203 6.05C68.2136 5.39 68.5803 4.91334 69.0203 4.62C69.4603 4.25334 69.8636 4.07 70.2303 4.07C70.5236 4.07 70.7436 4.18 70.8903 4.40001C71.1103 4.62001 71.2203 4.91334 71.2203 5.28001C71.2203 5.72001 71.037 6.38001 70.6703 7.26001C70.0836 8.72667 68.727 11.66 66.6003 16.06C66.527 16.2067 66.3803 16.5367 66.1603 17.05C65.9403 17.49 65.8303 18.04 65.8303 18.7C66.5636 18.8467 67.0403 18.92 67.2603 18.92L68.4703 18.81C71.917 18.4433 75.217 18.15 78.3703 17.93L88.4903 16.94C89.3703 16.8667 90.1403 16.8667 90.8003 16.94C91.4603 16.94 92.0103 16.94 92.4503 16.94C92.8903 16.94 93.1836 17.3067 93.3303 18.04C93.3303 18.6267 93.1103 18.9933 92.6703 19.14C91.937 19.2867 90.9836 19.4333 89.8103 19.58L66.1603 21.67C65.3536 21.7433 64.6936 21.9633 64.1803 22.33C63.667 22.6233 63.2636 23.1367 62.9703 23.87C61.6503 26.8767 59.8903 31.7167 57.6903 38.39C55.4903 44.99 54.0236 49.9767 53.2903 53.35C52.557 56.2833 52.007 59.95 51.6403 64.35C51.6403 64.7167 51.6036 65.0833 51.5303 65.45C51.457 65.8167 51.4203 66.1833 51.4203 66.55C51.4203 67.7233 51.8236 68.64 52.6303 69.3C53.3636 69.2267 53.9503 68.97 54.3903 68.53C54.8303 68.1633 55.2336 67.7233 55.6003 67.21C56.0403 66.77 56.3336 66.44 56.4803 66.22C58.7536 63.36 61.797 59.2167 65.6103 53.79C66.197 52.9833 67.517 51.1867 69.5703 48.4C71.6236 45.54 73.0903 43.6333 73.9703 42.68C74.0436 42.6067 74.2636 42.3133 74.6303 41.8C75.0703 41.2133 75.657 40.7733 76.3903 40.48C76.8303 40.3333 77.2336 40.37 77.6003 40.59C78.187 41.03 78.297 41.58 77.9303 42.24C77.9303 42.46 77.8203 42.68 77.6003 42.9C76.207 44.5133 73.457 48.1433 69.3503 53.79C68.6903 54.67 67.0403 56.9433 64.4003 60.61C61.7603 64.2033 59.3403 67.2467 57.1403 69.74C56.407 70.7667 55.3803 71.5733 54.0603 72.16ZM77.6192 60.17C76.2259 60.17 75.0159 59.84 73.9892 59.18C73.0359 58.4467 72.3759 57.42 72.0092 56.1C71.4959 54.6333 71.2759 53.3867 71.3492 52.36C71.2759 51.04 71.5326 49.3533 72.1192 47.3C73.5126 42.9 75.6392 39.3433 78.4992 36.63C79.5992 35.6033 80.6259 34.8333 81.5792 34.32C82.6059 33.7333 83.7426 33.44 84.9892 33.44C86.0892 33.44 86.9326 33.8067 87.5192 34.54C88.1792 35.2733 88.4359 36.2633 88.2892 37.51C87.9959 39.71 87.0792 41.6167 85.5392 43.23C83.7059 45.21 82.0192 46.7867 80.4792 47.96C78.9392 49.06 77.1792 49.72 75.1992 49.94C74.7592 50.0133 74.4659 50.3433 74.3192 50.93C74.2459 51.2233 74.2092 51.6633 74.2092 52.25C74.2092 53.2767 74.3559 54.12 74.6492 54.78C75.0892 56.8333 76.3359 57.6767 78.3892 57.31C79.7092 57.0167 81.2859 56.43 83.1192 55.55C85.9792 54.01 88.6192 52.14 91.0392 49.94L98.8492 42.57L100.939 40.59C101.526 40.0767 102.076 40.0767 102.589 40.59C103.103 41.1033 103.213 41.6533 102.919 42.24C102.773 42.5333 102.479 42.9 102.039 43.34C97.6392 47.8133 93.9726 51.26 91.0392 53.68C88.4726 55.8067 85.8692 57.4933 83.2292 58.74C81.0292 59.6933 79.1592 60.17 77.6192 60.17ZM76.6292 46.64C80.3692 44.66 82.9359 42.4233 84.3292 39.93C84.9892 38.9033 85.3192 38.06 85.3192 37.4C85.2459 36.6667 84.9159 36.3733 84.3292 36.52C83.6692 36.5933 83.0092 36.85 82.3492 37.29C79.4159 39.1967 77.2159 42.0933 75.7492 45.98C75.7492 46.3467 75.8226 46.53 75.9692 46.53C76.3359 46.6767 76.5559 46.7133 76.6292 46.64ZM134.197 72.16C133.61 72.4533 133.024 72.6 132.437 72.6C131.264 72.6 130.31 71.83 129.577 70.29C129.137 69.2633 128.917 67.87 128.917 66.11C128.917 64.2767 129.064 62.3333 129.357 60.28C129.65 58.2267 129.834 56.9433 129.907 56.43C131.08 49.2433 133.5 40.59 137.167 30.47C137.534 29.2967 137.937 28.1967 138.377 27.17L139.257 24.75C139.477 24.1633 139.587 23.6867 139.587 23.32C139.587 22.9533 139.404 22.7333 139.037 22.66C138.744 22.5133 138.23 22.4767 137.497 22.55L128.587 23.65C128.294 23.7233 127.927 23.7967 127.487 23.87C127.047 23.9433 126.497 23.98 125.837 23.98C125.324 23.98 124.92 23.9433 124.627 23.87C124.187 23.7233 123.93 23.5033 123.857 23.21V22.88C123.857 22.44 124.04 22.1467 124.407 22C125.14 21.78 126.167 21.5233 127.487 21.23C129.76 20.9367 133.684 20.46 139.257 19.8C140.577 19.7267 141.494 19.1033 142.007 17.93L144.977 11.33C146.297 8.98334 147.324 7.22334 148.057 6.05C148.35 5.39 148.717 4.91334 149.157 4.62C149.597 4.25334 150 4.07 150.367 4.07C150.66 4.07 150.88 4.18 151.027 4.40001C151.247 4.62001 151.357 4.91334 151.357 5.28001C151.357 5.72001 151.174 6.38001 150.807 7.26001C150.22 8.72667 148.864 11.66 146.737 16.06C146.664 16.2067 146.517 16.5367 146.297 17.05C146.077 17.49 145.967 18.04 145.967 18.7C146.7 18.8467 147.177 18.92 147.397 18.92L148.607 18.81C152.054 18.4433 155.354 18.15 158.507 17.93L168.627 16.94C169.507 16.8667 170.277 16.8667 170.937 16.94C171.597 16.94 172.147 16.94 172.587 16.94C173.027 16.94 173.32 17.3067 173.467 18.04C173.467 18.6267 173.247 18.9933 172.807 19.14C172.074 19.2867 171.12 19.4333 169.947 19.58L146.297 21.67C145.49 21.7433 144.83 21.9633 144.317 22.33C143.804 22.6233 143.4 23.1367 143.107 23.87C141.787 26.8767 140.027 31.7167 137.827 38.39C135.627 44.99 134.16 49.9767 133.427 53.35C132.694 56.2833 132.144 59.95 131.777 64.35C131.777 64.7167 131.74 65.0833 131.667 65.45C131.594 65.8167 131.557 66.1833 131.557 66.55C131.557 67.7233 131.96 68.64 132.767 69.3C133.5 69.2267 134.087 68.97 134.527 68.53C134.967 68.1633 135.37 67.7233 135.737 67.21C136.177 66.77 136.47 66.44 136.617 66.22C138.89 63.36 141.934 59.2167 145.747 53.79C146.334 52.9833 147.654 51.1867 149.707 48.4C151.76 45.54 153.227 43.6333 154.107 42.68C154.18 42.6067 154.4 42.3133 154.767 41.8C155.207 41.2133 155.794 40.7733 156.527 40.48C156.967 40.3333 157.37 40.37 157.737 40.59C158.324 41.03 158.434 41.58 158.067 42.24C158.067 42.46 157.957 42.68 157.737 42.9C156.344 44.5133 153.594 48.1433 149.487 53.79C148.827 54.67 147.177 56.9433 144.537 60.61C141.897 64.2033 139.477 67.2467 137.277 69.74C136.544 70.7667 135.517 71.5733 134.197 72.16ZM154.456 55C154.016 55.22 153.576 55.33 153.136 55.33C152.476 55.33 151.926 55.11 151.486 54.67C151.046 54.1567 150.789 53.4967 150.716 52.69C150.716 51.8833 150.753 51.2967 150.826 50.93C152.219 45.43 154.493 41.14 157.646 38.06C158.013 37.62 158.563 37.1433 159.296 36.63C160.469 35.6767 161.679 35.2 162.926 35.2C164.026 35.2 165.126 35.64 166.226 36.52C166.739 36.8867 167.069 37.07 167.216 37.07C167.436 37.07 167.766 36.7767 168.206 36.19C168.793 35.53 169.599 34.4667 170.626 33L172.056 31.02C173.156 29.48 173.706 28.71 173.706 28.71C174.366 28.05 175.026 27.8667 175.686 28.16C176.419 28.6 176.603 29.3333 176.236 30.36L174.806 33.33C172.826 37.2167 171.359 40.8833 170.406 44.33C169.673 46.97 169.306 48.95 169.306 50.27C169.306 50.6367 169.416 50.93 169.636 51.15C169.856 51.2967 170.113 51.2967 170.406 51.15C171.726 50.5633 172.716 50.0867 173.376 49.72C175.063 48.62 176.419 47.63 177.446 46.75C178.473 45.9433 179.389 45.1367 180.196 44.33L182.836 42.02C184.009 41.0667 184.633 40.5533 184.706 40.48C185.146 40.1133 185.586 40.15 186.026 40.59C186.539 40.9567 186.686 41.5067 186.466 42.24C186.466 42.3133 186.246 42.57 185.806 43.01C181.626 47.19 177.849 50.3067 174.476 52.36C172.423 53.7533 170.663 54.45 169.196 54.45C167.363 54.45 166.446 53.3867 166.446 51.26C166.446 50.2333 166.593 48.6933 166.886 46.64C167.033 45.8333 167.363 44.44 167.876 42.46C166.996 42.7533 166.336 43.1933 165.896 43.78C165.529 44.2933 165.273 44.6233 165.126 44.77C162.119 48.3633 159.553 51.0767 157.426 52.91C156.326 53.8633 155.336 54.56 154.456 55ZM154.126 51.37C154.493 51.4433 154.823 51.3333 155.116 51.04C157.903 48.6933 161.056 45.2833 164.576 40.81C164.723 40.7367 164.869 40.5533 165.016 40.26C165.089 40.1133 165.126 39.93 165.126 39.71C165.126 39.27 164.943 38.94 164.576 38.72C164.063 38.3533 163.549 38.17 163.036 38.17C162.889 38.17 162.596 38.2433 162.156 38.39C161.496 38.61 160.909 38.9767 160.396 39.49C156.949 42.4967 154.786 46.3833 153.906 51.15C153.906 51.15 153.943 51.1867 154.016 51.26C154.089 51.26 154.126 51.2967 154.126 51.37ZM207.343 40.59C207.856 40.81 208.039 41.2133 207.893 41.8C207.893 42.3133 207.746 42.7533 207.453 43.12C207.306 43.4867 206.756 44.4033 205.803 45.87C204.336 47.7033 201.769 51.15 198.103 56.21L191.613 65.01C190.146 66.9167 188.753 68.3833 187.433 69.41C186.406 70.2167 185.489 70.62 184.683 70.62C183.363 70.62 182.373 69.6667 181.713 67.76C181.419 67.1 181.236 66.5133 181.163 66C181.089 65.0467 181.053 63.8367 181.053 62.37C181.126 57.8967 181.749 52.91 182.923 47.41C183.143 46.09 183.253 45.3933 183.253 45.32C183.253 44.66 183.069 44.11 182.703 43.67C182.556 43.3767 182.483 43.1933 182.483 43.12C182.483 42.7533 182.666 42.3867 183.033 42.02C184.206 40.5533 185.233 38.28 186.113 35.2C189.633 24.2 193.666 14.9967 198.213 7.59C198.726 6.78334 199.716 5.28001 201.183 3.08C201.403 2.78667 202.063 2.09001 203.163 0.990004C203.969 0.330004 204.739 0.183337 205.473 0.550003C206.279 0.916669 206.609 1.65 206.463 2.75001C206.169 4.21667 205.876 5.24334 205.583 5.83001C205.069 7.15001 204.226 9.13001 203.053 11.77C198.653 20.4967 194.289 28.2333 189.963 34.98C188.936 36.5933 188.166 38.2067 187.653 39.82C185.819 46.3467 184.609 52.9467 184.023 59.62C183.876 61.0867 183.803 62.1867 183.803 62.92C183.803 64.24 183.949 65.3767 184.243 66.33C184.389 66.77 184.609 67.0633 184.903 67.21C185.269 67.3567 185.599 67.2833 185.893 66.99C187.506 65.3767 188.496 64.3133 188.863 63.8C192.309 59.4 197.516 52.36 204.483 42.68C204.996 41.8 205.473 41.14 205.913 40.7C206.206 40.4067 206.683 40.37 207.343 40.59ZM202.943 6.6L203.053 6.93001V6.82001L202.943 6.6ZM193.703 22.99C193.483 23.43 193.373 23.87 193.373 24.31C193.373 24.53 193.446 24.86 193.593 25.3V25.41V25.3H193.703L200.083 12.87L203.053 6.93001C202.759 6.78334 202.539 6.71001 202.393 6.71001C202.099 6.71001 201.733 7.00334 201.293 7.59C198.213 12.65 195.683 17.7833 193.703 22.99ZM193.593 25.3C193.593 25.2267 193.593 25.19 193.593 25.19C193.666 25.19 193.703 25.2267 193.703 25.3H193.593ZM207.6 60.17C206.206 60.17 204.996 59.84 203.97 59.18C203.016 58.4467 202.356 57.42 201.99 56.1C201.476 54.6333 201.256 53.3867 201.33 52.36C201.256 51.04 201.513 49.3533 202.1 47.3C203.493 42.9 205.62 39.3433 208.48 36.63C209.58 35.6033 210.606 34.8333 211.56 34.32C212.586 33.7333 213.723 33.44 214.97 33.44C216.07 33.44 216.913 33.8067 217.5 34.54C218.16 35.2733 218.416 36.2633 218.27 37.51C217.976 39.71 217.06 41.6167 215.52 43.23C213.686 45.21 212 46.7867 210.46 47.96C208.92 49.06 207.16 49.72 205.18 49.94C204.74 50.0133 204.446 50.3433 204.3 50.93C204.226 51.2233 204.19 51.6633 204.19 52.25C204.19 53.2767 204.336 54.12 204.63 54.78C205.07 56.8333 206.316 57.6767 208.37 57.31C209.69 57.0167 211.266 56.43 213.1 55.55C215.96 54.01 218.6 52.14 221.02 49.94L228.83 42.57L230.92 40.59C231.506 40.0767 232.056 40.0767 232.57 40.59C233.083 41.1033 233.193 41.6533 232.9 42.24C232.753 42.5333 232.46 42.9 232.02 43.34C227.62 47.8133 223.953 51.26 221.02 53.68C218.453 55.8067 215.85 57.4933 213.21 58.74C211.01 59.6933 209.14 60.17 207.6 60.17ZM206.61 46.64C210.35 44.66 212.916 42.4233 214.31 39.93C214.97 38.9033 215.3 38.06 215.3 37.4C215.226 36.6667 214.896 36.3733 214.31 36.52C213.65 36.5933 212.99 36.85 212.33 37.29C209.396 39.1967 207.196 42.0933 205.73 45.98C205.73 46.3467 205.803 46.53 205.95 46.53C206.316 46.6767 206.536 46.7133 206.61 46.64ZM224.929 73.04C223.682 72.3067 223.059 71.0967 223.059 69.41L223.169 68.31C223.316 67.1367 223.902 65.8533 224.929 64.46C226.762 61.7467 228.706 59.62 230.759 58.08C231.566 57.4933 232.079 56.8333 232.299 56.1C232.592 55.3667 232.739 54.45 232.739 53.35C232.666 50.71 232.226 47.41 231.419 43.45C231.346 43.01 231.236 42.24 231.089 41.14C230.942 40.04 230.869 39.0867 230.869 38.28C230.869 34.1 232.812 30.6533 236.699 27.94C237.799 27.28 238.936 26.95 240.109 26.95C240.769 26.95 241.246 26.9867 241.539 27.06C241.906 27.1333 242.309 27.39 242.749 27.83C242.969 28.05 243.079 28.27 243.079 28.49C243.079 28.71 243.006 28.93 242.859 29.15C242.712 29.37 242.529 29.5167 242.309 29.59C241.869 29.7367 241.539 29.7733 241.319 29.7C239.632 29.6267 238.129 30.25 236.809 31.57C234.976 33.33 233.949 35.2 233.729 37.18L233.619 38.61C233.619 39.1233 233.692 39.82 233.839 40.7C234.719 45.3933 235.306 49.3167 235.599 52.47C235.599 52.5433 235.782 52.8733 236.149 53.46C236.809 53.0933 237.359 52.7633 237.799 52.47L253.749 41.25L255.179 40.37C255.619 40.0767 256.059 40.15 256.499 40.59C256.792 40.81 256.939 41.0667 256.939 41.36C257.012 41.6533 256.939 41.9467 256.719 42.24C256.352 42.8267 255.766 43.3767 254.959 43.89L246.489 49.94L237.359 56.43C236.112 57.31 235.379 58.4833 235.159 59.95C234.939 62.4433 234.242 64.9733 233.069 67.54C232.189 69.5933 231.126 71.1333 229.879 72.16C228.852 73.1133 227.789 73.59 226.689 73.59C226.102 73.59 225.516 73.4067 224.929 73.04ZM226.359 70.18C226.652 70.62 227.092 70.62 227.679 70.18C228.706 69.3733 229.586 68.1633 230.319 66.55C231.052 65.01 231.456 63.36 231.529 61.6C228.962 63.4333 227.129 65.7433 226.029 68.53C225.882 68.8233 225.882 69.08 226.029 69.3C226.029 69.6667 226.139 69.96 226.359 70.18Z" fill="#C231C9"/>
</svg>
