<svg width="268" height="44" viewBox="0 0 268 44" fill="none" xmlns="http://www.w3.org/2000/svg">
<path d="M7.8125 43.75L1.5625 31.25V1.5625L0 0H4.6875V34.375L7.8125 40.625L10.9375 34.375V0H15.625L14.0625 1.5625V31.25L7.8125 43.75ZM17.7734 43.75L19.3359 42.1875V1.5625L17.7734 0H30.2734V3.125L28.7109 1.5625H22.4609V25H27.1484V26.5625H22.4609V42.1875H28.7109L30.2734 40.625V43.75H17.7734ZM37.1094 27.002C37.5651 26.709 38.0859 26.5625 38.6719 26.5625H41.7969C42.2201 26.5625 42.5781 26.416 42.8711 26.123C43.1966 25.8301 43.3594 25.4557 43.3594 25V3.125C43.3594 2.70182 43.1966 2.34375 42.8711 2.05078C42.5781 1.72526 42.2201 1.5625 41.7969 1.5625H37.1094V27.002ZM32.4219 43.75L33.9844 42.1875V1.5625L32.4219 0H43.3594C44.2057 0 44.9382 0.309245 45.5566 0.927734C46.1751 1.54622 46.4844 2.27865 46.4844 3.125V25C46.4844 25.8789 46.1751 26.6276 45.5566 27.2461C45.4915 27.2786 45.4427 27.3112 45.4102 27.3438C45.4427 27.4089 45.4915 27.4577 45.5566 27.4902C46.1751 28.1087 46.4844 28.8411 46.4844 29.6875V42.1875L48.0469 43.75H43.3594V29.6875C43.3594 29.2643 43.1966 28.9062 42.8711 28.6133C42.5781 28.2878 42.2201 28.125 41.7969 28.125H38.6719C38.2161 28.125 37.8418 28.2878 37.5488 28.6133C37.2559 28.9062 37.1094 29.2643 37.1094 29.6875V43.75H32.4219ZM55.6641 43.75L57.2266 42.1875V1.5625H53.3203L51.7578 3.125V0H65.8203V3.125L64.2578 1.5625H60.3516V42.1875L61.9141 43.75H55.6641ZM67.9688 43.75L69.5312 42.1875V1.5625L67.9688 0H74.2188L72.6562 1.5625V42.1875L74.2188 43.75H67.9688ZM81.0547 43.3594H81.0059C81.0059 43.3594 81.0221 43.3594 81.0547 43.3594ZM81.0547 43.75C80.1758 43.75 79.4271 43.457 78.8086 42.8711C78.2227 42.2526 77.9297 41.5039 77.9297 40.625V3.125C77.9297 2.27865 78.2227 1.54622 78.8086 0.927734C79.4271 0.309245 80.1758 0 81.0547 0H90.4297V3.125L88.8672 1.5625H82.6172C82.1615 1.5625 81.7871 1.72526 81.4941 2.05078C81.2012 2.34375 81.0547 2.70182 81.0547 3.125V40.625C81.0547 41.0807 81.2012 41.4551 81.4941 41.748C81.7871 42.041 82.1615 42.1875 82.6172 42.1875H88.8672L90.4297 40.625V43.75H81.0547ZM103.516 26.5625V3.125C103.516 2.70182 103.353 2.34375 103.027 2.05078C102.734 1.72526 102.376 1.5625 101.953 1.5625H98.8281C98.3724 1.5625 97.998 1.72526 97.7051 2.05078C97.4121 2.34375 97.2656 2.70182 97.2656 3.125V26.5625H103.516ZM92.5781 43.75L94.1406 42.1875V3.125C94.1406 2.27865 94.4336 1.54622 95.0195 0.927734C95.638 0.309245 96.3867 0 97.2656 0H103.516C104.362 0 105.094 0.309245 105.713 0.927734C106.331 1.54622 106.641 2.27865 106.641 3.125V42.1875L108.203 43.75H103.516V28.125H97.2656V43.75H92.5781ZM110.352 43.75L111.914 42.1875V1.5625L110.352 0H116.602L115.039 1.5625V42.1875H121.289L122.852 40.625V43.75H110.352ZM142.773 43.75L136.523 31.25V1.5625L134.961 0H139.648V34.375L142.773 40.625L145.898 34.375V0H150.586L149.023 1.5625V31.25L142.773 43.75ZM152.734 43.75L154.297 42.1875V1.5625L152.734 0H165.234V3.125L163.672 1.5625H157.422V25H162.109V26.5625H157.422V42.1875H163.672L165.234 40.625V43.75H152.734ZM167.383 43.75L168.945 42.1875V1.5625L167.383 0H178.32C179.167 0 179.899 0.309245 180.518 0.927734C181.136 1.54622 181.445 2.27865 181.445 3.125V42.1875L183.008 43.75H178.32V3.125C178.32 2.70182 178.158 2.34375 177.832 2.05078C177.539 1.72526 177.181 1.5625 176.758 1.5625H172.07V43.75H167.383ZM190.625 43.75L192.188 42.1875V1.5625H188.281L186.719 3.125V0H200.781V3.125L199.219 1.5625H195.312V42.1875L196.875 43.75H190.625ZM207.617 43.3594H207.568C207.568 43.3594 207.585 43.3594 207.617 43.3594ZM207.617 43.75C206.738 43.75 205.99 43.457 205.371 42.8711C204.785 42.2526 204.492 41.5039 204.492 40.625V1.5625L202.93 0H207.617V40.625C207.617 41.0807 207.764 41.4551 208.057 41.748C208.35 42.041 208.724 42.1875 209.18 42.1875H212.305C212.728 42.1875 213.086 42.041 213.379 41.748C213.704 41.4551 213.867 41.0807 213.867 40.625V0H218.555L216.992 1.5625V40.625C216.992 41.5039 216.683 42.2526 216.064 42.8711C215.446 43.457 214.714 43.75 213.867 43.75H207.617ZM225.391 27.002C225.846 26.709 226.367 26.5625 226.953 26.5625H230.078C230.501 26.5625 230.859 26.416 231.152 26.123C231.478 25.8301 231.641 25.4557 231.641 25V3.125C231.641 2.70182 231.478 2.34375 231.152 2.05078C230.859 1.72526 230.501 1.5625 230.078 1.5625H225.391V27.002ZM220.703 43.75L222.266 42.1875V1.5625L220.703 0H231.641C232.487 0 233.219 0.309245 233.838 0.927734C234.456 1.54622 234.766 2.27865 234.766 3.125V25C234.766 25.8789 234.456 26.6276 233.838 27.2461C233.773 27.2786 233.724 27.3112 233.691 27.3438C233.724 27.4089 233.773 27.4577 233.838 27.4902C234.456 28.1087 234.766 28.8411 234.766 29.6875V42.1875L236.328 43.75H231.641V29.6875C231.641 29.2643 231.478 28.9062 231.152 28.6133C230.859 28.2878 230.501 28.125 230.078 28.125H226.953C226.497 28.125 226.123 28.2878 225.83 28.6133C225.537 28.9062 225.391 29.2643 225.391 29.6875V43.75H220.703ZM238.477 43.75L240.039 42.1875V1.5625L238.477 0H250.977V3.125L249.414 1.5625H243.164V25H247.852V26.5625H243.164V42.1875H249.414L250.977 40.625V43.75H238.477ZM254.688 43.75V40.625L256.25 42.1875H262.5C262.923 42.1875 263.281 42.041 263.574 41.748C263.9 41.4551 264.062 41.0807 264.062 40.625V29.6875C264.062 29.2643 263.9 28.9062 263.574 28.6133C263.281 28.2878 262.923 28.125 262.5 28.125H257.812C256.934 28.125 256.185 27.832 255.566 27.2461C254.98 26.6276 254.688 25.8789 254.688 25V3.125C254.688 2.27865 254.98 1.54622 255.566 0.927734C256.185 0.309245 256.934 0 257.812 0H267.188V3.125L265.625 1.5625H259.375C258.919 1.5625 258.545 1.72526 258.252 2.05078C257.959 2.34375 257.812 2.70182 257.812 3.125V25C257.812 25.4557 257.959 25.8301 258.252 26.123C258.545 26.416 258.919 26.5625 259.375 26.5625H264.062C264.909 26.5625 265.641 26.8717 266.26 27.4902C266.878 28.1087 267.188 28.8411 267.188 29.6875V40.625C267.188 41.5039 266.878 42.2526 266.26 42.8711C265.641 43.457 264.909 43.75 264.062 43.75H254.688Z" fill="#C231C9"/>
</svg>
